<?xml version="1.0" standalone="no"?>
<!DOCTYPE svg PUBLIC "-//W3C//DTD SVG 1.1//EN" "http://www.w3.org/Graphics/SVG/1.1/DTD/svg11.dtd" >
<svg xmlns="http://www.w3.org/2000/svg" xmlns:xlink="http://www.w3.org/1999/xlink" version="1.1">
<metadata>
Created by FontForge 20200427 at Wed Jul 29 09:14:23 2020
 By www
Copyright (c) 2017 by Timo Gaessner. All rights reserved.
</metadata>
<defs>
<font id="MaisonNeueExtended-ExtraBold" horiz-adv-x="720" >
  <font-face 
    font-family="Maison Neue Extended Extra Bold"
    font-weight="800"
    font-stretch="expanded"
    units-per-em="1000"
    panose-1="2 11 9 5 4 0 0 0 0 0"
    ascent="755"
    descent="-245"
    x-height="530"
    cap-height="700"
    bbox="-785 -327 2507 1085"
    underline-thickness="100"
    underline-position="-220"
    unicode-range="U+000D-FEFF"
  />
<missing-glyph horiz-adv-x="706" 
d="M47 -5h26l66 65l67 -65l63 65l69 -65l71 65l63 -65l68 65l65 -65h28v423q-3 132 -86 211t-208 81q-124 -2 -206 -81q-83 -79 -86 -211v-423zM147 300l-14 14l63 63l-63 64l14 14l63 -64l64 64l14 -14l-64 -64l64 -63l-14 -14l-64 63zM407 300l-14 14l63 63l-63 64l14 14
l63 -64l64 64l14 -14l-64 -64l64 -63l-14 -14l-64 63z" />
    <glyph glyph-name=".notdef" horiz-adv-x="706" 
d="M47 -5h26l66 65l67 -65l63 65l69 -65l71 65l63 -65l68 65l65 -65h28v423q-3 132 -86 211t-208 81q-124 -2 -206 -81q-83 -79 -86 -211v-423zM147 300l-14 14l63 63l-63 64l14 14l63 -64l64 64l14 -14l-64 -64l64 -63l-14 -14l-64 63zM407 300l-14 14l63 63l-63 64l14 14
l63 -64l64 64l14 -14l-64 -64l64 -63l-14 -14l-64 63z" />
    <glyph glyph-name=".null" horiz-adv-x="0" 
 />
    <glyph glyph-name="uni000D" unicode="&#xd;" horiz-adv-x="249" 
 />
    <glyph glyph-name="space" unicode=" " horiz-adv-x="255" 
 />
    <glyph glyph-name="exclam" unicode="!" horiz-adv-x="415" 
d="M119 264h178v436h-178v-436zM113 0h189v184h-189v-184z" />
    <glyph glyph-name="quotedbl" unicode="&#x22;" horiz-adv-x="480" 
d="M73 440h137v260h-137v-260zM271 440h137v260h-137v-260z" />
    <glyph glyph-name="numbersign" unicode="#" horiz-adv-x="893" 
d="M824 417l26 141h-137l25 142h-160l-25 -142h-143l25 142h-160l-25 -142h-137l-26 -141h138l-23 -128h-134l-25 -140h134l-26 -149h160l26 149h143l-26 -149h160l26 149h140l24 140h-139l23 128h136zM505 289h-143l23 128h143z" />
    <glyph glyph-name="dollar" unicode="$" horiz-adv-x="706" 
d="M683 197q-6 115 -98 164t-198 68v140q40 -10 66 -35t39 -65l164 36q-21 86 -91 141q-71 55 -178 69v90h-77v-87q-125 -6 -197 -62t-74 -149q5 -100 87 -145t184 -66v-165q-48 10 -78 42q-31 32 -44 91l-165 -29q19 -112 95 -174q75 -62 192 -75v-101h77v97q139 4 217 61
q78 58 79 154v0zM210 509q0 29 27 47q26 17 73 19v-129q-44 11 -72 26q-27 14 -28 37v0zM387 124v153q54 -14 89 -32q35 -19 36 -51q0 -30 -31 -49q-32 -19 -94 -21v0z" />
    <glyph glyph-name="percent" unicode="%" horiz-adv-x="1147" 
d="M388 -96l503 818l-126 69l-500 -817zM255 271q95 2 153 62q57 60 59 157q-2 97 -59 157q-58 60 -153 62q-95 -2 -152 -62q-58 -60 -60 -157q2 -97 60 -157q57 -60 152 -62v0zM255 390q-38 1 -59 27q-20 27 -20 73t20 73q21 26 59 27q39 -1 59 -27q20 -27 20 -73t-20 -73
q-20 -26 -59 -27v0zM892 -9q95 2 153 62q57 60 59 157q-2 97 -59 157q-58 60 -153 62q-95 -2 -152 -62q-58 -60 -60 -157q2 -97 60 -157q57 -60 152 -62v0zM892 110q-38 1 -58 27q-20 27 -20 73t20 73q20 26 58 27q39 -1 59 -27q20 -27 20 -73t-20 -73q-20 -26 -59 -27v0z
" />
    <glyph glyph-name="ampersand" unicode="&#x26;" horiz-adv-x="790" 
d="M782 143l-104 73v216h-156v-107l-191 133q-31 22 -42 36t-10 30q0 22 20 36q19 15 53 15q37 0 61 -18q23 -17 30 -49l172 16q-13 90 -83 142t-180 53q-113 -1 -179 -53q-66 -51 -68 -138q0 -40 16 -74q15 -34 51 -67q-59 -32 -94 -83q-34 -51 -35 -112q1 -100 82 -155
q82 -54 229 -55q84 0 150 21q65 21 109 62l74 -53zM356 135q-65 0 -102 20t-38 56q0 26 19 48t54 39l185 -133q-19 -16 -49 -23q-29 -7 -69 -7v0z" />
    <glyph glyph-name="quotesingle" unicode="'" horiz-adv-x="283" 
d="M73 440h137v260h-137v-260z" />
    <glyph glyph-name="parenleft" unicode="(" horiz-adv-x="379" 
d="M277 -197l99 73q-82 106 -118 205q-37 100 -36 214q-1 114 36 214q36 99 118 205l-99 73q-99 -113 -151 -238q-53 -124 -53 -254t53 -254q52 -125 151 -238v0z" />
    <glyph glyph-name="parenright" unicode=")" horiz-adv-x="379" 
d="M102 -197q99 113 152 238q52 124 52 254t-52 254q-53 125 -152 238l-99 -73q82 -106 118 -205q37 -100 36 -214q1 -114 -36 -214q-36 -99 -118 -205z" />
    <glyph glyph-name="asterisk" unicode="*" horiz-adv-x="496" 
d="M149 307l100 118l100 -118l79 69l-86 103l111 64l-53 93l-99 -58v122h-106v-122l-99 58l-53 -93l113 -64l-88 -103z" />
    <glyph glyph-name="plus" unicode="+" horiz-adv-x="613" 
d="M570 426h-192v208h-142v-208h-193v-132h193v-208h142v208h192v132z" />
    <glyph glyph-name="comma" unicode="," horiz-adv-x="331" 
d="M79 -161q89 7 134 55t45 131v145h-185v-170h67q1 -34 -12 -51q-14 -17 -49 -25v-85z" />
    <glyph glyph-name="hyphen" unicode="-" horiz-adv-x="348" 
d="M33 219h282v145h-282v-145z" />
    <glyph glyph-name="period" unicode="." horiz-adv-x="335" 
d="M73 0h189v184h-189v-184z" />
    <glyph glyph-name="slash" unicode="/" horiz-adv-x="555" 
d="M93 -73l464 792l-93 56l-466 -794z" />
    <glyph glyph-name="zero" unicode="0" horiz-adv-x="729" 
d="M365 -19q155 3 247 100q92 98 94 255q-2 157 -94 254t-247 100q-156 -3 -248 -100t-94 -254q2 -157 94 -255q92 -97 248 -100v0zM365 135q-79 1 -124 54q-44 53 -45 147q1 94 45 147q45 52 124 53q79 -1 123 -53q44 -53 45 -147q-1 -94 -45 -147t-123 -54v0z" />
    <glyph glyph-name="one" unicode="1" horiz-adv-x="488" 
d="M237 0h173v672h-160l-232 -118v-172l219 112v-494z" />
    <glyph glyph-name="two" unicode="2" horiz-adv-x="691" 
d="M253 186q14 12 50 25t107 33q125 35 185 89q59 54 58 142q-2 94 -80 153q-77 60 -206 62q-140 -2 -229 -71q-90 -70 -103 -189l170 -17q9 61 51 95q43 34 111 34q54 0 83 -20q30 -19 30 -51q2 -34 -35 -58q-38 -24 -146 -54q-74 -20 -122 -45t-79 -61q-27 -29 -40 -64
t-13 -82v-107h601v150h-414q1 12 6 20q5 7 15 16v0z" />
    <glyph glyph-name="three" unicode="3" horiz-adv-x="700" 
d="M361 -18q139 1 219 58t82 156q0 52 -28 93q-27 42 -77 67v2q44 24 66 58q22 33 22 73q-2 89 -81 144t-207 57q-128 -1 -212 -59t-106 -160l168 -31q12 50 50 76t99 26q54 0 84 -19q30 -18 31 -53q0 -33 -25 -49t-75 -16h-88v-126h97q109 0 109 -71q0 -39 -33 -58
q-34 -20 -97 -20q-138 0 -165 122l-166 -45q22 -104 110 -164t223 -61v0z" />
    <glyph glyph-name="four" unicode="4" horiz-adv-x="707" 
d="M422 0h173v104h99v151h-99v417h-282l-311 -415v-153h420v-104zM184 255l236 308h2v-308h-238z" />
    <glyph glyph-name="five" unicode="5" horiz-adv-x="689" 
d="M352 -18q148 1 233 65q84 64 86 173q-2 107 -81 172q-78 65 -207 67q-52 0 -94 -10q-43 -10 -77 -30l-2 1l18 103h369v149h-500l-63 -355l162 -43q29 23 67 38q39 15 90 16q68 -1 106 -27t39 -70q-1 -45 -40 -71q-38 -26 -106 -27q-62 0 -105 22q-43 23 -64 73l-159 -64
q30 -80 114 -130t214 -52v0z" />
    <glyph glyph-name="six" unicode="6" horiz-adv-x="704" 
d="M401 447q-58 0 -105 -13q-48 -13 -81 -37h-2q9 69 51 106q41 38 113 38q48 0 83 -20q34 -20 49 -57l162 49q-28 81 -106 128q-78 48 -190 49q-158 -2 -254 -99q-95 -97 -98 -258q2 -166 95 -258t259 -93q136 1 224 64q87 62 90 169q-2 102 -81 166t-209 66v0zM375 131
q-66 1 -105 27q-40 26 -41 69q1 43 40 70q40 26 106 27q67 -1 105 -26q38 -26 39 -71q-1 -45 -39 -70q-38 -26 -105 -26v0z" />
    <glyph glyph-name="seven" unicode="7" horiz-adv-x="616" 
d="M92 0h206l305 535v137h-600v-151h395v-1z" />
    <glyph glyph-name="eight" unicode="8" horiz-adv-x="688" 
d="M344 -19q146 1 240 59q93 57 96 154q-1 61 -38 107t-101 69v2q44 22 69 54t25 75q-2 88 -81 138q-80 50 -210 51q-130 -1 -210 -51q-79 -50 -81 -138q0 -43 25 -75t68 -54v-2q-63 -23 -100 -69t-38 -107q3 -96 96 -154q94 -57 240 -59v0zM344 425q-54 0 -84 18
q-30 17 -31 48q0 32 31 50q30 18 84 18t85 -18q30 -18 30 -50q0 -31 -30 -48q-31 -18 -85 -18v0zM344 141q-70 0 -109 20t-40 57q1 35 40 56t109 21t109 -21t40 -56q-1 -37 -40 -57t-109 -20v0z" />
    <glyph glyph-name="nine" unicode="9" horiz-adv-x="667" 
d="M319 690q-137 -2 -220 -69q-84 -67 -86 -173q2 -102 80 -164t207 -64q50 0 91 11q42 10 73 29q-7 -67 -41 -102t-91 -35q-48 0 -79 21t-47 64l-157 -53q27 -81 102 -127q74 -46 181 -47q153 0 233 95q79 94 79 278q-1 161 -85 248t-240 88v0zM187 449q1 44 36 69
q36 26 99 26q63 -1 99 -27t37 -69q-1 -45 -36 -70t-99 -25q-65 0 -100 26q-36 25 -36 70v0z" />
    <glyph glyph-name="colon" unicode=":" horiz-adv-x="335" 
d="M73 314h189v184h-189v-184zM73 0h189v184h-189v-184z" />
    <glyph glyph-name="semicolon" unicode=";" horiz-adv-x="335" 
d="M73 314h189v184h-189v-184zM81 -161q89 7 134 55t45 131v145h-185v-170h67q1 -34 -12 -51q-14 -17 -49 -25v-85z" />
    <glyph glyph-name="less" unicode="&#x3c;" horiz-adv-x="551" 
d="M432 68l76 123l-278 159l278 159l-76 123l-389 -232v-99z" />
    <glyph glyph-name="equal" unicode="=" horiz-adv-x="562" 
d="M43 382h476v133h-476v-133zM43 173h476v133h-476v-133z" />
    <glyph glyph-name="greater" unicode="&#x3e;" horiz-adv-x="551" 
d="M119 68l389 233v99l-389 232l-76 -123l278 -159l-278 -159z" />
    <glyph glyph-name="question" unicode="?" horiz-adv-x="711" 
d="M250 230h159v19q-1 22 15 38t66 35q72 28 115 72q42 43 43 110q-2 95 -80 154t-203 61q-139 -1 -222 -72q-82 -70 -90 -192l173 -14q4 60 41 94q37 33 98 34q47 0 76 -18q28 -18 29 -48q1 -22 -22 -41q-24 -19 -88 -47q-58 -26 -84 -56q-26 -31 -26 -74v-55zM237 0h189
v177h-189v-177z" />
    <glyph glyph-name="at" unicode="@" horiz-adv-x="856" 
d="M435 -78q56 0 112 11t111 33l-37 92q-50 -21 -96 -31t-96 -10q-130 0 -204 68t-75 203q2 120 79 197q76 76 202 79q124 -2 199 -73q74 -72 76 -188q0 -60 -14 -88q-14 -29 -40 -29q-20 0 -29 11t-9 36v106q-1 72 -48 113q-48 41 -131 42q-74 -1 -123 -34q-50 -34 -64 -90
l109 -27q8 28 28 42q21 15 54 15q24 0 38 -8t14 -23q2 -13 -22 -24q-24 -10 -103 -28q-63 -13 -92 -42q-30 -28 -30 -73q1 -55 42 -85q42 -31 116 -32q48 0 85 14q36 15 57 41h2q15 -25 42 -38q28 -13 66 -13q76 0 117 55q42 55 42 160q-3 155 -109 254q-105 98 -274 101
q-171 -4 -277 -107q-107 -104 -110 -264q2 -178 107 -271q104 -94 285 -95v0zM417 180q-25 0 -38 7q-12 7 -12 23q0 13 11 21t35 15q43 11 58 16q15 6 19 13h1v-49q-1 -21 -21 -33q-20 -13 -53 -13v0z" />
    <glyph glyph-name="A" unicode="A" horiz-adv-x="773" 
d="M598 0h184l-313 700h-165l-313 -700h185l43 104h336zM281 255l105 255h2l105 -255h-212z" />
    <glyph glyph-name="B" unicode="B" horiz-adv-x="728" 
d="M63 0h363q139 0 207 54t68 163q0 55 -26 97q-25 42 -70 64v2q33 21 52 54q19 34 19 77q-2 85 -61 136q-59 52 -155 53h-397v-700zM238 429v121h190q35 0 53 -16q18 -15 18 -44q0 -30 -18 -45q-18 -16 -53 -16h-190zM238 150v143h206q41 0 61 -18t20 -52q0 -37 -19 -55
q-20 -18 -62 -18h-206z" />
    <glyph glyph-name="C" unicode="C" horiz-adv-x="751" 
d="M397 -19q133 1 224 69q92 67 117 192l-167 41q-17 -71 -62 -109q-45 -37 -112 -37q-90 1 -142 59q-53 57 -54 154q1 97 54 155q52 57 142 58q66 0 109 -35q44 -34 61 -97l165 45q-27 112 -116 177q-90 65 -219 66q-166 -3 -269 -103q-102 -101 -105 -266q3 -165 105 -266
q103 -100 269 -103v0z" />
    <glyph glyph-name="D" unicode="D" horiz-adv-x="746" 
d="M63 0h304q161 0 257 87q97 86 99 263q-2 172 -98 261q-95 89 -256 89h-306v-700zM241 155v390h114q93 0 142 -47q48 -47 48 -148q0 -103 -49 -150q-48 -46 -141 -45h-114z" />
    <glyph glyph-name="E" unicode="E" horiz-adv-x="641" 
d="M63 0h541v155h-363v128h328v143h-328v119h362v155h-540v-700z" />
    <glyph glyph-name="F" unicode="F" horiz-adv-x="641" 
d="M63 0h178v240h354v148h-354v157h368v155h-546v-700z" />
    <glyph glyph-name="G" unicode="G" horiz-adv-x="759" 
d="M397 -19q159 1 248 81q90 80 91 222v93h-332v-127h159q-5 -54 -47 -83q-42 -30 -119 -30q-90 1 -142 59q-53 57 -54 154q1 98 54 155q52 57 142 58q65 -1 107 -33t59 -90l166 46q-26 104 -115 168q-88 63 -217 65q-167 -3 -269 -103q-102 -101 -105 -266q3 -165 105 -265
q102 -101 269 -104v0z" />
    <glyph glyph-name="H" unicode="H" horiz-adv-x="778" 
d="M63 0h178v275h296v-275h178v700h-178v-262h-296v262h-178v-700z" />
    <glyph glyph-name="I" unicode="I" horiz-adv-x="304" 
d="M63 0h178v700h-178v-700z" />
    <glyph glyph-name="J" unicode="J" horiz-adv-x="657" 
d="M311 -19q128 1 207 73t81 202v444h-178v-424q0 -66 -29 -102q-28 -37 -81 -37q-58 0 -86 30t-36 96l-172 -24q8 -124 85 -190q77 -67 209 -68v0z" />
    <glyph glyph-name="K" unicode="K" horiz-adv-x="743" 
d="M63 0h178v168l102 110h2l185 -278h222l-289 397l285 303h-236l-269 -293h-2v293h-178v-700z" />
    <glyph glyph-name="L" unicode="L" horiz-adv-x="616" 
d="M63 0h535v156h-357v544h-178v-700z" />
    <glyph glyph-name="M" unicode="M" horiz-adv-x="999" 
d="M63 0h177v420h2l225 -420h66l225 420h2v-420h176v700h-195l-240 -460h-2l-241 460h-195v-700z" />
    <glyph glyph-name="N" unicode="N" horiz-adv-x="800" 
d="M63 0h178v446h2l308 -446h186v700h-178v-445h-2l-308 445h-186v-700z" />
    <glyph glyph-name="O" unicode="O" horiz-adv-x="794" 
d="M397 -19q166 3 269 103q102 101 105 266q-3 165 -105 266q-103 100 -269 103q-166 -3 -269 -103q-102 -101 -105 -266q3 -165 105 -266q103 -100 269 -103v0zM397 137q-90 1 -142 59q-53 57 -54 154q1 98 54 155q52 57 142 58q90 -1 143 -58q52 -57 53 -155
q-1 -97 -53 -154q-53 -58 -143 -59v0z" />
    <glyph glyph-name="P" unicode="P" horiz-adv-x="715" 
d="M63 0h178v219h198q118 1 190 62q72 62 74 178q-2 115 -75 178q-72 62 -189 63h-376v-700zM241 371v177h185q44 1 71 -19q27 -21 28 -68q-1 -46 -30 -68t-71 -22h-183z" />
    <glyph glyph-name="Q" unicode="Q" horiz-adv-x="810" 
d="M787 72l-77 65q29 44 45 98q16 53 16 115q-3 165 -105 266q-103 100 -269 103q-166 -3 -269 -103q-102 -101 -105 -266q3 -165 105 -266q103 -100 269 -103q66 0 124 18t104 51l82 -69zM397 137q-90 1 -142 59q-53 57 -54 154q1 98 54 155q52 57 142 58q90 -1 143 -58
q52 -57 53 -155q0 -56 -18 -98l-133 112l-83 -88l136 -115q-42 -24 -98 -24v0z" />
    <glyph glyph-name="R" unicode="R" horiz-adv-x="725" 
d="M538 246v1q75 23 118 79q43 57 44 141q-2 111 -72 172q-71 60 -189 61h-376v-700h178v232h116l147 -232h198zM241 384v164h183q48 0 73 -19q25 -20 25 -62q0 -41 -26 -62t-72 -21h-183z" />
    <glyph glyph-name="S" unicode="S" horiz-adv-x="693" 
d="M369 -19q143 1 226 59t85 158q0 89 -68 143q-68 53 -202 83q-118 27 -158 44q-40 18 -37 41q1 30 31 47q31 18 84 18q61 0 101 -27q40 -26 58 -79l168 37q-26 99 -113 155q-87 57 -214 58q-134 -2 -213 -59q-78 -58 -80 -153q0 -81 64 -131q63 -51 195 -80
q125 -27 167 -50q42 -22 39 -51q0 -32 -35 -50q-34 -18 -97 -18q-81 0 -127 33q-45 33 -61 106l-169 -30q20 -122 112 -188q92 -65 244 -66v0z" />
    <glyph glyph-name="T" unicode="T" horiz-adv-x="704" 
d="M262 0h178v545h246v155h-668v-155h244v-545z" />
    <glyph glyph-name="U" unicode="U" horiz-adv-x="769" 
d="M385 -19q155 1 240 75t86 214v430h-178v-417q0 -75 -37 -111q-37 -35 -111 -35t-112 35q-37 36 -37 111v417h-178v-430q1 -140 86 -214t241 -75v0z" />
    <glyph glyph-name="V" unicode="V" horiz-adv-x="796" 
d="M309 0h178l318 700h-195l-211 -488h-2l-211 488h-195z" />
    <glyph glyph-name="W" unicode="W" horiz-adv-x="1081" 
d="M184 0h185l170 447h2l169 -447h187l177 700h-184l-110 -455h-2l-168 455h-140l-167 -455h-2l-110 455h-184z" />
    <glyph glyph-name="X" unicode="X" horiz-adv-x="784" 
d="M-4 0h219l176 237h2l176 -237h218l-284 355l276 345h-218l-168 -227h-2l-168 227h-219l277 -345z" />
    <glyph glyph-name="Y" unicode="Y" horiz-adv-x="742" 
d="M282 0h178v273l295 427h-206l-177 -275h-2l-178 275h-206l296 -427v-273z" />
    <glyph glyph-name="Z" unicode="Z" horiz-adv-x="709" 
d="M32 0h640v155h-393v2l398 406v137h-633v-155h385v-2l-397 -406v-137z" />
    <glyph glyph-name="bracketleft" unicode="[" horiz-adv-x="357" 
d="M63 -182h281v133h-145v647h145v132h-281v-912z" />
    <glyph glyph-name="backslash" unicode="\" horiz-adv-x="555" 
d="M462 -73l95 54l-466 794l-93 -56z" />
    <glyph glyph-name="bracketright" unicode="]" horiz-adv-x="357" 
d="M294 -182v912h-281v-132h145v-647h-145v-133h281z" />
    <glyph glyph-name="asciicircum" unicode="^" horiz-adv-x="663" 
d="M610 325l-176 375h-205l-176 -375h166l113 258l112 -258h166z" />
    <glyph glyph-name="underscore" unicode="_" horiz-adv-x="601" 
d="M33 -187h535v124h-535v-124z" />
    <glyph glyph-name="grave" unicode="`" horiz-adv-x="365" 
d="M187 590h135l-108 145h-171z" />
    <glyph glyph-name="a" unicode="a" horiz-adv-x="606" 
d="M228 -15q59 0 105 18q46 17 76 50h2v-53h157v330q-1 102 -71 160q-71 58 -195 59q-110 -1 -186 -53q-76 -51 -92 -136l158 -28q10 42 42 66q33 24 83 24q39 0 62 -13q22 -13 23 -35q1 -19 -27 -31q-28 -13 -101 -23q-126 -17 -183 -58t-56 -113q1 -76 55 -119
q54 -44 148 -45v0zM266 118q-37 0 -56 10q-18 10 -18 30q-1 20 24 33q24 12 83 24q47 9 70 18t30 21h2v-53q-1 -35 -40 -58q-38 -24 -95 -25v0z" />
    <glyph glyph-name="b" unicode="b" horiz-adv-x="691" 
d="M382 -12q127 2 206 78q78 76 80 198q-3 122 -81 200q-79 78 -204 81q-48 0 -89 -14q-41 -13 -72 -41h-2v240h-173v-730h159v51h2q30 -30 75 -46q45 -17 99 -17v0zM352 139q-57 1 -94 29t-38 70v58q1 42 39 70q37 28 93 29q65 -1 104 -36q38 -35 39 -93q-1 -58 -38 -92
q-38 -34 -105 -35v0z" />
    <glyph glyph-name="c" unicode="c" horiz-adv-x="627" 
d="M325 -19q107 1 183 53q76 51 101 137l-161 49q-13 -42 -44 -65q-32 -23 -79 -23q-58 1 -93 37t-36 96q1 61 36 97q35 35 93 36q48 0 79 -24q32 -23 44 -64l161 49q-25 86 -101 137q-76 52 -183 53q-132 -2 -216 -80q-83 -79 -86 -204q3 -125 86 -203q84 -79 216 -81v0z
" />
    <glyph glyph-name="d" unicode="d" horiz-adv-x="691" 
d="M309 -12q54 0 99 17q45 16 75 46h2v-51h159v730h-173v-240h-2q-31 28 -72 41q-41 14 -89 14q-125 -3 -204 -81q-78 -78 -81 -200q2 -122 80 -198q79 -76 206 -78v0zM339 139q-67 1 -104 35q-38 34 -39 92q1 58 39 93q39 35 104 36q56 -1 93 -29q38 -28 39 -70v-58
q-1 -42 -38 -70t-94 -29v0z" />
    <glyph glyph-name="e" unicode="e" horiz-adv-x="644" 
d="M328 -19q82 0 145 25q64 25 117 75l-96 110q-40 -37 -79 -56q-40 -18 -81 -18q-64 0 -100 26q-36 25 -40 70h427v51q-2 124 -83 203t-215 82q-132 -3 -214 -81q-83 -79 -86 -204q2 -130 82 -206q81 -75 223 -77v0zM195 327q6 41 41 66q35 24 89 25q55 0 89 -24
q33 -24 39 -67h-258z" />
    <glyph glyph-name="f" unicode="f" horiz-adv-x="504" 
d="M135 0h173v391h194v139h-194v34q0 19 10 29t31 10h114v138h-145q-88 -1 -135 -42q-48 -42 -48 -118v-51h-133v-139h133v-391z" />
    <glyph glyph-name="g" unicode="g" horiz-adv-x="677" 
d="M338 -244q135 2 217 74t84 189v511h-164v-49h-2q-29 29 -73 44t-95 15q-124 -2 -202 -78q-78 -75 -80 -196q2 -121 79 -195t204 -76q57 0 100 16q43 17 67 46h2v-38q-1 -53 -38 -85q-38 -32 -99 -33q-54 0 -94 19q-41 20 -80 65l-117 -103q50 -61 125 -93q74 -33 166 -33
v0zM335 142q-65 1 -102 34q-36 32 -37 90q1 57 38 90t102 34q55 -1 92 -29t38 -69v-52q-1 -42 -38 -69q-37 -28 -93 -29v0z" />
    <glyph glyph-name="h" unicode="h" horiz-adv-x="690" 
d="M47 0h173v274q1 55 37 87q35 32 96 33q61 0 93 -31q33 -31 33 -89v-274h173v307q-2 107 -71 172q-70 64 -187 66q-52 0 -95 -16t-77 -48h-2v249h-173v-730z" />
    <glyph glyph-name="i" unicode="i" horiz-adv-x="259" 
d="M42 612h173v162h-173v-162zM43 0h173v530h-173v-530z" />
    <glyph glyph-name="j" unicode="j" horiz-adv-x="270" 
d="M54 612h173v162h-173v-162zM-87 -223h103q111 -1 161 49q51 49 50 159v545h-173v-543q0 -25 -13 -38q-12 -12 -40 -12h-88v-160z" />
    <glyph glyph-name="k" unicode="k" horiz-adv-x="688" 
d="M47 0h173v139l90 74h2l165 -213h204l-255 315l252 215h-237l-219 -193h-2v393h-173v-730z" />
    <glyph glyph-name="l" unicode="l" horiz-adv-x="259" 
d="M43 0h173v730h-173v-730z" />
    <glyph glyph-name="m" unicode="m" horiz-adv-x="1004" 
d="M47 0h168v293q1 49 30 77q28 27 77 28q48 0 76 -28t29 -77v-293h159v293q1 49 30 77q28 27 77 28q48 0 76 -28t29 -77v-293h168v319q-2 101 -71 163q-68 61 -177 63q-53 0 -99 -19q-46 -18 -80 -53h-2q-28 34 -73 53q-44 19 -95 19t-92 -17q-42 -16 -69 -47h-2v49h-159
v-530z" />
    <glyph glyph-name="n" unicode="n" horiz-adv-x="690" 
d="M47 0h173v274q1 55 37 87q35 32 96 33q61 0 93 -31q33 -31 33 -89v-274h173v293q-2 115 -71 183q-69 67 -187 69q-52 0 -98 -16q-45 -16 -80 -48h-2v49h-167v-530z" />
    <glyph glyph-name="o" unicode="o" horiz-adv-x="662" 
d="M331 -19q137 2 221 81q85 78 87 203q-2 125 -87 204q-84 78 -221 80q-137 -2 -221 -80q-85 -79 -87 -204q2 -125 87 -203q84 -79 221 -81v0zM331 132q-63 1 -99 38q-35 37 -36 95q1 59 36 95q36 37 99 38q62 -1 98 -38q36 -36 37 -95q-1 -58 -37 -95t-98 -38v0z" />
    <glyph glyph-name="p" unicode="p" horiz-adv-x="676" 
d="M47 -225h173v262h2q29 -24 70 -38t87 -14q121 3 197 80q75 77 77 199q-2 119 -79 197t-198 81q-47 0 -89 -14q-41 -15 -74 -46h-2v48h-164v-755zM348 135q-60 1 -94 29q-33 29 -34 71v57q1 42 37 70q35 28 90 29q60 -1 96 -35t37 -90q-1 -59 -37 -95q-36 -35 -95 -36v0z
" />
    <glyph glyph-name="q" unicode="q" horiz-adv-x="676" 
d="M629 -225v755h-164v-48h-2q-33 31 -74 46q-42 14 -89 14q-121 -3 -198 -81q-76 -78 -79 -197q2 -122 77 -199q76 -77 197 -80q46 0 87 14t70 38h2v-262h173zM328 135q-59 1 -95 36q-36 36 -37 95q1 56 37 90t96 35q55 -1 90 -29q36 -28 37 -70v-57q-1 -42 -34 -71
q-34 -28 -94 -29v0z" />
    <glyph glyph-name="r" unicode="r" horiz-adv-x="467" 
d="M47 0h173v231q0 77 35 115q34 38 97 38q21 0 39 -2q18 -3 41 -8l30 154q-21 6 -44 10q-23 3 -51 3q-47 0 -86 -15q-40 -15 -69 -47h-2v51h-163v-530z" />
    <glyph glyph-name="s" unicode="s" horiz-adv-x="621" 
d="M324 -19q133 1 208 47t76 126q1 73 -62 114q-62 41 -198 62q-84 13 -114 24q-29 10 -27 27q0 17 23 27t65 10q52 0 90 -21q38 -20 52 -54l156 46q-25 72 -104 115q-79 44 -187 45q-119 -1 -189 -47q-69 -46 -71 -124q-1 -71 61 -112q63 -41 201 -61q77 -11 107 -24
q30 -12 29 -31q0 -17 -28 -27q-28 -9 -81 -9q-63 0 -102 24q-40 23 -54 68l-162 -46q24 -81 107 -130q84 -48 204 -49v0z" />
    <glyph glyph-name="t" unicode="t" horiz-adv-x="486" 
d="M469 391v139h-169v137h-173v-137h-125v-139h125v-207q-1 -92 47 -138q47 -46 150 -46h125v156h-99q-27 0 -39 10q-11 10 -11 34v191h169z" />
    <glyph glyph-name="u" unicode="u" horiz-adv-x="667" 
d="M280 -15q55 0 99 16q43 16 75 50h2v-51h168v530h-173v-270q-1 -55 -34 -87q-34 -32 -91 -33q-60 0 -88 30q-28 29 -28 90v270h-173v-307q1 -111 65 -174t178 -64v0z" />
    <glyph glyph-name="v" unicode="v" horiz-adv-x="680" 
d="M257 0h166l260 530h-194l-148 -333h-2l-147 333h-194z" />
    <glyph glyph-name="w" unicode="w" horiz-adv-x="965" 
d="M161 0h175l146 350h2l145 -350h175l150 530h-176l-84 -321h-2l-134 321h-151l-133 -321h-2l-85 321h-175z" />
    <glyph glyph-name="x" unicode="x" horiz-adv-x="677" 
d="M-9 0h224l124 165h2l123 -165h222l-231 269l226 261h-223l-117 -157h-2l-120 157h-222l225 -261z" />
    <glyph glyph-name="y" unicode="y" horiz-adv-x="683" 
d="M126 -225h191l369 755h-192l-150 -333h-2l-151 333h-193l250 -505z" />
    <glyph glyph-name="z" unicode="z" horiz-adv-x="636" 
d="M22 0h592v139h-339v2l329 264v125h-573v-139h320v-2l-329 -264v-125z" />
    <glyph glyph-name="braceleft" unicode="{" horiz-adv-x="429" 
d="M309 -182h107v138h-89q-32 0 -44 14q-12 15 -11 50v162q-1 42 -26 71t-66 30v2q41 1 66 30t26 71v143q-1 36 11 50q12 15 44 14h89v137h-107q-94 1 -134 -36q-40 -38 -39 -123v-135q1 -33 -11 -46q-12 -14 -44 -13h-28v-185h28q32 1 44 -13q12 -13 11 -46v-156
q-1 -85 39 -123q40 -37 134 -36v0z" />
    <glyph glyph-name="bar" unicode="|" horiz-adv-x="275" 
d="M83 -300h109v1075h-109v-1075z" />
    <glyph glyph-name="braceright" unicode="}" horiz-adv-x="429" 
d="M120 -182q94 -1 134 36q40 38 39 123v156q-1 33 11 46q12 14 44 13h28v185h-28q-32 -1 -44 13q-12 13 -11 46v135q1 85 -39 123q-40 37 -134 36h-107v-137h89q32 1 44 -14q12 -14 11 -50v-143q1 -42 26 -71t66 -30v-2q-41 -1 -66 -30t-26 -71v-162q1 -35 -11 -50
q-12 -14 -44 -14h-89v-138h107z" />
    <glyph glyph-name="asciitilde" unicode="~" horiz-adv-x="718" 
d="M186 229q27 78 68 78q39 -5 94 -39q56 -34 125 -39q77 0 127 46q50 45 75 131l-143 58q-13 -39 -30 -58t-38 -19q-38 5 -94 39q-56 33 -125 38q-77 0 -127 -45t-75 -131z" />
    <glyph glyph-name="uni00A0" unicode="&#xa0;" horiz-adv-x="255" 
 />
    <glyph glyph-name="exclamdown" unicode="&#xa1;" horiz-adv-x="335" 
d="M73 530v-184h189v184h-189zM79 266v-436h178v436h-178z" />
    <glyph glyph-name="cent" unicode="&#xa2;" horiz-adv-x="668" 
d="M386 133v264q36 -8 61 -29t36 -56l157 47q-23 78 -91 128q-67 49 -163 59v89h-77v-89q-127 -13 -201 -89q-73 -75 -75 -192q2 -116 75 -192q74 -76 201 -89v-99h77v99q96 10 163 59q68 50 91 128l-157 47q-11 -34 -36 -56q-25 -21 -61 -29v0zM202 265q0 53 27 88t80 45
v-266q-53 10 -80 46q-27 35 -27 87v0z" />
    <glyph glyph-name="sterling" unicode="&#xa3;" horiz-adv-x="695" 
d="M338 161q17 14 25 33q9 20 9 44q0 7 -1 15q-1 7 -3 17h171v129h-249q-19 24 -31 44q-12 21 -12 40q0 37 29 58q29 22 83 22q57 0 95 -24q37 -23 52 -72l171 36q-20 100 -105 158q-86 57 -213 58q-133 -1 -213 -57t-82 -150q0 -34 12 -61q12 -28 32 -52h-55v-129h157
q6 -15 5 -27q0 -40 -31 -62q-30 -22 -87 -22h-44v-159h609v159h-324v2z" />
    <glyph glyph-name="currency" unicode="&#xa4;" horiz-adv-x="565" 
d="M517 330q0 41 -11 77q-11 37 -31 66l67 67l-48 47l-64 -64q-29 25 -67 38q-37 14 -80 14q-44 0 -82 -14q-38 -13 -67 -38l-64 64l-47 -47l67 -67q-20 -29 -30 -65q-11 -37 -11 -78t11 -78t31 -67l-68 -68l47 -47l66 66q30 -24 67 -37t80 -13q41 0 78 13t66 36l66 -65
l48 47l-68 67q21 30 33 67q11 37 11 79v0zM283 223q-43 0 -64 27q-22 27 -22 79q0 53 21 82q22 28 65 28q41 0 64 -28q22 -29 22 -82q0 -52 -22 -79q-23 -27 -64 -27v0z" />
    <glyph glyph-name="yen" unicode="&#xa5;" horiz-adv-x="762" 
d="M765 700h-206l-177 -275h-2l-178 275h-206l245 -353h-168v-109h219v-42h-219v-110h219v-86h178v86h220v110h-220v42h220v109h-169z" />
    <glyph glyph-name="brokenbar" unicode="&#xa6;" horiz-adv-x="275" 
d="M83 350h109v425h-109v-425zM83 -300h109v425h-109v-425z" />
    <glyph glyph-name="section" unicode="&#xa7;" horiz-adv-x="713" 
d="M561 118q46 29 67 64q22 34 22 77q0 49 -37 88q-38 38 -115 64l-136 45q-63 20 -86 35q-22 15 -21 34q1 23 23 37q23 14 62 14q45 0 73 -20q28 -19 36 -59l162 25q-15 90 -89 143t-183 54q-112 -2 -181 -55q-68 -54 -70 -139q0 -40 16 -72q15 -32 48 -57q-45 -28 -67 -63
t-22 -78q0 -49 37 -88q38 -38 115 -64l136 -45q63 -20 86 -35q22 -15 21 -35q-1 -22 -23 -36q-23 -14 -62 -14q-44 0 -72 20q-28 19 -37 58l-162 -24q15 -90 89 -143t183 -54q112 2 181 55q68 53 70 138q0 40 -15 73q-16 32 -49 57v0zM309 221q-47 15 -66 28t-18 29
q0 15 10 29q11 14 37 30l131 -44q47 -15 67 -28q19 -13 18 -29q0 -15 -10 -29q-11 -14 -37 -30z" />
    <glyph glyph-name="dieresis" unicode="&#xa8;" horiz-adv-x="451" 
d="M43 580h139v138h-139v-138zM269 580h139v138h-139v-138z" />
    <glyph glyph-name="copyright" unicode="&#xa9;" horiz-adv-x="687" 
d="M343 16q138 3 223 88q86 86 88 219q-2 133 -87 219q-85 85 -224 88q-139 -3 -223 -88q-85 -86 -87 -219q2 -133 87 -219q84 -85 223 -88v0zM343 92q-103 3 -164 68t-62 163q1 98 62 164q61 65 164 67q103 -2 164 -67q61 -66 63 -164q-2 -97 -63 -163q-61 -65 -164 -68v0z
M347 147q62 1 102 36t46 93l-88 16q-5 -30 -20 -44q-15 -15 -43 -15q-29 0 -46 24q-16 23 -16 67t16 68q17 23 46 23q28 0 43 -14q15 -15 20 -45l88 16q-6 58 -46 93t-102 36q-72 -1 -116 -49q-43 -48 -44 -128q1 -80 44 -128q44 -48 116 -49v0z" />
    <glyph glyph-name="ordfeminine" unicode="&#xaa;" horiz-adv-x="300" 
d="M110 417q29 0 51 9q22 8 35 24h1v-26h82v174q-1 50 -36 79t-95 30q-55 -1 -93 -26q-39 -25 -48 -68l84 -18q5 20 20 30q15 11 37 11q19 0 29 -5q10 -6 10 -15t-12 -14q-13 -6 -45 -12q-65 -12 -94 -33q-30 -21 -29 -56q0 -39 28 -61q27 -23 75 -23v0zM127 488
q-32 0 -32 19q0 10 11 16q12 6 40 12q39 9 45 19h1v-22q-1 -18 -19 -31q-18 -12 -46 -13v0z" />
    <glyph glyph-name="guillemotleft" unicode="&#xab;" horiz-adv-x="567" 
d="M165 79h145l-117 195l117 194h-145l-112 -194zM379 79h145l-117 195l117 194h-145l-112 -194z" />
    <glyph glyph-name="logicalnot" unicode="&#xac;" horiz-adv-x="680" 
d="M459 126h178v334h-594v-155h416v-179z" />
    <glyph glyph-name="uni00AD" unicode="&#xad;" horiz-adv-x="348" 
d="M33 219h282v145h-282v-145z" />
    <glyph glyph-name="registered" unicode="&#xae;" horiz-adv-x="687" 
d="M343 630q-139 -3 -223 -88q-85 -86 -87 -219q2 -133 87 -219q84 -85 223 -88q138 3 223 88q86 86 88 219q-2 133 -87 219q-85 85 -224 88v0zM343 92q-103 3 -164 68t-62 163q1 98 62 164q61 65 164 67q103 -2 164 -67q61 -66 63 -164q-2 -97 -63 -163q-61 -65 -164 -68v0
zM491 384q0 52 -31 81q-32 29 -92 30h-143v-338h88v114h24l50 -114h95l-61 122q35 12 52 40q18 27 18 65v0zM314 419h49q19 0 29 -8q10 -9 10 -27q0 -20 -10 -30q-11 -10 -29 -10h-49v75z" />
    <glyph glyph-name="macron" unicode="&#xaf;" horiz-adv-x="452" 
d="M43 590h366v99h-366v-99z" />
    <glyph glyph-name="degree" unicode="&#xb0;" horiz-adv-x="464" 
d="M232 318q92 2 150 55q57 53 59 138q-2 85 -59 139q-58 53 -150 55q-92 -2 -149 -55q-58 -54 -60 -139q2 -85 60 -138q57 -53 149 -55v0zM232 433q-37 0 -59 21t-22 57t22 57t59 21q38 0 60 -21t22 -57t-22 -57t-60 -21v0z" />
    <glyph glyph-name="plusminus" unicode="&#xb1;" horiz-adv-x="615" 
d="M379 523v164h-142v-164h-193v-132h193v-164h142v164h192v132h-192zM44 35h527v133h-527v-133z" />
    <glyph glyph-name="acute" unicode="&#xb4;" horiz-adv-x="365" 
d="M43 590h136l143 145h-171z" />
    <glyph glyph-name="paragraph" unicode="&#xb6;" horiz-adv-x="722" 
d="M173 -136h178v677h120v-677h178v836h-472q-70 0 -116 -43q-46 -42 -48 -121q2 -73 46 -117q45 -43 114 -46v-509z" />
    <glyph glyph-name="periodcentered" unicode="&#xb7;" horiz-adv-x="275" 
d="M43 286h189v184h-189v-184z" />
    <glyph glyph-name="cedilla" unicode="&#xb8;" horiz-adv-x="355" 
d="M196 -32q-7 0 -14 -1q-7 0 -14 -1l28 41l-71 21l-75 -124l65 -26q25 19 55 19q20 0 32 -8t12 -21q0 -16 -13 -25q-12 -9 -35 -9q-18 0 -37 6q-18 5 -41 18l-44 -85q61 -33 133 -33q63 1 101 33q37 32 38 87q-1 49 -33 78t-87 30v0z" />
    <glyph glyph-name="ordmasculine" unicode="&#xba;" horiz-adv-x="337" 
d="M168 417q71 1 116 41t46 104q-1 64 -46 104t-116 41q-71 -1 -115 -41q-45 -40 -46 -104q1 -64 46 -104q44 -40 115 -41v0zM168 503q-27 0 -44 16t-17 43t17 43t44 16q28 0 45 -16t17 -43t-17 -43t-45 -16v0z" />
    <glyph glyph-name="guillemotright" unicode="&#xbb;" horiz-adv-x="567" 
d="M188 79l112 195l-112 194h-145l117 -194l-117 -195h145zM402 79l112 195l-112 194h-145l117 -194l-117 -195h145z" />
    <glyph glyph-name="onequarter" unicode="&#xbc;" horiz-adv-x="945" 
d="M231 -87l493 810l-103 60l-493 -811zM139 280h115v420h-104l-137 -73v-120l126 68v-295zM763 0h114v67h61v102h-61v251h-186l-181 -251v-102h253v-67zM632 169l130 177h1v-177h-131z" />
    <glyph glyph-name="onehalf" unicode="&#xbd;" horiz-adv-x="949" 
d="M621 783l-493 -811l103 -59l493 810zM139 280h115v420h-104l-137 -73v-120l126 68v-295zM697 119q6 6 23 13q17 6 58 18q80 21 117 56q36 34 36 85q-1 62 -50 99q-49 38 -128 39q-85 -1 -139 -45q-53 -45 -59 -117l111 -10q4 36 28 55q24 20 59 20q28 0 46 -11
q17 -12 18 -30q1 -17 -20 -31q-21 -13 -80 -30q-48 -14 -76 -29q-29 -14 -46 -32q-15 -16 -24 -40q-9 -25 -9 -58v-71h366v101h-242q1 6 4 10t7 8v0z" />
    <glyph glyph-name="threequarters" unicode="&#xbe;" horiz-adv-x="1038" 
d="M324 -87l493 810l-103 60l-493 -811zM210 271q83 1 131 38q48 36 49 94q0 33 -16 58t-45 39v1q23 14 35 35q12 20 12 46q-2 58 -49 92q-48 34 -123 35q-77 -1 -125 -38q-48 -36 -61 -96l105 -20q6 28 26 45q21 17 55 17q30 0 46 -12q17 -11 17 -33q0 -18 -14 -28
q-14 -11 -43 -11h-45v-78h51q31 0 45 -11q15 -11 15 -32q-1 -23 -19 -35t-47 -12q-33 0 -56 18q-24 19 -33 57l-108 -28q12 -65 65 -102q53 -38 132 -39v0zM856 0h114v67h61v102h-61v251h-186l-181 -251v-102h253v-67zM725 169l130 177h1v-177h-131z" />
    <glyph glyph-name="questiondown" unicode="&#xbf;" horiz-adv-x="711" 
d="M474 530h-189v-177h189v177zM461 300h-159v-19q1 -22 -15 -38t-66 -35q-72 -28 -115 -71q-42 -44 -43 -111q2 -95 80 -154t203 -61q139 2 222 72q82 71 90 192l-173 14q-4 -60 -41 -94q-37 -33 -98 -34q-47 0 -76 18q-28 18 -29 48q-1 22 22 41q24 19 88 47q58 26 84 56
q26 31 26 74v55z" />
    <glyph glyph-name="Agrave" unicode="&#xc0;" horiz-adv-x="773" 
d="M470 760l-108 145h-171l144 -145h135zM598 0h184l-313 700h-165l-313 -700h185l43 104h336zM281 255l105 255h2l105 -255h-212z" />
    <glyph glyph-name="Aacute" unicode="&#xc1;" horiz-adv-x="773" 
d="M578 905h-171l-108 -145h136zM598 0h184l-313 700h-165l-313 -700h185l43 104h336zM281 255l105 255h2l105 -255h-212z" />
    <glyph glyph-name="Acircumflex" unicode="&#xc2;" horiz-adv-x="773" 
d="M387 828l82 -88l81 73l-79 80h-168l-79 -80l81 -73zM598 0h184l-313 700h-165l-313 -700h185l43 104h336zM281 255l105 255h2l105 -255h-212z" />
    <glyph glyph-name="Atilde" unicode="&#xc3;" horiz-adv-x="773" 
d="M310 796q32 -3 71 -21q38 -18 89 -21q52 0 84 34q31 34 35 97h-83q-4 -17 -15 -26q-11 -8 -28 -8q-31 3 -70 20q-38 18 -88 20q-54 0 -85 -34q-32 -34 -35 -97h83q5 19 15 27q11 9 27 9v0zM598 0h184l-313 700h-165l-313 -700h185l43 104h336zM281 255l105 255h2
l105 -255h-212z" />
    <glyph glyph-name="Adieresis" unicode="&#xc4;" horiz-adv-x="773" 
d="M343 888h-139v-138h139v138zM569 888h-139v-138h139v138zM598 0h184l-313 700h-165l-313 -700h185l43 104h336zM281 255l105 255h2l105 -255h-212z" />
    <glyph glyph-name="Aring" unicode="&#xc5;" horiz-adv-x="773" 
d="M598 0h184l-292 653q28 19 44 48t16 65q-1 63 -46 103q-45 39 -117 40q-71 -1 -116 -40q-45 -40 -46 -103q0 -35 16 -64q15 -29 42 -48l-292 -654h185l43 104h336zM387 832q30 0 49 -18q18 -18 18 -48t-18 -48q-19 -18 -49 -18t-48 18t-19 48q1 30 19 48t48 18v0z
M281 255l105 255h2l105 -255h-212z" />
    <glyph glyph-name="AE" unicode="&#xc6;" horiz-adv-x="1026" 
d="M695 146v140h260v138h-260v130h294v146h-668l-330 -700h191l49 107h295v-107h464v146h-295zM298 251l139 303h89v-303h-228z" />
    <glyph glyph-name="Ccedilla" unicode="&#xc7;" horiz-adv-x="751" 
d="M738 242l-167 41q-17 -71 -62 -109q-45 -37 -112 -37q-90 1 -142 59q-53 57 -54 154q1 97 54 155q52 57 142 58q66 0 109 -35q44 -34 61 -97l165 45q-27 112 -116 177q-90 65 -219 66q-166 -3 -269 -103q-102 -101 -105 -266q2 -151 90 -249q87 -98 232 -117l-60 -99
l65 -26q25 19 55 19q20 0 32 -8t12 -21q0 -16 -13 -25q-12 -9 -35 -9q-18 0 -37 6q-18 5 -41 18l-44 -85q61 -33 133 -33q63 1 101 33q37 32 38 87q-1 49 -33 78t-87 30q-7 0 -14 -1q-7 0 -14 -1l24 35q121 8 204 76q83 67 107 184v0z" />
    <glyph glyph-name="Egrave" unicode="&#xc8;" horiz-adv-x="641" 
d="M281 760h135l-108 145h-171zM63 0h541v155h-363v128h328v143h-328v119h362v155h-540v-700z" />
    <glyph glyph-name="Eacute" unicode="&#xc9;" horiz-adv-x="641" 
d="M245 760h136l143 145h-171zM63 0h541v155h-363v128h328v143h-328v119h362v155h-540v-700z" />
    <glyph glyph-name="Ecircumflex" unicode="&#xca;" horiz-adv-x="641" 
d="M333 828l82 -88l81 73l-79 80h-168l-79 -80l81 -73zM241 155v128h328v143h-328v119h362v155h-540v-700h541v155h-363z" />
    <glyph glyph-name="Edieresis" unicode="&#xcb;" horiz-adv-x="641" 
d="M150 750h139v138h-139v-138zM376 750h139v138h-139v-138zM63 0h541v155h-363v128h328v143h-328v119h362v155h-540v-700z" />
    <glyph glyph-name="Igrave" unicode="&#xcc;" horiz-adv-x="304" 
d="M100 760h135l-108 145h-171zM63 0h178v700h-178v-700z" />
    <glyph glyph-name="Iacute" unicode="&#xcd;" horiz-adv-x="304" 
d="M64 760h136l143 145h-171zM63 0h178v700h-178v-700z" />
    <glyph glyph-name="Icircumflex" unicode="&#xce;" horiz-adv-x="304" 
d="M152 828l82 -88l81 73l-79 80h-168l-79 -80l81 -73zM63 0h178v700h-178v-700z" />
    <glyph glyph-name="Idieresis" unicode="&#xcf;" horiz-adv-x="304" 
d="M-31 750h139v138h-139v-138zM195 750h139v138h-139v-138zM63 0h178v700h-178v-700z" />
    <glyph glyph-name="Eth" unicode="&#xd0;" horiz-adv-x="746" 
d="M369 700h-306v-285h-89v-131h89v-284h304q161 0 257 87q97 86 99 263q-2 172 -98 261q-95 89 -256 89v0zM355 155h-114v129h169v131h-169v130h114q93 0 142 -47q48 -47 48 -148q0 -103 -49 -150q-48 -46 -141 -45v0z" />
    <glyph glyph-name="Ntilde" unicode="&#xd1;" horiz-adv-x="800" 
d="M483 754q52 0 84 34q31 34 35 97h-83q-4 -17 -15 -26q-11 -8 -28 -8q-31 3 -70 20q-38 18 -88 20q-54 0 -85 -34q-32 -34 -35 -97h83q5 19 15 27q11 9 27 9q32 -3 71 -21q38 -18 89 -21v0zM63 0h178v446h2l308 -446h186v700h-178v-445h-2l-308 445h-186v-700z" />
    <glyph glyph-name="Ograve" unicode="&#xd2;" horiz-adv-x="794" 
d="M345 779h135l-108 145h-171zM397 -19q166 3 269 103q102 101 105 266q-3 165 -105 266q-103 100 -269 103q-166 -3 -269 -103q-102 -101 -105 -266q3 -165 105 -266q103 -100 269 -103v0zM397 137q-90 1 -142 59q-53 57 -54 154q1 98 54 155q52 57 142 58q90 -1 143 -58
q52 -57 53 -155q-1 -97 -53 -154q-53 -58 -143 -59v0z" />
    <glyph glyph-name="Oacute" unicode="&#xd3;" horiz-adv-x="794" 
d="M309 779h136l143 145h-171zM397 -19q166 3 269 103q102 101 105 266q-3 165 -105 266q-103 100 -269 103q-166 -3 -269 -103q-102 -101 -105 -266q3 -165 105 -266q103 -100 269 -103v0zM397 137q-90 1 -142 59q-53 57 -54 154q1 98 54 155q52 57 142 58q90 -1 143 -58
q52 -57 53 -155q-1 -97 -53 -154q-53 -58 -143 -59v0z" />
    <glyph glyph-name="Ocircumflex" unicode="&#xd4;" horiz-adv-x="794" 
d="M397 847l82 -88l81 73l-79 80h-168l-79 -80l81 -73zM397 719q-166 -3 -269 -103q-102 -101 -105 -266q3 -165 105 -266q103 -100 269 -103q166 3 269 103q102 101 105 266q-3 165 -105 266q-103 100 -269 103v0zM397 137q-90 1 -142 59q-53 57 -54 154q1 98 54 155
q52 57 142 58q90 -1 143 -58q52 -57 53 -155q-1 -97 -53 -154q-53 -58 -143 -59v0z" />
    <glyph glyph-name="Otilde" unicode="&#xd5;" horiz-adv-x="794" 
d="M480 773q52 0 84 34q31 34 35 97h-83q-4 -17 -15 -26q-11 -8 -28 -8q-31 3 -70 20q-38 18 -88 20q-54 0 -85 -34q-32 -34 -35 -97h83q5 19 15 27q11 9 27 9q32 -3 71 -21q38 -18 89 -21v0zM397 -19q166 3 269 103q102 101 105 266q-3 165 -105 266q-103 100 -269 103
q-166 -3 -269 -103q-102 -101 -105 -266q3 -165 105 -266q103 -100 269 -103v0zM397 137q-90 1 -142 59q-53 57 -54 154q1 98 54 155q52 57 142 58q90 -1 143 -58q52 -57 53 -155q-1 -97 -53 -154q-53 -58 -143 -59v0z" />
    <glyph glyph-name="Odieresis" unicode="&#xd6;" horiz-adv-x="794" 
d="M214 769h139v138h-139v-138zM440 769h139v138h-139v-138zM397 -19q166 3 269 103q102 101 105 266q-3 165 -105 266q-103 100 -269 103q-166 -3 -269 -103q-102 -101 -105 -266q3 -165 105 -266q103 -100 269 -103v0zM397 137q-90 1 -142 59q-53 57 -54 154q1 98 54 155
q52 57 142 58q90 -1 143 -58q52 -57 53 -155q-1 -97 -53 -154q-53 -58 -143 -59v0z" />
    <glyph glyph-name="multiply" unicode="&#xd7;" horiz-adv-x="586" 
d="M138 97l155 156l155 -156l95 93l-157 156l157 156l-95 94l-155 -156l-155 156l-95 -94l157 -156l-157 -156z" />
    <glyph glyph-name="Oslash" unicode="&#xd8;" horiz-adv-x="794" 
d="M681 599l48 54l-75 60l-46 -52q-44 28 -98 43q-53 15 -113 15q-166 -3 -269 -103q-102 -101 -105 -266q0 -75 24 -138q23 -63 65 -111l-48 -55l74 -59l47 52q44 -28 98 -43q53 -15 114 -15q166 3 269 103q102 101 105 266q0 75 -24 138q-23 63 -66 111v0zM196 350
q1 100 55 159t146 60q30 0 57 -7q26 -7 49 -20l-278 -314q-29 51 -29 122v0zM397 131q-31 0 -58 7q-26 7 -49 21l279 314q14 -26 22 -57q7 -31 7 -66q-1 -100 -55 -159q-53 -59 -146 -60v0z" />
    <glyph glyph-name="Ugrave" unicode="&#xd9;" horiz-adv-x="769" 
d="M333 760h135l-108 145h-171zM385 -19q155 1 240 75t86 214v430h-178v-417q0 -75 -37 -111q-37 -35 -111 -35t-112 35q-37 36 -37 111v417h-178v-430q1 -140 86 -214t241 -75v0z" />
    <glyph glyph-name="Uacute" unicode="&#xda;" horiz-adv-x="769" 
d="M297 760h136l143 145h-171zM385 -19q155 1 240 75t86 214v430h-178v-417q0 -75 -37 -111q-37 -35 -111 -35t-112 35q-37 36 -37 111v417h-178v-430q1 -140 86 -214t241 -75v0z" />
    <glyph glyph-name="Ucircumflex" unicode="&#xdb;" horiz-adv-x="769" 
d="M385 828l82 -88l81 73l-79 80h-168l-79 -80l81 -73zM533 700v-417q0 -75 -37 -111q-37 -35 -111 -35t-112 35q-37 36 -37 111v417h-178v-430q1 -140 86 -214t241 -75q155 1 240 75t86 214v430h-178z" />
    <glyph glyph-name="Udieresis" unicode="&#xdc;" horiz-adv-x="769" 
d="M202 750h139v138h-139v-138zM428 750h139v138h-139v-138zM385 -19q155 1 240 75t86 214v430h-178v-417q0 -75 -37 -111q-37 -35 -111 -35t-112 35q-37 36 -37 111v417h-178v-430q1 -140 86 -214t241 -75v0z" />
    <glyph glyph-name="Yacute" unicode="&#xdd;" horiz-adv-x="742" 
d="M283 760h136l143 145h-171zM282 0h178v273l295 427h-206l-177 -275h-2l-178 275h-206l296 -427v-273z" />
    <glyph glyph-name="Thorn" unicode="&#xde;" horiz-adv-x="715" 
d="M439 596h-198v104h-178v-700h178v116h198q118 1 190 62t74 177q-2 115 -75 178q-72 62 -189 63v0zM424 267h-183v178h185q44 1 71 -20q27 -20 28 -68q-1 -46 -30 -68t-71 -22v0z" />
    <glyph glyph-name="germandbls" unicode="&#xdf;" horiz-adv-x="648" 
d="M47 0h173v479q0 45 28 69q27 25 78 25q45 0 70 -19q26 -18 26 -53q-1 -35 -25 -54q-24 -18 -66 -18h-59v-122h84q48 0 73 -20q26 -21 26 -59q0 -40 -27 -61q-28 -21 -79 -21h-77v-146h87q120 1 192 55q72 55 74 157q-1 62 -34 108q-34 46 -91 66v2q42 19 65 55
q24 36 24 82q-2 85 -76 139q-74 53 -190 55q-133 -1 -204 -63t-72 -176v-480z" />
    <glyph glyph-name="agrave" unicode="&#xe0;" horiz-adv-x="606" 
d="M250 609h135l-108 145h-171zM228 -15q59 0 105 18q46 17 76 50h2v-53h157v330q-1 102 -71 160q-71 58 -195 59q-110 -1 -186 -53q-76 -51 -92 -136l158 -28q10 42 42 66q33 24 83 24q39 0 62 -13q22 -13 23 -35q1 -19 -27 -31q-28 -13 -101 -23q-126 -17 -183 -58
t-56 -113q1 -76 55 -119q54 -44 148 -45v0zM266 118q-37 0 -56 10q-18 10 -18 30q-1 20 24 33q24 12 83 24q47 9 70 18t30 21h2v-53q-1 -35 -40 -58q-38 -24 -95 -25v0z" />
    <glyph glyph-name="aacute" unicode="&#xe1;" horiz-adv-x="606" 
d="M214 609h136l143 145h-171zM228 -15q59 0 105 18q46 17 76 50h2v-53h157v330q-1 102 -71 160q-71 58 -195 59q-110 -1 -186 -53q-76 -51 -92 -136l158 -28q10 42 42 66q33 24 83 24q39 0 62 -13q22 -13 23 -35q1 -19 -27 -31q-28 -13 -101 -23q-126 -17 -183 -58
t-56 -113q1 -76 55 -119q54 -44 148 -45v0zM266 118q-37 0 -56 10q-18 10 -18 30q-1 20 24 33q24 12 83 24q47 9 70 18t30 21h2v-53q-1 -35 -40 -58q-38 -24 -95 -25v0z" />
    <glyph glyph-name="acircumflex" unicode="&#xe2;" horiz-adv-x="606" 
d="M302 677l82 -88l81 73l-79 80h-168l-79 -80l81 -73zM302 549q-110 -1 -186 -53q-76 -51 -92 -136l158 -28q10 42 42 66q33 24 83 24q39 0 62 -13q22 -13 23 -35q1 -19 -27 -31q-28 -13 -101 -23q-126 -17 -183 -58t-56 -113q1 -76 55 -119q54 -44 148 -45q59 0 105 18
q46 17 76 50h2v-53h157v330q-1 102 -71 160q-71 58 -195 59v0zM401 201q-1 -35 -40 -58q-38 -24 -95 -25q-37 0 -56 10q-18 10 -18 30q-1 20 24 33q24 12 83 24q47 9 70 18t30 21h2v-53z" />
    <glyph glyph-name="atilde" unicode="&#xe3;" horiz-adv-x="606" 
d="M385 603q52 0 84 34q31 34 35 97h-83q-4 -17 -15 -26q-11 -8 -28 -8q-31 3 -70 20q-38 18 -88 20q-54 0 -85 -34q-32 -34 -35 -97h83q5 19 15 27q11 9 27 9q32 -3 71 -21q38 -18 89 -21v0zM228 -15q59 0 105 18q46 17 76 50h2v-53h157v330q-1 102 -71 160q-71 58 -195 59
q-110 -1 -186 -53q-76 -51 -92 -136l158 -28q10 42 42 66q33 24 83 24q39 0 62 -13q22 -13 23 -35q1 -19 -27 -31q-28 -13 -101 -23q-126 -17 -183 -58t-56 -113q1 -76 55 -119q54 -44 148 -45v0zM266 118q-37 0 -56 10q-18 10 -18 30q-1 20 24 33q24 12 83 24q47 9 70 18
t30 21h2v-53q-1 -35 -40 -58q-38 -24 -95 -25v0z" />
    <glyph glyph-name="adieresis" unicode="&#xe4;" horiz-adv-x="606" 
d="M119 599h139v138h-139v-138zM345 599h139v138h-139v-138zM228 -15q59 0 105 18q46 17 76 50h2v-53h157v330q-1 102 -71 160q-71 58 -195 59q-110 -1 -186 -53q-76 -51 -92 -136l158 -28q10 42 42 66q33 24 83 24q39 0 62 -13q22 -13 23 -35q1 -19 -27 -31
q-28 -13 -101 -23q-126 -17 -183 -58t-56 -113q1 -76 55 -119q54 -44 148 -45v0zM266 118q-37 0 -56 10q-18 10 -18 30q-1 20 24 33q24 12 83 24q47 9 70 18t30 21h2v-53q-1 -35 -40 -58q-38 -24 -95 -25v0z" />
    <glyph glyph-name="aring" unicode="&#xe5;" horiz-adv-x="606" 
d="M292 567q64 1 105 36q40 35 41 92q-1 57 -41 93q-41 35 -105 36q-64 -1 -104 -36q-41 -36 -42 -93q1 -57 42 -92q40 -35 104 -36v0zM292 636q-27 0 -44 16q-16 16 -17 43q1 27 17 43q17 17 44 17t44 -17q16 -16 16 -43t-16 -43q-17 -16 -44 -16v0zM228 -15q59 0 105 18
q46 17 76 50h2v-53h157v330q-1 102 -71 160q-71 58 -195 59q-110 -1 -186 -53q-76 -51 -92 -136l158 -28q10 42 42 66q33 24 83 24q39 0 62 -13q22 -13 23 -35q1 -19 -27 -31q-28 -13 -101 -23q-126 -17 -183 -58t-56 -113q1 -76 55 -119q54 -44 148 -45v0zM266 118
q-37 0 -56 10q-18 10 -18 30q-1 20 24 33q24 12 83 24q47 9 70 18t30 21h2v-53q-1 -35 -40 -58q-38 -24 -95 -25v0z" />
    <glyph glyph-name="ae" unicode="&#xe6;" horiz-adv-x="983" 
d="M960 264q-2 126 -80 204q-78 79 -205 81q-56 0 -102 -17q-47 -17 -85 -50q-31 32 -79 50q-48 17 -111 17q-105 -1 -179 -49t-96 -131l151 -38q10 42 43 67q32 24 81 24q43 0 63 -14q20 -13 20 -36q-22 -50 -176 -64q-155 -15 -177 -162q1 -75 57 -120q55 -44 152 -45
q156 0 227 87q39 -43 95 -65t127 -22q76 0 137 27q61 26 111 78l-95 105q-39 -40 -77 -58q-37 -18 -78 -18q-60 0 -94 26q-35 26 -39 73h409v50zM552 327q5 42 39 67q34 24 87 25q52 0 84 -25q33 -24 39 -67h-249zM388 193q-2 -33 -39 -56t-90 -24q-37 0 -55 10
q-19 11 -19 33q10 43 89 54q80 10 112 44h2v-61z" />
    <glyph glyph-name="ccedilla" unicode="&#xe7;" horiz-adv-x="627" 
d="M325 132q-58 1 -93 37t-36 96q1 61 36 97q35 35 93 36q48 0 79 -24q32 -23 44 -64l161 49q-25 86 -101 137q-76 52 -183 53q-132 -2 -216 -80q-83 -79 -86 -204q2 -112 70 -187q69 -75 180 -93l-60 -100l65 -26q25 19 55 19q20 0 32 -8t12 -21q0 -16 -13 -25
q-12 -9 -35 -9q-18 0 -37 6q-18 5 -41 18l-44 -85q61 -33 133 -33q63 1 101 33q37 32 38 87q-1 49 -33 78t-87 30q-7 0 -14 -1q-7 0 -14 -1l24 35q96 9 163 59q68 50 91 130l-161 49q-13 -42 -44 -65q-32 -23 -79 -23v0z" />
    <glyph glyph-name="egrave" unicode="&#xe8;" horiz-adv-x="644" 
d="M271 609h135l-108 145h-171zM328 -19q82 0 145 25q64 25 117 75l-96 110q-40 -37 -79 -56q-40 -18 -81 -18q-64 0 -100 26q-36 25 -40 70h427v51q-2 124 -83 203t-215 82q-132 -3 -214 -81q-83 -79 -86 -204q2 -130 82 -206q81 -75 223 -77v0zM195 327q6 41 41 66
q35 24 89 25q55 0 89 -24q33 -24 39 -67h-258z" />
    <glyph glyph-name="eacute" unicode="&#xe9;" horiz-adv-x="644" 
d="M235 609h136l143 145h-171zM328 -19q82 0 145 25q64 25 117 75l-96 110q-40 -37 -79 -56q-40 -18 -81 -18q-64 0 -100 26q-36 25 -40 70h427v51q-2 124 -83 203t-215 82q-132 -3 -214 -81q-83 -79 -86 -204q2 -130 82 -206q81 -75 223 -77v0zM195 327q6 41 41 66
q35 24 89 25q55 0 89 -24q33 -24 39 -67h-258z" />
    <glyph glyph-name="ecircumflex" unicode="&#xea;" horiz-adv-x="644" 
d="M323 677l82 -88l81 73l-79 80h-168l-79 -80l81 -73zM621 264q-2 124 -83 203t-215 82q-132 -3 -214 -81q-83 -79 -86 -204q2 -130 82 -206q81 -75 223 -77q82 0 145 25q64 25 117 75l-96 110q-40 -37 -79 -56q-40 -18 -81 -18q-64 0 -100 26q-36 25 -40 70h427v51z
M195 327q6 41 41 66q35 24 89 25q55 0 89 -24q33 -24 39 -67h-258z" />
    <glyph glyph-name="edieresis" unicode="&#xeb;" horiz-adv-x="644" 
d="M140 599h139v138h-139v-138zM366 599h139v138h-139v-138zM328 -19q82 0 145 25q64 25 117 75l-96 110q-40 -37 -79 -56q-40 -18 -81 -18q-64 0 -100 26q-36 25 -40 70h427v51q-2 124 -83 203t-215 82q-132 -3 -214 -81q-83 -79 -86 -204q2 -130 82 -206q81 -75 223 -77v0
zM195 327q6 41 41 66q35 24 89 25q55 0 89 -24q33 -24 39 -67h-258z" />
    <glyph glyph-name="igrave" unicode="&#xec;" horiz-adv-x="259" 
d="M77 590h135l-108 145h-171zM43 0h173v530h-173v-530z" />
    <glyph glyph-name="iacute" unicode="&#xed;" horiz-adv-x="259" 
d="M41 590h136l143 145h-171zM43 0h173v530h-173v-530z" />
    <glyph glyph-name="icircumflex" unicode="&#xee;" horiz-adv-x="259" 
d="M129 658l82 -88l81 73l-79 80h-168l-79 -80l81 -73zM43 0h173v530h-173v-530z" />
    <glyph glyph-name="idieresis" unicode="&#xef;" horiz-adv-x="259" 
d="M-40 580h139v138h-139v-138zM160 580h139v138h-139v-138zM43 0h173v530h-173v-530z" />
    <glyph glyph-name="eth" unicode="&#xf0;" horiz-adv-x="664" 
d="M486 660l100 28l-19 64l-130 -36q-28 30 -60 59h-180v-2q31 -25 58 -49q27 -23 50 -45l-101 -28l18 -65l136 38q25 -28 46 -56q20 -29 39 -60h-2q-30 19 -63 27q-33 9 -72 9q-124 -2 -202 -79t-81 -202q2 -125 86 -202q84 -78 221 -80q139 2 224 82t87 218q-1 91 -41 189
q-41 98 -114 190v0zM331 132q-62 1 -98 38q-36 36 -37 94q1 60 37 96q36 37 98 38q62 -1 98 -38q36 -36 37 -96q-1 -58 -37 -94q-36 -37 -98 -38v0z" />
    <glyph glyph-name="ntilde" unicode="&#xf1;" horiz-adv-x="690" 
d="M443 599q52 0 84 34q31 34 35 97h-83q-4 -17 -15 -26q-11 -8 -28 -8q-31 3 -70 20q-38 18 -88 20q-54 0 -85 -34q-32 -34 -35 -97h83q5 19 15 27q11 9 27 9q32 -3 71 -21q38 -18 89 -21v0zM47 0h173v274q1 55 37 87q35 32 96 33q61 0 93 -31q33 -31 33 -89v-274h173v293
q-2 115 -71 183q-69 67 -187 69q-52 0 -98 -16q-45 -16 -80 -48h-2v49h-167v-530z" />
    <glyph glyph-name="ograve" unicode="&#xf2;" horiz-adv-x="662" 
d="M279 609h135l-108 145h-171zM331 -19q137 2 221 81q85 78 87 203q-2 125 -87 204q-84 78 -221 80q-137 -2 -221 -80q-85 -79 -87 -204q2 -125 87 -203q84 -79 221 -81v0zM331 132q-63 1 -99 38q-35 37 -36 95q1 59 36 95q36 37 99 38q62 -1 98 -38q36 -36 37 -95
q-1 -58 -37 -95t-98 -38v0z" />
    <glyph glyph-name="oacute" unicode="&#xf3;" horiz-adv-x="662" 
d="M243 609h136l143 145h-171zM331 -19q137 2 221 81q85 78 87 203q-2 125 -87 204q-84 78 -221 80q-137 -2 -221 -80q-85 -79 -87 -204q2 -125 87 -203q84 -79 221 -81v0zM331 132q-63 1 -99 38q-35 37 -36 95q1 59 36 95q36 37 99 38q62 -1 98 -38q36 -36 37 -95
q-1 -58 -37 -95t-98 -38v0z" />
    <glyph glyph-name="ocircumflex" unicode="&#xf4;" horiz-adv-x="662" 
d="M331 677l82 -88l81 73l-79 80h-168l-79 -80l81 -73zM331 549q-137 -2 -221 -80q-85 -79 -87 -204q2 -125 87 -203q84 -79 221 -81q137 2 221 81q85 78 87 203q-2 125 -87 204q-84 78 -221 80v0zM331 132q-63 1 -99 38q-35 37 -36 95q1 59 36 95q36 37 99 38q62 -1 98 -38
q36 -36 37 -95q-1 -58 -37 -95t-98 -38v0z" />
    <glyph glyph-name="otilde" unicode="&#xf5;" horiz-adv-x="662" 
d="M414 603q52 0 84 34q31 34 35 97h-83q-4 -17 -15 -26q-11 -8 -28 -8q-31 3 -70 20q-38 18 -88 20q-54 0 -85 -34q-32 -34 -35 -97h83q5 19 15 27q11 9 27 9q32 -3 71 -21q38 -18 89 -21v0zM331 -19q137 2 221 81q85 78 87 203q-2 125 -87 204q-84 78 -221 80
q-137 -2 -221 -80q-85 -79 -87 -204q2 -125 87 -203q84 -79 221 -81v0zM331 132q-63 1 -99 38q-35 37 -36 95q1 59 36 95q36 37 99 38q62 -1 98 -38q36 -36 37 -95q-1 -58 -37 -95t-98 -38v0z" />
    <glyph glyph-name="odieresis" unicode="&#xf6;" horiz-adv-x="662" 
d="M148 599h139v138h-139v-138zM374 599h139v138h-139v-138zM331 -19q137 2 221 81q85 78 87 203q-2 125 -87 204q-84 78 -221 80q-137 -2 -221 -80q-85 -79 -87 -204q2 -125 87 -203q84 -79 221 -81v0zM331 132q-63 1 -99 38q-35 37 -36 95q1 59 36 95q36 37 99 38
q62 -1 98 -38q36 -36 37 -95q-1 -58 -37 -95t-98 -38v0z" />
    <glyph glyph-name="divide" unicode="&#xf7;" horiz-adv-x="563" 
d="M281 480q47 1 76 30q29 28 30 75q-1 46 -30 75t-76 30q-45 -1 -74 -30t-30 -75q1 -47 30 -75q29 -29 74 -30v0zM43 294h477v132h-477v-132zM281 26q47 1 76 30t30 75q-1 46 -30 75t-76 30q-45 -1 -74 -30t-30 -75q1 -46 30 -75t74 -30v0z" />
    <glyph glyph-name="oslash" unicode="&#xf8;" horiz-adv-x="663" 
d="M570 451l46 47l-54 54l-51 -52q-38 23 -83 36t-96 13q-137 -2 -222 -80q-84 -79 -87 -204q0 -55 19 -102q18 -47 51 -84l-46 -47l55 -54l51 51q37 -23 82 -35q46 -13 97 -13q136 2 221 81q84 78 87 203q0 55 -18 102q-19 47 -52 84v0zM191 265q1 61 38 100q37 38 103 39
q39 0 68 -15l-192 -195q-17 32 -17 71v0zM332 126q-39 0 -69 15l192 195q17 -32 17 -71q-1 -61 -38 -99q-37 -39 -102 -40v0z" />
    <glyph glyph-name="ugrave" unicode="&#xf9;" horiz-adv-x="667" 
d="M278 590h135l-108 145h-171zM280 -15q55 0 99 16q43 16 75 50h2v-51h168v530h-173v-270q-1 -55 -34 -87q-34 -32 -91 -33q-60 0 -88 30q-28 29 -28 90v270h-173v-307q1 -111 65 -174t178 -64v0z" />
    <glyph glyph-name="uacute" unicode="&#xfa;" horiz-adv-x="667" 
d="M242 590h136l143 145h-171zM280 -15q55 0 99 16q43 16 75 50h2v-51h168v530h-173v-270q-1 -55 -34 -87q-34 -32 -91 -33q-60 0 -88 30q-28 29 -28 90v270h-173v-307q1 -111 65 -174t178 -64v0z" />
    <glyph glyph-name="ucircumflex" unicode="&#xfb;" horiz-adv-x="667" 
d="M330 658l82 -88l81 73l-79 80h-168l-79 -80l81 -73zM451 530v-270q-1 -55 -34 -87q-34 -32 -91 -33q-60 0 -88 30q-28 29 -28 90v270h-173v-307q1 -111 65 -174t178 -64q55 0 99 16q43 16 75 50h2v-51h168v530h-173z" />
    <glyph glyph-name="udieresis" unicode="&#xfc;" horiz-adv-x="667" 
d="M147 580h139v138h-139v-138zM373 580h139v138h-139v-138zM280 -15q55 0 99 16q43 16 75 50h2v-51h168v530h-173v-270q-1 -55 -34 -87q-34 -32 -91 -33q-60 0 -88 30q-28 29 -28 90v270h-173v-307q1 -111 65 -174t178 -64v0z" />
    <glyph glyph-name="yacute" unicode="&#xfd;" horiz-adv-x="683" 
d="M254 590h136l143 145h-171zM126 -225h191l369 755h-192l-150 -333h-2l-151 333h-193l250 -505z" />
    <glyph glyph-name="thorn" unicode="&#xfe;" horiz-adv-x="676" 
d="M376 549q-45 0 -84 -12q-40 -12 -72 -37v236h-173v-961h173v262h2q29 -24 71 -38t91 -14q118 3 192 80q75 77 77 199q-2 124 -79 203t-198 82v0zM344 135q-53 1 -88 29q-35 29 -36 71v64q1 42 37 70q35 28 87 29q62 -1 99 -36q36 -35 37 -96q-1 -59 -38 -95
q-36 -35 -98 -36v0z" />
    <glyph glyph-name="ydieresis" unicode="&#xff;" horiz-adv-x="683" 
d="M159 580h139v138h-139v-138zM385 580h139v138h-139v-138zM126 -225h191l369 755h-192l-150 -333h-2l-151 333h-193l250 -505z" />
    <glyph glyph-name="Amacron" unicode="&#x100;" horiz-adv-x="773" 
d="M569 859h-366v-99h366v99zM598 0h184l-313 700h-165l-313 -700h185l43 104h336zM281 255l105 255h2l105 -255h-212z" />
    <glyph glyph-name="amacron" unicode="&#x101;" horiz-adv-x="606" 
d="M118 609h366v99h-366v-99zM228 -15q59 0 105 18q46 17 76 50h2v-53h157v330q-1 102 -71 160q-71 58 -195 59q-110 -1 -186 -53q-76 -51 -92 -136l158 -28q10 42 42 66q33 24 83 24q39 0 62 -13q22 -13 23 -35q1 -19 -27 -31q-28 -13 -101 -23q-126 -17 -183 -58t-56 -113
q1 -76 55 -119q54 -44 148 -45v0zM266 118q-37 0 -56 10q-18 10 -18 30q-1 20 24 33q24 12 83 24q47 9 70 18t30 21h2v-53q-1 -35 -40 -58q-38 -24 -95 -25v0z" />
    <glyph glyph-name="Abreve" unicode="&#x102;" horiz-adv-x="773" 
d="M388 750q73 1 118 39q46 38 56 107h-89q-8 -22 -30 -34q-23 -13 -55 -13q-33 0 -55 13q-23 12 -32 34h-88q10 -69 56 -107t119 -39v0zM598 0h184l-313 700h-165l-313 -700h185l43 104h336zM281 255l105 255h2l105 -255h-212z" />
    <glyph glyph-name="abreve" unicode="&#x103;" horiz-adv-x="606" 
d="M303 599q73 1 118 39q46 38 56 107h-89q-8 -22 -30 -34q-23 -13 -55 -13q-33 0 -55 13q-23 12 -32 34h-88q10 -69 56 -107t119 -39v0zM228 -15q59 0 105 18q46 17 76 50h2v-53h157v330q-1 102 -71 160q-71 58 -195 59q-110 -1 -186 -53q-76 -51 -92 -136l158 -28
q10 42 42 66q33 24 83 24q39 0 62 -13q22 -13 23 -35q1 -19 -27 -31q-28 -13 -101 -23q-126 -17 -183 -58t-56 -113q1 -76 55 -119q54 -44 148 -45v0zM266 118q-37 0 -56 10q-18 10 -18 30q-1 20 24 33q24 12 83 24q47 9 70 18t30 21h2v-53q-1 -35 -40 -58q-38 -24 -95 -25
v0z" />
    <glyph glyph-name="Aogonek" unicode="&#x104;" horiz-adv-x="773" 
d="M755 -98q-14 -8 -28 -12t-26 -4q-13 0 -19 7q-7 6 -7 18q0 18 16 40t52 49h39l-313 700h-165l-313 -700h185l43 104h336l43 -104h52q-44 -29 -64 -61q-19 -31 -19 -63q1 -46 31 -69q31 -24 84 -24q60 0 111 26zM281 255l105 255h2l105 -255h-212z" />
    <glyph glyph-name="aogonek" unicode="&#x105;" horiz-adv-x="606" 
d="M557 -97q-14 -8 -28 -12t-26 -4q-13 0 -19 7q-7 6 -7 18q0 18 16 40q15 21 51 48h24v330q-1 102 -71 160q-71 58 -195 59q-110 -1 -186 -53q-76 -51 -92 -136l158 -28q10 42 42 66q33 24 83 24q39 0 62 -13q22 -13 23 -35q1 -19 -27 -31q-28 -13 -101 -23
q-126 -17 -183 -58t-56 -113q1 -76 55 -119q54 -44 148 -45q59 0 105 18q46 17 76 50h2v-53h40q-43 -29 -63 -61q-19 -31 -19 -62q1 -46 31 -69q31 -24 84 -24q60 0 111 26zM401 201q-1 -35 -40 -58q-38 -24 -95 -25q-37 0 -56 10q-18 10 -18 30q-1 20 24 33q24 12 83 24
q47 9 70 18t30 21h2v-53z" />
    <glyph glyph-name="Cacute" unicode="&#x106;" horiz-adv-x="751" 
d="M309 779h136l143 145h-171zM397 -19q133 1 224 69q92 67 117 192l-167 41q-17 -71 -62 -109q-45 -37 -112 -37q-90 1 -142 59q-53 57 -54 154q1 97 54 155q52 57 142 58q66 0 109 -35q44 -34 61 -97l165 45q-27 112 -116 177q-90 65 -219 66q-166 -3 -269 -103
q-102 -101 -105 -266q3 -165 105 -266q103 -100 269 -103v0z" />
    <glyph glyph-name="cacute" unicode="&#x107;" horiz-adv-x="627" 
d="M237 609h136l143 145h-171zM325 -19q107 1 183 53q76 51 101 137l-161 49q-13 -42 -44 -65q-32 -23 -79 -23q-58 1 -93 37t-36 96q1 61 36 97q35 35 93 36q48 0 79 -24q32 -23 44 -64l161 49q-25 86 -101 137q-76 52 -183 53q-132 -2 -216 -80q-83 -79 -86 -204
q3 -125 86 -203q84 -79 216 -81v0z" />
    <glyph glyph-name="Ccircumflex" unicode="&#x108;" horiz-adv-x="751" 
d="M397 847l82 -88l81 73l-79 80h-168l-79 -80l81 -73zM571 283q-17 -71 -62 -109q-45 -37 -112 -37q-90 1 -142 59q-53 57 -54 154q1 97 54 155q52 57 142 58q66 0 109 -35q44 -34 61 -97l165 45q-27 112 -116 177q-90 65 -219 66q-166 -3 -269 -103q-102 -101 -105 -266
q3 -165 105 -266q103 -100 269 -103q133 1 224 69q92 67 117 192z" />
    <glyph glyph-name="ccircumflex" unicode="&#x109;" horiz-adv-x="627" 
d="M325 677l82 -88l81 73l-79 80h-168l-79 -80l81 -73zM325 132q-58 1 -93 37t-36 96q1 61 36 97q35 35 93 36q48 0 79 -24q32 -23 44 -64l161 49q-25 86 -101 137q-76 52 -183 53q-132 -2 -216 -80q-83 -79 -86 -204q3 -125 86 -203q84 -79 216 -81q107 1 183 53
q76 51 101 137l-161 49q-13 -42 -44 -65q-32 -23 -79 -23v0z" />
    <glyph glyph-name="Cdotaccent" unicode="&#x10a;" horiz-adv-x="751" 
d="M328 779h138v137h-138v-137zM397 -19q133 1 224 69q92 67 117 192l-167 41q-17 -71 -62 -109q-45 -37 -112 -37q-90 1 -142 59q-53 57 -54 154q1 97 54 155q52 57 142 58q66 0 109 -35q44 -34 61 -97l165 45q-27 112 -116 177q-90 65 -219 66q-166 -3 -269 -103
q-102 -101 -105 -266q3 -165 105 -266q103 -100 269 -103v0z" />
    <glyph glyph-name="cdotaccent" unicode="&#x10b;" horiz-adv-x="627" 
d="M256 609h138v137h-138v-137zM325 -19q107 1 183 53q76 51 101 137l-161 49q-13 -42 -44 -65q-32 -23 -79 -23q-58 1 -93 37t-36 96q1 61 36 97q35 35 93 36q48 0 79 -24q32 -23 44 -64l161 49q-25 86 -101 137q-76 52 -183 53q-132 -2 -216 -80q-83 -79 -86 -204
q3 -125 86 -203q84 -79 216 -81v0z" />
    <glyph glyph-name="Ccaron" unicode="&#x10c;" horiz-adv-x="751" 
d="M481 769l79 81l-81 72l-82 -87l-82 87l-81 -72l79 -81h168zM571 283q-17 -71 -62 -109q-45 -37 -112 -37q-90 1 -142 59q-53 57 -54 154q1 97 54 155q52 57 142 58q66 0 109 -35q44 -34 61 -97l165 45q-27 112 -116 177q-90 65 -219 66q-166 -3 -269 -103
q-102 -101 -105 -266q3 -165 105 -266q103 -100 269 -103q133 1 224 69q92 67 117 192z" />
    <glyph glyph-name="ccaron" unicode="&#x10d;" horiz-adv-x="627" 
d="M409 599l79 81l-81 72l-82 -87l-82 87l-81 -72l79 -81h168zM325 132q-58 1 -93 37t-36 96q1 61 36 97q35 35 93 36q48 0 79 -24q32 -23 44 -64l161 49q-25 86 -101 137q-76 52 -183 53q-132 -2 -216 -80q-83 -79 -86 -204q3 -125 86 -203q84 -79 216 -81q107 1 183 53
q76 51 101 137l-161 49q-13 -42 -44 -65q-32 -23 -79 -23v0z" />
    <glyph glyph-name="Dcaron" unicode="&#x10e;" horiz-adv-x="746" 
d="M425 750l79 81l-81 72l-82 -87l-82 87l-81 -72l79 -81h168zM369 700h-306v-700h304q161 0 257 87q97 86 99 263q-2 172 -98 261q-95 89 -256 89v0zM355 155h-114v390h114q93 0 142 -47q48 -47 48 -148q0 -103 -49 -150q-48 -46 -141 -45v0z" />
    <glyph glyph-name="dcaron" unicode="&#x10f;" horiz-adv-x="845" 
d="M309 -12q54 0 99 17q45 16 75 46h2v-51h159v730h-173v-240h-2q-31 28 -72 41q-41 14 -89 14q-125 -3 -204 -81q-78 -78 -81 -200q2 -122 80 -198q79 -76 206 -78v0zM698 473q70 6 105 43t35 101v113h-144v-132h52q1 -27 -10 -40q-10 -13 -38 -19v-66zM339 139
q-67 1 -104 35q-38 34 -39 92q1 58 39 93q39 35 104 36q56 -1 93 -29q38 -28 39 -70v-58q-1 -42 -38 -70t-94 -29v0z" />
    <glyph glyph-name="Dcroat" unicode="&#x110;" horiz-adv-x="746" 
d="M369 700h-306v-285h-89v-131h89v-284h304q161 0 257 87q97 86 99 263q-2 172 -98 261q-95 89 -256 89v0zM355 155h-114v129h169v131h-169v130h114q93 0 142 -47q48 -47 48 -148q0 -103 -49 -150q-48 -46 -141 -45v0z" />
    <glyph glyph-name="dcroat" unicode="&#x111;" horiz-adv-x="691" 
d="M682 680h-38v50h-173v-50h-227v-104h227v-86h-2q-31 28 -72 41q-41 14 -89 14q-125 -3 -204 -81q-78 -78 -81 -200q2 -122 80 -198q79 -76 206 -78q54 0 99 17q45 16 75 46h2v-51h159v576h38v104zM471 238q-1 -42 -38 -70t-94 -29q-67 1 -104 35q-38 34 -39 92
q1 58 39 93q39 35 104 36q56 -1 93 -29q38 -28 39 -70v-58z" />
    <glyph glyph-name="Emacron" unicode="&#x112;" horiz-adv-x="641" 
d="M149 760h366v99h-366v-99zM63 0h541v155h-363v128h328v143h-328v119h362v155h-540v-700z" />
    <glyph glyph-name="emacron" unicode="&#x113;" horiz-adv-x="644" 
d="M139 609h366v99h-366v-99zM328 -19q82 0 145 25q64 25 117 75l-96 110q-40 -37 -79 -56q-40 -18 -81 -18q-64 0 -100 26q-36 25 -40 70h427v51q-2 124 -83 203t-215 82q-132 -3 -214 -81q-83 -79 -86 -204q2 -130 82 -206q81 -75 223 -77v0zM195 327q6 41 41 66
q35 24 89 25q55 0 89 -24q33 -24 39 -67h-258z" />
    <glyph glyph-name="Ebreve" unicode="&#x114;" horiz-adv-x="641" 
d="M334 750q73 1 118 39q46 38 56 107h-89q-8 -22 -30 -34q-23 -13 -55 -13q-33 0 -55 13q-23 12 -32 34h-88q10 -69 56 -107t119 -39v0zM63 0h541v155h-363v128h328v143h-328v119h362v155h-540v-700z" />
    <glyph glyph-name="ebreve" unicode="&#x115;" horiz-adv-x="644" 
d="M324 599q73 1 118 39q46 38 56 107h-89q-8 -22 -30 -34q-23 -13 -55 -13q-33 0 -55 13q-23 12 -32 34h-88q10 -69 56 -107t119 -39v0zM328 -19q82 0 145 25q64 25 117 75l-96 110q-40 -37 -79 -56q-40 -18 -81 -18q-64 0 -100 26q-36 25 -40 70h427v51q-2 124 -83 203
t-215 82q-132 -3 -214 -81q-83 -79 -86 -204q2 -130 82 -206q81 -75 223 -77v0zM195 327q6 41 41 66q35 24 89 25q55 0 89 -24q33 -24 39 -67h-258z" />
    <glyph glyph-name="Edotaccent" unicode="&#x116;" horiz-adv-x="641" 
d="M264 760h138v137h-138v-137zM63 0h541v155h-363v128h328v143h-328v119h362v155h-540v-700z" />
    <glyph glyph-name="edotaccent" unicode="&#x117;" horiz-adv-x="644" 
d="M254 609h138v137h-138v-137zM328 -19q82 0 145 25q64 25 117 75l-96 110q-40 -37 -79 -56q-40 -18 -81 -18q-64 0 -100 26q-36 25 -40 70h427v51q-2 124 -83 203t-215 82q-132 -3 -214 -81q-83 -79 -86 -204q2 -130 82 -206q81 -75 223 -77v0zM195 327q6 41 41 66
q35 24 89 25q55 0 89 -24q33 -24 39 -67h-258z" />
    <glyph glyph-name="Eogonek" unicode="&#x118;" horiz-adv-x="641" 
d="M545 0h59v155h-363v128h328v143h-328v119h362v155h-540v-700h389q-44 -29 -64 -61q-19 -31 -19 -63q1 -46 31 -69q31 -24 84 -24q60 0 111 26l-38 93q-14 -8 -28 -12t-26 -4q-13 0 -19 7q-7 6 -7 18q0 18 16 40t52 49v0z" />
    <glyph glyph-name="eogonek" unicode="&#x119;" horiz-adv-x="644" 
d="M621 264q-2 124 -83 203t-215 82q-132 -3 -214 -81q-83 -79 -86 -204q2 -130 82 -206q81 -75 223 -77h10q-31 -26 -44 -52q-14 -27 -14 -53q1 -46 31 -69q31 -24 84 -24q60 0 111 26l-38 93q-14 -8 -28 -12t-26 -4q-13 0 -19 7q-7 6 -7 18q0 18 16 40q15 22 51 48
q37 13 71 33q33 21 64 49l-96 110q-40 -37 -79 -56q-40 -18 -81 -18q-64 0 -100 26q-36 25 -40 70h427v51zM195 327q6 41 41 66q35 24 89 25q55 0 89 -24q33 -24 39 -67h-258z" />
    <glyph glyph-name="Ecaron" unicode="&#x11a;" horiz-adv-x="641" 
d="M417 750l79 81l-81 72l-82 -87l-82 87l-81 -72l79 -81h168zM241 155v128h328v143h-328v119h362v155h-540v-700h541v155h-363z" />
    <glyph glyph-name="ecaron" unicode="&#x11b;" horiz-adv-x="644" 
d="M407 599l79 81l-81 72l-82 -87l-82 87l-81 -72l79 -81h168zM621 264q-2 124 -83 203t-215 82q-132 -3 -214 -81q-83 -79 -86 -204q2 -130 82 -206q81 -75 223 -77q82 0 145 25q64 25 117 75l-96 110q-40 -37 -79 -56q-40 -18 -81 -18q-64 0 -100 26q-36 25 -40 70h427v51
zM195 327q6 41 41 66q35 24 89 25q55 0 89 -24q33 -24 39 -67h-258z" />
    <glyph glyph-name="Gcircumflex" unicode="&#x11c;" horiz-adv-x="759" 
d="M397 847l82 -88l81 73l-79 80h-168l-79 -80l81 -73zM404 377v-127h159q-5 -54 -47 -83q-42 -30 -119 -30q-90 1 -142 59q-53 57 -54 154q1 98 54 155q52 57 142 58q65 -1 107 -33t59 -90l166 46q-26 104 -115 168q-88 63 -217 65q-167 -3 -269 -103q-102 -101 -105 -266
q3 -165 105 -265q102 -101 269 -104q159 1 248 81q90 80 91 222v93h-332z" />
    <glyph glyph-name="gcircumflex" unicode="&#x11d;" horiz-adv-x="677" 
d="M325 675l82 -88l81 73l-79 80h-168l-79 -80l81 -73zM475 530v-49h-2q-29 29 -73 44t-95 15q-124 -2 -202 -78q-78 -75 -80 -196q2 -121 79 -195t204 -76q57 0 100 16q43 17 67 46h2v-38q-1 -53 -38 -85q-38 -32 -99 -33q-54 0 -94 19q-41 20 -80 65l-117 -103
q50 -61 125 -93q74 -33 166 -33q135 2 217 74t84 189v511h-164zM466 240q-1 -42 -38 -69q-37 -28 -93 -29q-65 1 -102 34q-36 32 -37 90q1 57 38 90t102 34q55 -1 92 -29t38 -69v-52z" />
    <glyph glyph-name="Gbreve" unicode="&#x11e;" horiz-adv-x="759" 
d="M398 769q73 1 118 39q46 38 56 107h-89q-8 -22 -30 -34q-23 -13 -55 -13q-33 0 -55 13q-23 12 -32 34h-88q10 -69 56 -107t119 -39v0zM397 -19q159 1 248 81q90 80 91 222v93h-332v-127h159q-5 -54 -47 -83q-42 -30 -119 -30q-90 1 -142 59q-53 57 -54 154q1 98 54 155
q52 57 142 58q65 -1 107 -33t59 -90l166 46q-26 104 -115 168q-88 63 -217 65q-167 -3 -269 -103q-102 -101 -105 -266q3 -165 105 -265q102 -101 269 -104v0z" />
    <glyph glyph-name="gbreve" unicode="&#x11f;" horiz-adv-x="677" 
d="M335 597q73 1 118 39q46 38 56 107h-89q-8 -22 -30 -34q-23 -13 -55 -13q-33 0 -55 13q-23 12 -32 34h-88q10 -69 56 -107t119 -39v0zM338 -244q135 2 217 74t84 189v511h-164v-49h-2q-29 29 -73 44t-95 15q-124 -2 -202 -78q-78 -75 -80 -196q2 -121 79 -195t204 -76
q57 0 100 16q43 17 67 46h2v-38q-1 -53 -38 -85q-38 -32 -99 -33q-54 0 -94 19q-41 20 -80 65l-117 -103q50 -61 125 -93q74 -33 166 -33v0zM335 142q-65 1 -102 34q-36 32 -37 90q1 57 38 90t102 34q55 -1 92 -29t38 -69v-52q-1 -42 -38 -69q-37 -28 -93 -29v0z" />
    <glyph glyph-name="Gdotaccent" unicode="&#x120;" horiz-adv-x="759" 
d="M328 779h138v137h-138v-137zM397 -19q159 1 248 81q90 80 91 222v93h-332v-127h159q-5 -54 -47 -83q-42 -30 -119 -30q-90 1 -142 59q-53 57 -54 154q1 98 54 155q52 57 142 58q65 -1 107 -33t59 -90l166 46q-26 104 -115 168q-88 63 -217 65q-167 -3 -269 -103
q-102 -101 -105 -266q3 -165 105 -265q102 -101 269 -104v0z" />
    <glyph glyph-name="gdotaccent" unicode="&#x121;" horiz-adv-x="677" 
d="M253 600h138v137h-138v-137zM338 -244q135 2 217 74t84 189v511h-164v-49h-2q-29 29 -73 44t-95 15q-124 -2 -202 -78q-78 -75 -80 -196q2 -121 79 -195t204 -76q57 0 100 16q43 17 67 46h2v-38q-1 -53 -38 -85q-38 -32 -99 -33q-54 0 -94 19q-41 20 -80 65l-117 -103
q50 -61 125 -93q74 -33 166 -33v0zM335 142q-65 1 -102 34q-36 32 -37 90q1 57 38 90t102 34q55 -1 92 -29t38 -69v-52q-1 -42 -38 -69q-37 -28 -93 -29v0z" />
    <glyph glyph-name="uni0122" unicode="&#x122;" horiz-adv-x="759" 
d="M397 -19q159 1 248 81q90 80 91 222v93h-332v-127h159q-5 -54 -47 -83q-42 -30 -119 -30q-90 1 -142 59q-53 57 -54 154q1 98 54 155q52 57 142 58q65 -1 107 -33t59 -90l166 46q-26 104 -115 168q-88 63 -217 65q-167 -3 -269 -103q-102 -101 -105 -266q3 -165 105 -265
q102 -101 269 -104v0zM329 -326q70 6 105 43t35 101v113h-144v-132h52q1 -27 -10 -40q-10 -13 -38 -19v-66z" />
    <glyph glyph-name="uni0123" unicode="&#x123;" horiz-adv-x="677" 
d="M397 855q-77 -6 -116 -42q-39 -37 -39 -101v-112h161v131h-59q-1 26 11 40q12 13 42 19v65zM338 -244q135 2 217 74t84 189v511h-164v-49h-2q-29 29 -73 44t-95 15q-124 -2 -202 -78q-78 -75 -80 -196q2 -121 79 -195t204 -76q57 0 100 16q43 17 67 46h2v-38
q-1 -53 -38 -85q-38 -32 -99 -33q-54 0 -94 19q-41 20 -80 65l-117 -103q50 -61 125 -93q74 -33 166 -33v0zM335 142q-65 1 -102 34q-36 32 -37 90q1 57 38 90t102 34q55 -1 92 -29t38 -69v-52q-1 -42 -38 -69q-37 -28 -93 -29v0z" />
    <glyph glyph-name="Hcircumflex" unicode="&#x124;" horiz-adv-x="778" 
d="M389 828l82 -88l81 73l-79 80h-168l-79 -80l81 -73zM537 700v-262h-296v262h-178v-700h178v275h296v-275h178v700h-178z" />
    <glyph glyph-name="hcircumflex" unicode="&#x125;" horiz-adv-x="690" 
d="M368 828l82 -88l81 73l-79 80h-168l-79 -80l81 -73zM394 545q-52 0 -95 -16t-77 -48h-2v249h-173v-730h173v274q1 55 37 87q35 32 96 33q61 0 93 -31q33 -31 33 -89v-274h173v307q-2 107 -71 172q-70 64 -187 66v0z" />
    <glyph glyph-name="Hbar" unicode="&#x126;" horiz-adv-x="778" 
d="M785 621h-70v79h-174v-79h-304v79h-174v-79h-70v-126h70v-495h174v283h304v-283h174v495h70v126zM541 430h-304v65h304v-65z" />
    <glyph glyph-name="hbar" unicode="&#x127;" horiz-adv-x="690" 
d="M394 545q-52 0 -95 -16t-77 -48h-2v95h213v104h-213v50h-173v-50h-52v-104h52v-576h173v274q1 55 37 87q35 32 96 33q61 0 93 -31q33 -31 33 -89v-274h173v307q-2 107 -71 172q-70 64 -187 66v0z" />
    <glyph glyph-name="Itilde" unicode="&#x128;" horiz-adv-x="304" 
d="M235 754q52 0 84 34q31 34 35 97h-83q-4 -17 -15 -26q-11 -8 -28 -8q-31 3 -70 20q-38 18 -88 20q-54 0 -85 -34q-32 -34 -35 -97h83q5 19 15 27q11 9 27 9q32 -3 71 -21q38 -18 89 -21v0zM63 0h178v700h-178v-700z" />
    <glyph glyph-name="itilde" unicode="&#x129;" horiz-adv-x="259" 
d="M212 584q52 0 84 34q31 34 35 97h-83q-4 -17 -15 -26q-11 -8 -28 -8q-31 3 -70 20q-38 18 -88 20q-54 0 -85 -34q-32 -34 -35 -97h83q5 19 15 27q11 9 27 9q32 -3 71 -21q38 -18 89 -21v0zM43 0h173v530h-173v-530z" />
    <glyph glyph-name="Imacron" unicode="&#x12a;" horiz-adv-x="304" 
d="M-32 760h366v99h-366v-99zM63 0h178v700h-178v-700z" />
    <glyph glyph-name="imacron" unicode="&#x12b;" horiz-adv-x="259" 
d="M-55 590h366v99h-366v-99zM43 0h173v530h-173v-530z" />
    <glyph glyph-name="Ibreve" unicode="&#x12c;" horiz-adv-x="304" 
d="M153 750q73 1 118 39q46 38 56 107h-89q-8 -22 -30 -34q-23 -13 -55 -13q-33 0 -55 13q-23 12 -32 34h-88q10 -69 56 -107t119 -39v0zM63 0h178v700h-178v-700z" />
    <glyph glyph-name="ibreve" unicode="&#x12d;" horiz-adv-x="259" 
d="M130 580q73 1 118 39q46 38 56 107h-89q-8 -22 -30 -34q-23 -13 -55 -13q-33 0 -55 13q-23 12 -32 34h-88q10 -69 56 -107t119 -39v0zM43 0h173v530h-173v-530z" />
    <glyph glyph-name="Iogonek" unicode="&#x12e;" horiz-adv-x="304" 
d="M216 -98q-14 -8 -28 -12t-26 -4q-13 0 -19 7q-7 6 -7 18q0 18 16 40t52 49h37v700h-178v-700h48q-44 -29 -64 -61q-19 -31 -19 -63q1 -46 31 -69q31 -24 84 -24q60 0 111 26z" />
    <glyph glyph-name="iogonek" unicode="&#x12f;" horiz-adv-x="259" 
d="M215 774h-173v-162h173v162zM195 -98q-14 -8 -28 -12t-26 -4q-13 0 -19 7q-7 6 -7 18q0 18 16 40t52 49h33v530h-173v-530h47q-44 -29 -64 -61q-19 -31 -19 -63q1 -46 31 -69q31 -24 84 -24q60 0 111 26z" />
    <glyph glyph-name="Idotaccent" unicode="&#x130;" horiz-adv-x="304" 
d="M83 760h138v137h-138v-137zM63 0h178v700h-178v-700z" />
    <glyph glyph-name="dotlessi" unicode="&#x131;" horiz-adv-x="259" 
d="M43 0h173v530h-173v-530z" />
    <glyph glyph-name="Jcircumflex" unicode="&#x134;" horiz-adv-x="657" 
d="M510 828l82 -88l81 73l-79 80h-168l-79 -80l81 -73zM421 276q0 -66 -29 -102q-28 -37 -81 -37q-58 0 -86 30t-36 96l-172 -24q8 -124 85 -190q77 -67 209 -68q128 1 207 73t81 202v444h-178v-424z" />
    <glyph glyph-name="jcircumflex" unicode="&#x135;" horiz-adv-x="270" 
d="M141 658l82 -88l81 73l-79 80h-168l-79 -80l81 -73zM54 -13q0 -25 -13 -38q-12 -12 -40 -12h-88v-160h103q111 -1 161 49q51 49 50 159v545h-173v-543z" />
    <glyph glyph-name="uni0136" unicode="&#x136;" horiz-adv-x="743" 
d="M63 0h178v168l102 110h2l185 -278h222l-289 397l285 303h-236l-269 -293h-2v293h-178v-700zM323 -307q70 6 105 43t35 101v113h-144v-132h52q1 -27 -10 -40q-10 -13 -38 -19v-66z" />
    <glyph glyph-name="uni0137" unicode="&#x137;" horiz-adv-x="688" 
d="M47 0h173v139l90 74h2l165 -213h204l-255 315l252 215h-237l-219 -193h-2v393h-173v-730zM286 -307q70 6 105 43t35 101v113h-144v-132h52q1 -27 -10 -40q-10 -13 -38 -19v-66z" />
    <glyph glyph-name="kgreenlandic" unicode="&#x138;" horiz-adv-x="671" 
d="M47 0h172v139l85 74h2l155 -213h202l-243 315l242 215h-235l-206 -184h-2v184h-172v-530z" />
    <glyph glyph-name="Lacute" unicode="&#x139;" horiz-adv-x="616" 
d="M64 760h136l143 145h-171zM63 0h535v156h-357v544h-178v-700z" />
    <glyph glyph-name="lacute" unicode="&#x13a;" horiz-adv-x="259" 
d="M42 790h136l143 145h-171zM43 0h173v730h-173v-730z" />
    <glyph glyph-name="uni013B" unicode="&#x13b;" horiz-adv-x="616" 
d="M63 0h535v156h-357v544h-178v-700zM263 -307q70 6 105 43t35 101v113h-144v-132h52q1 -27 -10 -40q-10 -13 -38 -19v-66z" />
    <glyph glyph-name="uni013C" unicode="&#x13c;" horiz-adv-x="259" 
d="M43 0h173v730h-173v-730zM62 -307q70 6 105 43t35 101v113h-144v-132h52q1 -27 -10 -40q-10 -13 -38 -19v-66z" />
    <glyph glyph-name="Lcaron" unicode="&#x13d;" horiz-adv-x="626" 
d="M63 0h535v156h-357v544h-178v-700zM487 443q70 6 105 43t35 101v113h-144v-132h52q1 -27 -10 -40q-10 -13 -38 -19v-66z" />
    <glyph glyph-name="lcaron" unicode="&#x13e;" horiz-adv-x="417" 
d="M43 0h173v730h-173v-730zM270 473q70 6 105 43t35 101v113h-144v-132h52q1 -27 -10 -40q-10 -13 -38 -19v-66z" />
    <glyph glyph-name="Ldot" unicode="&#x13f;" horiz-adv-x="616" 
d="M63 0h535v156h-357v544h-178v-700zM364 316h189v184h-189v-184z" />
    <glyph glyph-name="ldot" unicode="&#x140;" horiz-adv-x="478" 
d="M43 0h173v730h-173v-730zM272 286h189v184h-189v-184z" />
    <glyph glyph-name="Lslash" unicode="&#x141;" horiz-adv-x="693" 
d="M328 156v185l192 182l-56 60l-136 -129v246h-178v-395l-150 -141l54 -55l96 91v-200h535v156h-357z" />
    <glyph glyph-name="lslash" unicode="&#x142;" horiz-adv-x="407" 
d="M427 539l-54 56l-83 -78v213h-173v-346l-137 -128l55 -57l82 77v-276h173v409z" />
    <glyph glyph-name="Nacute" unicode="&#x143;" horiz-adv-x="800" 
d="M312 760h136l143 145h-171zM63 0h178v446h2l308 -446h186v700h-178v-445h-2l-308 445h-186v-700z" />
    <glyph glyph-name="nacute" unicode="&#x144;" horiz-adv-x="690" 
d="M272 605h136l143 145h-171zM47 0h173v274q1 55 37 87q35 32 96 33q61 0 93 -31q33 -31 33 -89v-274h173v293q-2 115 -71 183q-69 67 -187 69q-52 0 -98 -16q-45 -16 -80 -48h-2v49h-167v-530z" />
    <glyph glyph-name="uni0145" unicode="&#x145;" horiz-adv-x="800" 
d="M63 0h178v446h2l308 -446h186v700h-178v-445h-2l-308 445h-186v-700zM346 -307q70 6 105 43t35 101v113h-144v-132h52q1 -27 -10 -40q-10 -13 -38 -19v-66z" />
    <glyph glyph-name="uni0146" unicode="&#x146;" horiz-adv-x="690" 
d="M47 0h173v274q1 55 37 87q35 32 96 33q61 0 93 -31q33 -31 33 -89v-274h173v293q-2 115 -71 183q-69 67 -187 69q-52 0 -98 -16q-45 -16 -80 -48h-2v49h-167v-530zM282 -307q70 6 105 43t35 101v113h-144v-132h52q1 -27 -10 -40q-10 -13 -38 -19v-66z" />
    <glyph glyph-name="Ncaron" unicode="&#x147;" horiz-adv-x="800" 
d="M484 750l79 81l-81 72l-82 -87l-82 87l-81 -72l79 -81h168zM559 700v-445h-2l-308 445h-186v-700h178v446h2l308 -446h186v700h-178z" />
    <glyph glyph-name="ncaron" unicode="&#x148;" horiz-adv-x="690" 
d="M444 595l79 81l-81 72l-82 -87l-82 87l-81 -72l79 -81h168zM394 545q-52 0 -98 -16q-45 -16 -80 -48h-2v49h-167v-530h173v274q1 55 37 87q35 32 96 33q61 0 93 -31q33 -31 33 -89v-274h173v293q-2 115 -71 183q-69 67 -187 69v0z" />
    <glyph glyph-name="Eng" unicode="&#x14a;" horiz-adv-x="800" 
d="M559 700v-425h-2l-327 425h-167v-700h178v427h2l329 -427v-21q0 -19 -9 -29q-10 -9 -30 -9h-85v-160h88q104 0 153 42q48 43 48 143v734h-178z" />
    <glyph glyph-name="eng" unicode="&#x14b;" horiz-adv-x="690" 
d="M394 545q-52 0 -98 -16q-45 -16 -80 -48h-2v49h-167v-530h173v274q1 55 37 87q35 32 96 33q61 0 93 -31q33 -31 33 -89v-295q0 -19 -9 -29q-10 -9 -29 -9h-76v-160h88q102 -1 151 42q48 43 48 143v327q-2 115 -71 183q-69 67 -187 69v0z" />
    <glyph glyph-name="Omacron" unicode="&#x14c;" horiz-adv-x="794" 
d="M213 779h366v99h-366v-99zM397 -19q166 3 269 103q102 101 105 266q-3 165 -105 266q-103 100 -269 103q-166 -3 -269 -103q-102 -101 -105 -266q3 -165 105 -266q103 -100 269 -103v0zM397 137q-90 1 -142 59q-53 57 -54 154q1 98 54 155q52 57 142 58q90 -1 143 -58
q52 -57 53 -155q-1 -97 -53 -154q-53 -58 -143 -59v0z" />
    <glyph glyph-name="omacron" unicode="&#x14d;" horiz-adv-x="662" 
d="M147 609h366v99h-366v-99zM331 -19q137 2 221 81q85 78 87 203q-2 125 -87 204q-84 78 -221 80q-137 -2 -221 -80q-85 -79 -87 -204q2 -125 87 -203q84 -79 221 -81v0zM331 132q-63 1 -99 38q-35 37 -36 95q1 59 36 95q36 37 99 38q62 -1 98 -38q36 -36 37 -95
q-1 -58 -37 -95t-98 -38v0z" />
    <glyph glyph-name="Obreve" unicode="&#x14e;" horiz-adv-x="794" 
d="M398 769q73 1 118 39q46 38 56 107h-89q-8 -22 -30 -34q-23 -13 -55 -13q-33 0 -55 13q-23 12 -32 34h-88q10 -69 56 -107t119 -39v0zM397 -19q166 3 269 103q102 101 105 266q-3 165 -105 266q-103 100 -269 103q-166 -3 -269 -103q-102 -101 -105 -266q3 -165 105 -266
q103 -100 269 -103v0zM397 137q-90 1 -142 59q-53 57 -54 154q1 98 54 155q52 57 142 58q90 -1 143 -58q52 -57 53 -155q-1 -97 -53 -154q-53 -58 -143 -59v0z" />
    <glyph glyph-name="obreve" unicode="&#x14f;" horiz-adv-x="662" 
d="M332 599q73 1 118 39q46 38 56 107h-89q-8 -22 -30 -34q-23 -13 -55 -13q-33 0 -55 13q-23 12 -32 34h-88q10 -69 56 -107t119 -39v0zM331 -19q137 2 221 81q85 78 87 203q-2 125 -87 204q-84 78 -221 80q-137 -2 -221 -80q-85 -79 -87 -204q2 -125 87 -203
q84 -79 221 -81v0zM331 132q-63 1 -99 38q-35 37 -36 95q1 59 36 95q36 37 99 38q62 -1 98 -38q36 -36 37 -95q-1 -58 -37 -95t-98 -38v0z" />
    <glyph glyph-name="Ohungarumlaut" unicode="&#x150;" horiz-adv-x="794" 
d="M203 779h125l141 145h-160zM418 779h125l141 145h-161zM397 -19q166 3 269 103q102 101 105 266q-3 165 -105 266q-103 100 -269 103q-166 -3 -269 -103q-102 -101 -105 -266q3 -165 105 -266q103 -100 269 -103v0zM397 137q-90 1 -142 59q-53 57 -54 154q1 98 54 155
q52 57 142 58q90 -1 143 -58q52 -57 53 -155q-1 -97 -53 -154q-53 -58 -143 -59v0z" />
    <glyph glyph-name="ohungarumlaut" unicode="&#x151;" horiz-adv-x="662" 
d="M137 609h125l141 145h-160zM352 609h125l141 145h-161zM331 -19q137 2 221 81q85 78 87 203q-2 125 -87 204q-84 78 -221 80q-137 -2 -221 -80q-85 -79 -87 -204q2 -125 87 -203q84 -79 221 -81v0zM331 132q-63 1 -99 38q-35 37 -36 95q1 59 36 95q36 37 99 38
q62 -1 98 -38q36 -36 37 -95q-1 -58 -37 -95t-98 -38v0z" />
    <glyph glyph-name="OE" unicode="&#x152;" horiz-adv-x="1074" 
d="M379 -16q48 0 92 12q43 12 76 32h2v-28h489v152h-316v132h281v141h-281v123h315v152h-488v-29h-2q-33 20 -76 32q-44 12 -92 12q-160 -3 -257 -103q-96 -100 -99 -262q2 -163 98 -263t258 -103v0zM396 135q-93 1 -146 60q-52 58 -53 155q1 97 55 155q53 58 144 59
q95 0 153 -63v-303q-58 -63 -153 -63v0z" />
    <glyph glyph-name="oe" unicode="&#x153;" horiz-adv-x="1085" 
d="M1062 266q-2 123 -84 202q-82 78 -216 81q-65 0 -118 -22q-54 -21 -93 -59q-40 39 -95 60t-123 21q-137 -2 -222 -81q-85 -78 -88 -204q3 -125 88 -203t222 -80q66 0 121 21q54 20 94 57q38 -38 93 -58t125 -20q80 0 145 24q64 24 119 75l-97 114q-40 -37 -80 -56
q-40 -18 -80 -18q-63 0 -98 25q-35 24 -39 69h426v52zM638 327q5 40 40 64q34 24 87 25q54 0 87 -23q32 -24 38 -66h-252zM333 128q-64 1 -100 39t-37 97q1 60 37 98q36 39 100 40q64 -1 99 -40q35 -38 36 -98q-1 -59 -36 -97t-99 -39v0z" />
    <glyph glyph-name="Racute" unicode="&#x154;" horiz-adv-x="725" 
d="M549 905h-171l-108 -145h136zM538 246v1q75 23 118 79q43 57 44 141q-2 111 -72 172q-71 60 -189 61h-376v-700h178v232h116l147 -232h198zM241 384v164h183q48 0 73 -19q25 -20 25 -62q0 -41 -26 -62t-72 -21h-183z" />
    <glyph glyph-name="racute" unicode="&#x155;" horiz-adv-x="467" 
d="M125 590h136l143 145h-171zM47 0h173v231q0 77 35 115q34 38 97 38q21 0 39 -2q18 -3 41 -8l30 154q-21 6 -44 10q-23 3 -51 3q-47 0 -86 -15q-40 -15 -69 -47h-2v51h-163v-530z" />
    <glyph glyph-name="uni0156" unicode="&#x156;" horiz-adv-x="725" 
d="M538 246v1q75 23 118 79q43 57 44 141q-2 111 -72 172q-71 60 -189 61h-376v-700h178v232h116l147 -232h198zM241 384v164h183q48 0 73 -19q25 -20 25 -62q0 -41 -26 -62t-72 -21h-183zM296 -182h52q1 -27 -10 -40q-10 -13 -38 -19v-66q70 6 105 43t35 101v113h-144v-132
z" />
    <glyph glyph-name="uni0157" unicode="&#x157;" horiz-adv-x="467" 
d="M47 0h173v231q0 77 35 115q34 38 97 38q21 0 39 -2q18 -3 41 -8l30 154q-21 6 -44 10q-23 3 -51 3q-47 0 -86 -15q-40 -15 -69 -47h-2v51h-163v-530zM66 -307q70 6 105 43t35 101v113h-144v-132h52q1 -27 -10 -40q-10 -13 -38 -19v-66z" />
    <glyph glyph-name="Rcaron" unicode="&#x158;" horiz-adv-x="725" 
d="M442 750l79 81l-81 72l-82 -87l-82 87l-81 -72l79 -81h168zM538 246v1q75 23 118 79q43 57 44 141q-2 111 -72 172q-71 60 -189 61h-376v-700h178v232h116l147 -232h198zM241 384v164h183q48 0 73 -19q25 -20 25 -62q0 -41 -26 -62t-72 -21h-183z" />
    <glyph glyph-name="rcaron" unicode="&#x159;" horiz-adv-x="467" 
d="M297 580l79 81l-81 72l-82 -87l-82 87l-81 -72l79 -81h168zM367 541q-47 0 -86 -15q-40 -15 -69 -47h-2v51h-163v-530h173v231q0 77 35 115q34 38 97 38q21 0 39 -2q18 -3 41 -8l30 154q-21 6 -44 10q-23 3 -51 3v0z" />
    <glyph glyph-name="Sacute" unicode="&#x15a;" horiz-adv-x="693" 
d="M242 778h136l143 145h-171zM369 -19q143 1 226 59t85 158q0 89 -68 143q-68 53 -202 83q-118 27 -158 44q-40 18 -37 41q1 30 31 47q31 18 84 18q61 0 101 -27q40 -26 58 -79l168 37q-26 99 -113 155q-87 57 -214 58q-134 -2 -213 -59q-78 -58 -80 -153q0 -81 64 -131
q63 -51 195 -80q125 -27 167 -50q42 -22 39 -51q0 -32 -35 -50q-34 -18 -97 -18q-81 0 -127 33q-45 33 -61 106l-169 -30q20 -122 112 -188q92 -65 244 -66v0z" />
    <glyph glyph-name="sacute" unicode="&#x15b;" horiz-adv-x="621" 
d="M214 609h136l143 145h-171zM324 -19q133 1 208 47t76 126q1 73 -62 114q-62 41 -198 62q-84 13 -114 24q-29 10 -27 27q0 17 23 27t65 10q52 0 90 -21q38 -20 52 -54l156 46q-25 72 -104 115q-79 44 -187 45q-119 -1 -189 -47q-69 -46 -71 -124q-1 -71 61 -112
q63 -41 201 -61q77 -11 107 -24q30 -12 29 -31q0 -17 -28 -27q-28 -9 -81 -9q-63 0 -102 24q-40 23 -54 68l-162 -46q24 -81 107 -130q84 -48 204 -49v0z" />
    <glyph glyph-name="Scircumflex" unicode="&#x15c;" horiz-adv-x="693" 
d="M330 846l82 -88l81 73l-79 80h-168l-79 -80l81 -73zM410 424q-118 27 -158 44q-40 18 -37 41q1 30 31 47q31 18 84 18q61 0 101 -27q40 -26 58 -79l168 37q-26 99 -113 155q-87 57 -214 58q-134 -2 -213 -59q-78 -58 -80 -153q0 -81 64 -131q63 -51 195 -80
q125 -27 167 -50q42 -22 39 -51q0 -32 -35 -50q-34 -18 -97 -18q-81 0 -127 33q-45 33 -61 106l-169 -30q20 -122 112 -188q92 -65 244 -66q143 1 226 59t85 158q0 89 -68 143q-68 53 -202 83v0z" />
    <glyph glyph-name="scircumflex" unicode="&#x15d;" horiz-adv-x="621" 
d="M302 677l82 -88l81 73l-79 80h-168l-79 -80l81 -73zM348 330q-84 13 -114 24q-29 10 -27 27q0 17 23 27t65 10q52 0 90 -21q38 -20 52 -54l156 46q-25 72 -104 115q-79 44 -187 45q-119 -1 -189 -47q-69 -46 -71 -124q-1 -71 61 -112q63 -41 201 -61q77 -11 107 -24
q30 -12 29 -31q0 -17 -28 -27q-28 -9 -81 -9q-63 0 -102 24q-40 23 -54 68l-162 -46q24 -81 107 -130q84 -48 204 -49q133 1 208 47t76 126q1 73 -62 114q-62 41 -198 62v0z" />
    <glyph glyph-name="Scedilla" unicode="&#x15e;" horiz-adv-x="693" 
d="M680 198q0 89 -68 143q-68 53 -202 83q-118 27 -158 44q-40 18 -37 41q1 30 31 47q31 18 84 18q61 0 101 -27q40 -26 58 -79l168 37q-26 99 -113 155q-87 57 -214 58q-134 -2 -213 -59q-78 -58 -80 -153q0 -81 64 -131q63 -51 195 -80q125 -27 167 -50q42 -22 39 -51
q0 -32 -35 -50q-34 -18 -97 -18q-81 0 -127 33q-45 33 -61 106l-169 -30q19 -111 97 -175q78 -65 206 -77l-59 -98l65 -26q25 19 55 19q20 0 32 -8t12 -21q0 -16 -13 -25q-12 -9 -35 -9q-18 0 -37 6q-18 5 -41 18l-44 -85q61 -33 133 -33q63 1 101 33q37 32 38 87
q-1 49 -33 78t-87 30q-7 0 -14 -1q-7 0 -14 -1l24 35q130 7 205 64t76 152v0z" />
    <glyph glyph-name="scedilla" unicode="&#x15f;" horiz-adv-x="621" 
d="M608 154q1 73 -62 114q-62 41 -198 62q-84 13 -114 24q-29 10 -27 27q0 17 23 27t65 10q52 0 90 -21q38 -20 52 -54l156 46q-25 72 -104 115q-79 44 -187 45q-119 -1 -189 -47q-69 -46 -71 -124q-1 -71 61 -112q63 -41 201 -61q77 -11 107 -24q30 -12 29 -31
q0 -17 -28 -27q-28 -9 -81 -9q-63 0 -102 24q-40 23 -54 68l-162 -46q21 -74 92 -120q71 -47 175 -57l-60 -99l65 -26q25 19 55 19q20 0 32 -8t12 -21q0 -16 -13 -25q-12 -9 -35 -9q-18 0 -37 6q-18 5 -41 18l-44 -85q61 -33 133 -33q63 1 101 33q37 32 38 87q-1 49 -33 78
t-87 30q-7 0 -14 -1q-7 0 -14 -1l25 36q116 7 180 53q64 45 65 119v0z" />
    <glyph glyph-name="Scaron" unicode="&#x160;" horiz-adv-x="693" 
d="M414 768l79 81l-81 72l-82 -87l-82 87l-81 -72l79 -81h168zM410 424q-118 27 -158 44q-40 18 -37 41q1 30 31 47q31 18 84 18q61 0 101 -27q40 -26 58 -79l168 37q-26 99 -113 155q-87 57 -214 58q-134 -2 -213 -59q-78 -58 -80 -153q0 -81 64 -131q63 -51 195 -80
q125 -27 167 -50q42 -22 39 -51q0 -32 -35 -50q-34 -18 -97 -18q-81 0 -127 33q-45 33 -61 106l-169 -30q20 -122 112 -188q92 -65 244 -66q143 1 226 59t85 158q0 89 -68 143q-68 53 -202 83v0z" />
    <glyph glyph-name="scaron" unicode="&#x161;" horiz-adv-x="621" 
d="M386 599l79 81l-81 72l-82 -87l-82 87l-81 -72l79 -81h168zM348 330q-84 13 -114 24q-29 10 -27 27q0 17 23 27t65 10q52 0 90 -21q38 -20 52 -54l156 46q-25 72 -104 115q-79 44 -187 45q-119 -1 -189 -47q-69 -46 -71 -124q-1 -71 61 -112q63 -41 201 -61
q77 -11 107 -24q30 -12 29 -31q0 -17 -28 -27q-28 -9 -81 -9q-63 0 -102 24q-40 23 -54 68l-162 -46q24 -81 107 -130q84 -48 204 -49q133 1 208 47t76 126q1 73 -62 114q-62 41 -198 62v0z" />
    <glyph glyph-name="uni0162" unicode="&#x162;" horiz-adv-x="704" 
d="M440 0v545h246v155h-668v-155h244v-545h36l-58 -96l65 -26q25 19 55 19q20 0 32 -8t12 -21q0 -16 -13 -25q-12 -9 -35 -9q-18 0 -37 6q-18 5 -41 18l-44 -85q61 -33 133 -33q63 1 101 33q37 32 38 87q-1 49 -33 78t-87 30q-7 0 -14 -1q-7 0 -14 -1l23 34h59z" />
    <glyph glyph-name="uni0163" unicode="&#x163;" horiz-adv-x="486" 
d="M469 391v139h-169v137h-173v-137h-125v-139h125v-207q0 -68 25 -111q25 -42 79 -60l-66 -109l65 -26q25 19 55 19q20 0 32 -8t12 -21q0 -16 -13 -25q-12 -9 -35 -9q-18 0 -37 6q-18 5 -41 18l-44 -85q61 -33 133 -33q63 1 101 33q37 32 38 87q-1 49 -33 78t-87 30
q-7 0 -14 -1q-7 0 -14 -1l24 34h17h125v156h-99q-27 0 -39 10q-11 10 -11 34v191h169z" />
    <glyph glyph-name="Tcaron" unicode="&#x164;" horiz-adv-x="704" 
d="M436 750l79 81l-81 72l-82 -87l-82 87l-81 -72l79 -81h168zM18 700v-155h244v-545h178v545h246v155h-668z" />
    <glyph glyph-name="tcaron" unicode="&#x165;" horiz-adv-x="480" 
d="M354 831v-132h52q1 -27 -10 -40q-10 -13 -38 -19v-66q70 6 105 43t35 101v113h-144zM300 667h-173v-137h-125v-139h125v-207q-1 -92 47 -138q47 -46 150 -46h125v156h-99q-27 0 -39 10q-11 10 -11 34v191h169v139h-169v137z" />
    <glyph glyph-name="Tbar" unicode="&#x166;" horiz-adv-x="704" 
d="M686 545v155h-668v-155h244v-157h-129v-131h129v-257h178v257h129v131h-129v157h246z" />
    <glyph glyph-name="tbar" unicode="&#x167;" horiz-adv-x="486" 
d="M469 391v139h-169v137h-173v-137h-125v-139h125v-58h-105v-104h105v-45q-1 -92 47 -138q47 -46 150 -46h125v156h-99q-27 0 -39 10q-11 10 -11 34v29h160v104h-160v58h169z" />
    <glyph glyph-name="Utilde" unicode="&#x168;" horiz-adv-x="769" 
d="M468 754q52 0 84 34q31 34 35 97h-83q-4 -17 -15 -26q-11 -8 -28 -8q-31 3 -70 20q-38 18 -88 20q-54 0 -85 -34q-32 -34 -35 -97h83q5 19 15 27q11 9 27 9q32 -3 71 -21q38 -18 89 -21v0zM385 -19q155 1 240 75t86 214v430h-178v-417q0 -75 -37 -111q-37 -35 -111 -35
t-112 35q-37 36 -37 111v417h-178v-430q1 -140 86 -214t241 -75v0z" />
    <glyph glyph-name="utilde" unicode="&#x169;" horiz-adv-x="667" 
d="M413 584q52 0 84 34q31 34 35 97h-83q-4 -17 -15 -26q-11 -8 -28 -8q-31 3 -70 20q-38 18 -88 20q-54 0 -85 -34q-32 -34 -35 -97h83q5 19 15 27q11 9 27 9q32 -3 71 -21q38 -18 89 -21v0zM280 -15q55 0 99 16q43 16 75 50h2v-51h168v530h-173v-270q-1 -55 -34 -87
q-34 -32 -91 -33q-60 0 -88 30q-28 29 -28 90v270h-173v-307q1 -111 65 -174t178 -64v0z" />
    <glyph glyph-name="Umacron" unicode="&#x16a;" horiz-adv-x="769" 
d="M201 760h366v99h-366v-99zM385 -19q155 1 240 75t86 214v430h-178v-417q0 -75 -37 -111q-37 -35 -111 -35t-112 35q-37 36 -37 111v417h-178v-430q1 -140 86 -214t241 -75v0z" />
    <glyph glyph-name="umacron" unicode="&#x16b;" horiz-adv-x="667" 
d="M146 590h366v99h-366v-99zM280 -15q55 0 99 16q43 16 75 50h2v-51h168v530h-173v-270q-1 -55 -34 -87q-34 -32 -91 -33q-60 0 -88 30q-28 29 -28 90v270h-173v-307q1 -111 65 -174t178 -64v0z" />
    <glyph glyph-name="Ubreve" unicode="&#x16c;" horiz-adv-x="769" 
d="M386 750q73 1 118 39q46 38 56 107h-89q-8 -22 -30 -34q-23 -13 -55 -13q-33 0 -55 13q-23 12 -32 34h-88q10 -69 56 -107t119 -39v0zM385 -19q155 1 240 75t86 214v430h-178v-417q0 -75 -37 -111q-37 -35 -111 -35t-112 35q-37 36 -37 111v417h-178v-430q1 -140 86 -214
t241 -75v0z" />
    <glyph glyph-name="ubreve" unicode="&#x16d;" horiz-adv-x="667" 
d="M331 580q73 1 118 39q46 38 56 107h-89q-8 -22 -30 -34q-23 -13 -55 -13q-33 0 -55 13q-23 12 -32 34h-88q10 -69 56 -107t119 -39v0zM280 -15q55 0 99 16q43 16 75 50h2v-51h168v530h-173v-270q-1 -55 -34 -87q-34 -32 -91 -33q-60 0 -88 30q-28 29 -28 90v270h-173
v-307q1 -111 65 -174t178 -64v0z" />
    <glyph glyph-name="Uring" unicode="&#x16e;" horiz-adv-x="769" 
d="M387 694q72 1 117 40q45 40 46 103q-1 63 -46 103q-45 39 -117 40q-71 -1 -116 -40q-45 -40 -46 -103q1 -63 46 -103q45 -39 116 -40v0zM387 771q-30 0 -48 18t-19 48q1 30 19 48t48 18t49 -18q18 -18 18 -48t-18 -48q-19 -18 -49 -18v0zM385 -19q155 1 240 75t86 214
v430h-178v-417q0 -75 -37 -111q-37 -35 -111 -35t-112 35q-37 36 -37 111v417h-178v-430q1 -140 86 -214t241 -75v0z" />
    <glyph glyph-name="uring" unicode="&#x16f;" horiz-adv-x="667" 
d="M339 544q72 1 117 40q45 40 46 103q-1 63 -46 103q-45 39 -117 40q-71 -1 -116 -40q-45 -40 -46 -103q1 -63 46 -103q45 -39 116 -40v0zM339 621q-30 0 -48 18t-19 48q1 30 19 48t48 18t49 -18q18 -18 18 -48t-18 -48q-19 -18 -49 -18v0zM280 -15q55 0 99 16q43 16 75 50
h2v-51h168v530h-173v-270q-1 -55 -34 -87q-34 -32 -91 -33q-60 0 -88 30q-28 29 -28 90v270h-173v-307q1 -111 65 -174t178 -64v0z" />
    <glyph glyph-name="Uhungarumlaut" unicode="&#x170;" horiz-adv-x="769" 
d="M191 760h125l141 145h-160zM406 760h125l141 145h-161zM385 -19q155 1 240 75t86 214v430h-178v-417q0 -75 -37 -111q-37 -35 -111 -35t-112 35q-37 36 -37 111v417h-178v-430q1 -140 86 -214t241 -75v0z" />
    <glyph glyph-name="uhungarumlaut" unicode="&#x171;" horiz-adv-x="667" 
d="M136 590h125l141 145h-160zM351 590h125l141 145h-161zM280 -15q55 0 99 16q43 16 75 50h2v-51h168v530h-173v-270q-1 -55 -34 -87q-34 -32 -91 -33q-60 0 -88 30q-28 29 -28 90v270h-173v-307q1 -111 65 -174t178 -64v0z" />
    <glyph glyph-name="Uogonek" unicode="&#x172;" horiz-adv-x="769" 
d="M533 700v-417q0 -75 -37 -111q-37 -35 -111 -35t-112 35q-37 36 -37 111v417h-178v-430q1 -140 86 -214t241 -75h17q-31 -26 -44 -52q-14 -27 -14 -53q1 -46 31 -69q31 -24 84 -24q60 0 111 26l-38 93q-14 -8 -28 -12t-26 -4q-13 0 -19 7q-7 6 -7 18q0 18 15 40
q16 21 51 48q93 28 143 97q49 68 50 174v430h-178z" />
    <glyph glyph-name="uogonek" unicode="&#x173;" horiz-adv-x="667" 
d="M605 -98q-14 -8 -28 -12t-26 -4q-13 0 -19 7q-7 6 -7 18q0 18 16 40t52 49h31v530h-173v-270q-1 -55 -34 -87q-34 -32 -91 -33q-60 0 -88 30q-28 29 -28 90v270h-173v-307q1 -111 65 -174t178 -64q55 0 99 16q43 16 75 50h2v-51h44q-44 -29 -64 -61q-19 -31 -19 -63
q1 -46 31 -69q31 -24 84 -24q60 0 111 26z" />
    <glyph glyph-name="Wcircumflex" unicode="&#x174;" horiz-adv-x="1081" 
d="M540 828l82 -88l81 73l-79 80h-168l-79 -80l81 -73zM890 700l-110 -455h-2l-168 455h-140l-167 -455h-2l-110 455h-184l177 -700h185l170 447h2l169 -447h187l177 700h-184z" />
    <glyph glyph-name="wcircumflex" unicode="&#x175;" horiz-adv-x="965" 
d="M483 658l82 -88l81 73l-79 80h-168l-79 -80l81 -73zM778 530l-84 -321h-2l-134 321h-151l-133 -321h-2l-85 321h-175l149 -530h175l146 350h2l145 -350h175l150 530h-176z" />
    <glyph glyph-name="Ycircumflex" unicode="&#x176;" horiz-adv-x="742" 
d="M371 828l82 -88l81 73l-79 80h-168l-79 -80l81 -73zM549 700l-177 -275h-2l-178 275h-206l296 -427v-273h178v273l295 427h-206z" />
    <glyph glyph-name="ycircumflex" unicode="&#x177;" horiz-adv-x="683" 
d="M342 658l82 -88l81 73l-79 80h-168l-79 -80l81 -73zM494 530l-150 -333h-2l-151 333h-193l250 -505l-122 -250h191l369 755h-192z" />
    <glyph glyph-name="Ydieresis" unicode="&#x178;" horiz-adv-x="742" 
d="M188 750h139v138h-139v-138zM414 750h139v138h-139v-138zM282 0h178v273l295 427h-206l-177 -275h-2l-178 275h-206l296 -427v-273z" />
    <glyph glyph-name="Zacute" unicode="&#x179;" horiz-adv-x="709" 
d="M273 760h136l143 145h-171zM32 0h640v155h-393v2l398 406v137h-633v-155h385v-2l-397 -406v-137z" />
    <glyph glyph-name="zacute" unicode="&#x17a;" horiz-adv-x="636" 
d="M230 590h136l143 145h-171zM22 0h592v139h-339v2l329 264v125h-573v-139h320v-2l-329 -264v-125z" />
    <glyph glyph-name="Zdotaccent" unicode="&#x17b;" horiz-adv-x="709" 
d="M292 760h138v137h-138v-137zM32 0h640v155h-393v2l398 406v137h-633v-155h385v-2l-397 -406v-137z" />
    <glyph glyph-name="zdotaccent" unicode="&#x17c;" horiz-adv-x="636" 
d="M231 612h173v162h-173v-162zM22 0h592v139h-339v2l329 264v125h-573v-139h320v-2l-329 -264v-125z" />
    <glyph glyph-name="Zcaron" unicode="&#x17d;" horiz-adv-x="709" 
d="M445 750l79 81l-81 72l-82 -87l-82 87l-81 -72l79 -81h168zM677 563v137h-633v-155h385v-2l-397 -406v-137h640v155h-393v2z" />
    <glyph glyph-name="zcaron" unicode="&#x17e;" horiz-adv-x="636" 
d="M402 580l79 81l-81 72l-82 -87l-82 87l-81 -72l79 -81h168zM275 139v2l329 264v125h-573v-139h320v-2l-329 -264v-125h592v139h-339z" />
    <glyph glyph-name="longs" unicode="&#x17f;" horiz-adv-x="395" 
d="M115 0h173v564q0 19 10 29t31 10h104v138h-135q-88 -1 -135 -42q-48 -42 -48 -118v-51h-113v-138h113v-392z" />
    <glyph glyph-name="uni018E" unicode="&#x18e;" horiz-adv-x="641" 
d="M578 0v700h-540v-155h362v-119h-328v-143h328v-128h-363v-155h541z" />
    <glyph glyph-name="uni018F" unicode="&#x18f;" horiz-adv-x="773" 
d="M385 -19q164 3 263 103q99 101 102 266q-2 167 -101 267t-264 102q-117 -1 -203 -52q-85 -52 -128 -143l160 -69q24 53 67 80q43 28 104 28q75 -1 122 -40q46 -38 58 -106h-542v-66q2 -169 100 -269q98 -99 262 -101v0zM385 137q-74 1 -123 39q-48 39 -54 106h357
q-8 -67 -58 -105q-49 -39 -122 -40v0z" />
    <glyph glyph-name="florin" unicode="&#x192;" horiz-adv-x="555" 
d="M359 530l4 28q3 23 17 34q13 11 38 11h112v138h-129q-88 0 -140 -40q-52 -41 -67 -125l-8 -46h-168v-139h144l-70 -401l-4 -24q-4 -23 -18 -34q-13 -11 -37 -11h-92v-139h109q88 0 140 41q53 40 67 125l78 443h197v139h-173z" />
    <glyph glyph-name="uni01CD" unicode="&#x1cd;" horiz-adv-x="773" 
d="M471 750l79 81l-81 72l-82 -87l-82 87l-81 -72l79 -81h168zM598 0h184l-313 700h-165l-313 -700h185l43 104h336zM281 255l105 255h2l105 -255h-212z" />
    <glyph glyph-name="uni01CE" unicode="&#x1ce;" horiz-adv-x="606" 
d="M386 599l79 81l-81 72l-82 -87l-82 87l-81 -72l79 -81h168zM302 549q-110 -1 -186 -53q-76 -51 -92 -136l158 -28q10 42 42 66q33 24 83 24q39 0 62 -13q22 -13 23 -35q1 -19 -27 -31q-28 -13 -101 -23q-126 -17 -183 -58t-56 -113q1 -76 55 -119q54 -44 148 -45
q59 0 105 18q46 17 76 50h2v-53h157v330q-1 102 -71 160q-71 58 -195 59v0zM401 201q-1 -35 -40 -58q-38 -24 -95 -25q-37 0 -56 10q-18 10 -18 30q-1 20 24 33q24 12 83 24q47 9 70 18t30 21h2v-53z" />
    <glyph glyph-name="uni01CF" unicode="&#x1cf;" horiz-adv-x="304" 
d="M236 750l79 81l-81 72l-82 -87l-82 87l-81 -72l79 -81h168zM63 0h178v700h-178v-700z" />
    <glyph glyph-name="uni01D0" unicode="&#x1d0;" horiz-adv-x="259" 
d="M213 580l79 81l-81 72l-82 -87l-82 87l-81 -72l79 -81h168zM43 0h173v530h-173v-530z" />
    <glyph glyph-name="uni01D1" unicode="&#x1d1;" horiz-adv-x="794" 
d="M481 769l79 81l-81 72l-82 -87l-82 87l-81 -72l79 -81h168zM397 719q-166 -3 -269 -103q-102 -101 -105 -266q3 -165 105 -266q103 -100 269 -103q166 3 269 103q102 101 105 266q-3 165 -105 266q-103 100 -269 103v0zM397 137q-90 1 -142 59q-53 57 -54 154
q1 98 54 155q52 57 142 58q90 -1 143 -58q52 -57 53 -155q-1 -97 -53 -154q-53 -58 -143 -59v0z" />
    <glyph glyph-name="uni01D2" unicode="&#x1d2;" horiz-adv-x="662" 
d="M415 599l79 81l-81 72l-82 -87l-82 87l-81 -72l79 -81h168zM331 549q-137 -2 -221 -80q-85 -79 -87 -204q2 -125 87 -203q84 -79 221 -81q137 2 221 81q85 78 87 203q-2 125 -87 204q-84 78 -221 80v0zM331 132q-63 1 -99 38q-35 37 -36 95q1 59 36 95q36 37 99 38
q62 -1 98 -38q36 -36 37 -95q-1 -58 -37 -95t-98 -38v0z" />
    <glyph glyph-name="uni01D3" unicode="&#x1d3;" horiz-adv-x="769" 
d="M469 750l79 81l-81 72l-82 -87l-82 87l-81 -72l79 -81h168zM533 700v-417q0 -75 -37 -111q-37 -35 -111 -35t-112 35q-37 36 -37 111v417h-178v-430q1 -140 86 -214t241 -75q155 1 240 75t86 214v430h-178z" />
    <glyph glyph-name="uni01D4" unicode="&#x1d4;" horiz-adv-x="667" 
d="M414 580l79 81l-81 72l-82 -87l-82 87l-81 -72l79 -81h168zM451 530v-270q-1 -55 -34 -87q-34 -32 -91 -33q-60 0 -88 30q-28 29 -28 90v270h-173v-307q1 -111 65 -174t178 -64q55 0 99 16q43 16 75 50h2v-51h168v530h-173z" />
    <glyph glyph-name="uni01D5" unicode="&#x1d5;" horiz-adv-x="769" 
d="M201 928h366v99h-366v-99zM202 750h139v138h-139v-138zM428 750h139v138h-139v-138zM385 -19q155 1 240 75t86 214v430h-178v-417q0 -75 -37 -111q-37 -35 -111 -35t-112 35q-37 36 -37 111v417h-178v-430q1 -140 86 -214t241 -75v0z" />
    <glyph glyph-name="uni01D6" unicode="&#x1d6;" horiz-adv-x="667" 
d="M146 758h366v99h-366v-99zM147 580h139v138h-139v-138zM373 580h139v138h-139v-138zM280 -15q55 0 99 16q43 16 75 50h2v-51h168v530h-173v-270q-1 -55 -34 -87q-34 -32 -91 -33q-60 0 -88 30q-28 29 -28 90v270h-173v-307q1 -111 65 -174t178 -64v0z" />
    <glyph glyph-name="uni01D7" unicode="&#x1d7;" horiz-adv-x="769" 
d="M297 928h136l143 145h-171zM202 750h139v138h-139v-138zM428 750h139v138h-139v-138zM385 -19q155 1 240 75t86 214v430h-178v-417q0 -75 -37 -111q-37 -35 -111 -35t-112 35q-37 36 -37 111v417h-178v-430q1 -140 86 -214t241 -75v0z" />
    <glyph glyph-name="uni01D8" unicode="&#x1d8;" horiz-adv-x="667" 
d="M242 758h136l143 145h-171zM147 580h139v138h-139v-138zM373 580h139v138h-139v-138zM280 -15q55 0 99 16q43 16 75 50h2v-51h168v530h-173v-270q-1 -55 -34 -87q-34 -32 -91 -33q-60 0 -88 30q-28 29 -28 90v270h-173v-307q1 -111 65 -174t178 -64v0z" />
    <glyph glyph-name="uni01D9" unicode="&#x1d9;" horiz-adv-x="769" 
d="M469 918l79 81l-81 72l-82 -87l-82 87l-81 -72l79 -81h168zM341 888h-139v-138h139v138zM428 750h139v138h-139v-138zM533 700v-417q0 -75 -37 -111q-37 -35 -111 -35t-112 35q-37 36 -37 111v417h-178v-430q1 -140 86 -214t241 -75q155 1 240 75t86 214v430h-178z" />
    <glyph glyph-name="uni01DA" unicode="&#x1da;" horiz-adv-x="667" 
d="M414 748l79 81l-81 72l-82 -87l-82 87l-81 -72l79 -81h168zM286 718h-139v-138h139v138zM373 580h139v138h-139v-138zM451 530v-270q-1 -55 -34 -87q-34 -32 -91 -33q-60 0 -88 30q-28 29 -28 90v270h-173v-307q1 -111 65 -174t178 -64q55 0 99 16q43 16 75 50h2v-51h168
v530h-173z" />
    <glyph glyph-name="uni01DB" unicode="&#x1db;" horiz-adv-x="769" 
d="M333 928h135l-108 145h-171zM202 750h139v138h-139v-138zM428 750h139v138h-139v-138zM385 -19q155 1 240 75t86 214v430h-178v-417q0 -75 -37 -111q-37 -35 -111 -35t-112 35q-37 36 -37 111v417h-178v-430q1 -140 86 -214t241 -75v0z" />
    <glyph glyph-name="uni01DC" unicode="&#x1dc;" horiz-adv-x="667" 
d="M278 758h135l-108 145h-171zM147 580h139v138h-139v-138zM373 580h139v138h-139v-138zM280 -15q55 0 99 16q43 16 75 50h2v-51h168v530h-173v-270q-1 -55 -34 -87q-34 -32 -91 -33q-60 0 -88 30q-28 29 -28 90v270h-173v-307q1 -111 65 -174t178 -64v0z" />
    <glyph glyph-name="uni01DE" unicode="&#x1de;" horiz-adv-x="773" 
d="M569 1027h-366v-99h366v99zM343 750v138h-139v-138h139zM569 750v138h-139v-138h139zM598 0h184l-313 700h-165l-313 -700h185l43 104h336zM281 255l105 255h2l105 -255h-212z" />
    <glyph glyph-name="uni01DF" unicode="&#x1df;" horiz-adv-x="606" 
d="M118 777h366v99h-366v-99zM119 599h139v138h-139v-138zM345 599h139v138h-139v-138zM228 -15q59 0 105 18q46 17 76 50h2v-53h157v330q-1 102 -71 160q-71 58 -195 59q-110 -1 -186 -53q-76 -51 -92 -136l158 -28q10 42 42 66q33 24 83 24q39 0 62 -13q22 -13 23 -35
q1 -19 -27 -31q-28 -13 -101 -23q-126 -17 -183 -58t-56 -113q1 -76 55 -119q54 -44 148 -45v0zM266 118q-37 0 -56 10q-18 10 -18 30q-1 20 24 33q24 12 83 24q47 9 70 18t30 21h2v-53q-1 -35 -40 -58q-38 -24 -95 -25v0z" />
    <glyph glyph-name="Aringacute" unicode="&#x1fa;" horiz-adv-x="773" 
d="M598 0h184l-292 653q28 19 44 48t16 65q-1 48 -27 83q-27 34 -73 50l128 130h-171l-103 -139q-36 -18 -57 -50q-22 -32 -22 -74q0 -35 16 -64q15 -29 42 -48l-292 -654h185l43 104h336zM387 700q-30 0 -48 18t-19 48q1 30 19 48t48 18t49 -18q18 -18 18 -48t-18 -48
q-19 -18 -49 -18v0zM281 255l105 255h2l105 -255h-212z" />
    <glyph glyph-name="aringacute" unicode="&#x1fb;" horiz-adv-x="616" 
d="M301 570q64 1 105 36q40 35 41 92q0 38 -19 67q-18 28 -51 45l132 133h-171l-93 -125q-41 -14 -65 -45q-24 -32 -25 -75q1 -57 42 -92q40 -35 104 -36v0zM301 639q-27 0 -44 16q-16 16 -17 43q1 27 17 43q17 17 44 17t44 -17q16 -16 16 -43t-16 -43q-17 -16 -44 -16v0z
M302 549q-110 -1 -186 -53q-76 -51 -92 -136l158 -28q10 42 42 66q33 24 83 24q39 0 62 -13q22 -13 23 -35q1 -19 -27 -31q-28 -13 -101 -23q-126 -17 -183 -58t-56 -113q1 -76 55 -119q54 -44 148 -45q59 0 105 18q46 17 76 50h2v-53h157v330q-1 102 -71 160
q-71 58 -195 59v0zM401 201q-1 -35 -40 -58q-38 -24 -95 -25q-37 0 -56 10q-18 10 -18 30q-1 20 24 33q24 12 83 24q47 9 70 18t30 21h2v-53z" />
    <glyph glyph-name="AEacute" unicode="&#x1fc;" horiz-adv-x="1026" 
d="M707 905h-171l-108 -145h136zM695 146v140h260v138h-260v130h294v146h-668l-330 -700h191l49 107h295v-107h464v146h-295zM298 251l139 303h89v-303h-228z" />
    <glyph glyph-name="aeacute" unicode="&#x1fd;" horiz-adv-x="983" 
d="M684 735h-171l-108 -145h136zM960 264q-2 126 -80 204q-78 79 -205 81q-56 0 -102 -17q-47 -17 -85 -50q-31 32 -79 50q-48 17 -111 17q-105 -1 -179 -49t-96 -131l151 -38q10 42 43 67q32 24 81 24q43 0 63 -14q20 -13 20 -36q-22 -50 -176 -64q-155 -15 -177 -162
q1 -75 57 -120q55 -44 152 -45q156 0 227 87q39 -43 95 -65t127 -22q76 0 137 27q61 26 111 78l-95 105q-39 -40 -77 -58q-37 -18 -78 -18q-60 0 -94 26q-35 26 -39 73h409v50zM552 327q5 42 39 67q34 24 87 25q52 0 84 -25q33 -24 39 -67h-249zM388 193q-2 -33 -39 -56
t-90 -24q-37 0 -55 10q-19 11 -19 33q10 43 89 54q80 10 112 44h2v-61z" />
    <glyph glyph-name="Oslashacute" unicode="&#x1fe;" horiz-adv-x="794" 
d="M588 924h-171l-108 -145h136zM681 599l48 54l-75 60l-46 -52q-44 28 -98 43q-53 15 -113 15q-166 -3 -269 -103q-102 -101 -105 -266q0 -75 24 -138q23 -63 65 -111l-48 -55l74 -59l47 52q44 -28 98 -43q53 -15 114 -15q166 3 269 103q102 101 105 266q0 75 -24 138
q-23 63 -66 111v0zM196 350q1 100 55 159t146 60q30 0 57 -7q26 -7 49 -20l-278 -314q-29 51 -29 122v0zM397 131q-31 0 -58 7q-26 7 -49 21l279 314q14 -26 22 -57q7 -31 7 -66q-1 -100 -55 -159q-53 -59 -146 -60v0z" />
    <glyph glyph-name="oslashacute" unicode="&#x1ff;" horiz-adv-x="663" 
d="M523 754h-171l-108 -145h136zM570 451l46 47l-54 54l-51 -52q-38 23 -83 36t-96 13q-137 -2 -222 -80q-84 -79 -87 -204q0 -55 19 -102q18 -47 51 -84l-46 -47l55 -54l51 51q37 -23 82 -35q46 -13 97 -13q136 2 221 81q84 78 87 203q0 55 -18 102q-19 47 -52 84v0z
M191 265q1 61 38 100q37 38 103 39q39 0 68 -15l-192 -195q-17 32 -17 71v0zM332 126q-39 0 -69 15l192 195q17 -32 17 -71q-1 -61 -38 -99q-37 -39 -102 -40v0z" />
    <glyph glyph-name="uni0218" unicode="&#x218;" horiz-adv-x="693" 
d="M369 -19q143 1 226 59t85 158q0 89 -68 143q-68 53 -202 83q-118 27 -158 44q-40 18 -37 41q1 30 31 47q31 18 84 18q61 0 101 -27q40 -26 58 -79l168 37q-26 99 -113 155q-87 57 -214 58q-134 -2 -213 -59q-78 -58 -80 -153q0 -81 64 -131q63 -51 195 -80
q125 -27 167 -50q42 -22 39 -51q0 -32 -35 -50q-34 -18 -97 -18q-81 0 -127 33q-45 33 -61 106l-169 -30q20 -122 112 -188q92 -65 244 -66v0zM301 -326q70 6 105 43t35 101v113h-144v-132h52q1 -27 -10 -40q-10 -13 -38 -19v-66z" />
    <glyph glyph-name="uni0219" unicode="&#x219;" horiz-adv-x="621" 
d="M324 -19q133 1 208 47t76 126q1 73 -62 114q-62 41 -198 62q-84 13 -114 24q-29 10 -27 27q0 17 23 27t65 10q52 0 90 -21q38 -20 52 -54l156 46q-25 72 -104 115q-79 44 -187 45q-119 -1 -189 -47q-69 -46 -71 -124q-1 -71 61 -112q63 -41 201 -61q77 -11 107 -24
q30 -12 29 -31q0 -17 -28 -27q-28 -9 -81 -9q-63 0 -102 24q-40 23 -54 68l-162 -46q24 -81 107 -130q84 -48 204 -49v0zM264 -327q70 6 105 43t35 101v113h-144v-132h52q1 -27 -10 -40q-10 -13 -38 -19v-66z" />
    <glyph glyph-name="uni021A" unicode="&#x21a;" horiz-adv-x="704" 
d="M262 0h178v545h246v155h-668v-155h244v-545zM284 -307q70 6 105 43t35 101v113h-144v-132h52q1 -27 -10 -40q-10 -13 -38 -19v-66z" />
    <glyph glyph-name="uni021B" unicode="&#x21b;" horiz-adv-x="486" 
d="M469 391v139h-169v137h-173v-137h-125v-139h125v-207q-1 -92 47 -138q47 -46 150 -46h125v156h-99q-27 0 -39 10q-11 10 -11 34v191h169zM205 -182h52q1 -27 -10 -40q-10 -13 -38 -19v-66q70 6 105 43t35 101v113h-144v-132z" />
    <glyph glyph-name="uni0228" unicode="&#x228;" horiz-adv-x="641" 
d="M604 0v155h-363v128h328v143h-328v119h362v155h-540v-700h217l-58 -96l65 -26q25 19 55 19q20 0 32 -8t12 -21q0 -16 -13 -25q-12 -9 -35 -9q-18 0 -37 6q-18 5 -41 18l-44 -85q61 -33 133 -33q63 1 101 33q37 32 38 87q-1 49 -33 78t-87 30q-7 0 -14 -1q-7 0 -14 -1
l23 34h241z" />
    <glyph glyph-name="uni0229" unicode="&#x229;" horiz-adv-x="644" 
d="M621 264q-2 124 -83 203t-215 82q-132 -3 -214 -81q-83 -79 -86 -204q1 -117 68 -191q66 -74 185 -89l-60 -99l65 -26q25 19 55 19q20 0 32 -8t12 -21q0 -16 -13 -25q-12 -9 -35 -9q-18 0 -37 6q-18 5 -41 18l-44 -85q61 -33 133 -33q63 1 101 33q37 32 38 87
q-1 49 -33 78t-87 30q-7 0 -14 -1q-7 0 -14 -1l24 35q71 4 127 29q57 24 105 70l-96 110q-40 -37 -79 -56q-40 -18 -81 -18q-64 0 -100 26q-36 25 -40 70h427v51zM195 327q6 41 41 66q35 24 89 25q55 0 89 -24q33 -24 39 -67h-258z" />
    <glyph glyph-name="uni0237" unicode="&#x237;" horiz-adv-x="270" 
d="M-87 -223h103q111 -1 161 49q51 49 50 159v545h-173v-543q0 -25 -13 -38q-12 -12 -40 -12h-88v-160z" />
    <glyph glyph-name="uni0258" unicode="&#x258;" horiz-adv-x="644" 
d="M316 -19q142 2 223 77q80 76 82 206q-3 125 -85 204q-83 78 -215 81q-134 -3 -215 -82t-83 -203v-51h427q-4 -45 -40 -70q-36 -26 -100 -26q-41 0 -81 18q-39 19 -79 56l-96 -110q53 -50 117 -75q63 -25 145 -25v0zM449 327h-258q6 43 39 67q34 24 89 24q54 -1 89 -25
q35 -25 41 -66v0z" />
    <glyph glyph-name="uni0259" unicode="&#x259;" horiz-adv-x="644" 
d="M321 -19q132 3 215 81q82 79 85 204q-1 130 -82 206q-81 75 -223 77q-82 0 -145 -26t-116 -74l95 -110q40 37 80 56q39 18 80 18q64 0 100 -25t40 -71h-427v-51q2 -124 83 -203t215 -82v0zM319 112q-55 0 -88 24q-34 24 -40 67h258q-6 -41 -41 -66q-35 -24 -89 -25v0z
" />
    <glyph glyph-name="circumflex" unicode="&#x2c6;" horiz-adv-x="412" 
d="M369 643l-79 80h-168l-79 -80l81 -73l82 88l82 -88z" />
    <glyph glyph-name="caron" unicode="&#x2c7;" horiz-adv-x="412" 
d="M288 733l-82 -87l-82 87l-81 -72l79 -81h168l79 81z" />
    <glyph glyph-name="breve" unicode="&#x2d8;" horiz-adv-x="410" 
d="M218 580q73 1 118 39q46 38 56 107h-89q-8 -22 -30 -34q-23 -13 -55 -13q-33 0 -55 13q-23 12 -32 34h-88q10 -69 56 -107t119 -39v0z" />
    <glyph glyph-name="dotaccent" unicode="&#x2d9;" horiz-adv-x="224" 
d="M43 590h138v137h-138v-137z" />
    <glyph glyph-name="ring" unicode="&#x2da;" horiz-adv-x="411" 
d="M205 453q72 1 117 40q45 40 46 103q-1 63 -46 103q-45 39 -117 40q-71 -1 -116 -40q-45 -40 -46 -103q1 -63 46 -103q45 -39 116 -40v0zM205 530q-30 0 -48 18t-19 48q1 30 19 48t48 18t49 -18q18 -18 18 -48t-18 -48q-19 -18 -49 -18v0z" />
    <glyph glyph-name="ogonek" unicode="&#x2db;" horiz-adv-x="312" 
d="M158 -217q60 0 111 26l-38 93q-14 -8 -28 -12t-26 -4q-13 0 -19 7q-7 6 -7 18q0 18 16 40t52 49l-68 15q-57 -32 -83 -68q-25 -35 -25 -71q1 -46 31 -69q31 -24 84 -24v0z" />
    <glyph glyph-name="tilde" unicode="&#x2dc;" horiz-adv-x="463" 
d="M328 584q52 0 84 34q31 34 35 97h-83q-4 -17 -15 -26q-11 -8 -28 -8q-31 3 -70 20q-38 18 -88 20q-54 0 -85 -34q-32 -34 -35 -97h83q5 19 15 27q11 9 27 9q32 -3 71 -21q38 -18 89 -21v0z" />
    <glyph glyph-name="hungarumlaut" unicode="&#x2dd;" horiz-adv-x="574" 
d="M43 590h125l141 145h-160zM258 590h125l141 145h-161z" />
    <glyph glyph-name="gravecomb" unicode="&#x300;" horiz-adv-x="0" 
d="M-135 590h135l-108 145h-171z" />
    <glyph glyph-name="acutecomb" unicode="&#x301;" horiz-adv-x="0" 
d="M-279 590h136l143 145h-171z" />
    <glyph glyph-name="uni0302" unicode="&#x302;" horiz-adv-x="0" 
d="M0 643l-79 80h-168l-79 -80l81 -73l82 88l82 -88z" />
    <glyph glyph-name="tildecomb" unicode="&#x303;" horiz-adv-x="0" 
d="M-119 584q52 0 84 34q31 34 35 97h-83q-4 -17 -15 -26q-11 -8 -28 -8q-31 3 -70 20q-38 18 -88 20q-54 0 -85 -34q-32 -34 -35 -97h83q5 19 15 27q11 9 27 9q32 -3 71 -21q38 -18 89 -21v0z" />
    <glyph glyph-name="uni0304" unicode="&#x304;" horiz-adv-x="0" 
d="M-366 590h366v99h-366v-99z" />
    <glyph glyph-name="uni0306" unicode="&#x306;" horiz-adv-x="0" 
d="M-174 580q73 1 118 39q46 38 56 107h-89q-8 -22 -30 -34q-23 -13 -55 -13q-33 0 -55 13q-23 12 -32 34h-88q10 -69 56 -107t119 -39v0z" />
    <glyph glyph-name="uni0307" unicode="&#x307;" horiz-adv-x="0" 
d="M-138 590h138v137h-138v-137z" />
    <glyph glyph-name="uni0308" unicode="&#x308;" horiz-adv-x="0" 
d="M-365 580h139v138h-139v-138zM-139 580h139v138h-139v-138z" />
    <glyph glyph-name="uni030A" unicode="&#x30a;" horiz-adv-x="0" 
d="M-163 453q72 1 117 40q45 40 46 103q-1 63 -46 103q-45 39 -117 40q-71 -1 -116 -40q-45 -40 -46 -103q1 -63 46 -103q45 -39 116 -40v0zM-163 530q-30 0 -48 18t-19 48q1 30 19 48t48 18t49 -18q18 -18 18 -48t-18 -48q-19 -18 -49 -18v0z" />
    <glyph glyph-name="uni030B" unicode="&#x30b;" horiz-adv-x="0" 
d="M-481 590h125l141 145h-160zM-266 590h125l141 145h-161z" />
    <glyph glyph-name="uni030C" unicode="&#x30c;" horiz-adv-x="0" 
d="M-81 733l-82 -87l-82 87l-81 -72l79 -81h168l79 81z" />
    <glyph glyph-name="uni0312" unicode="&#x312;" horiz-adv-x="0" 
d="M-6 845q-77 -6 -116 -42q-39 -37 -39 -101v-112h161v131h-59q-1 26 11 40q12 13 42 19v65z" />
    <glyph glyph-name="dotbelowcomb" unicode="&#x323;" horiz-adv-x="0" 
d="M-138 -187h138v137h-138v-137z" />
    <glyph glyph-name="uni0326" unicode="&#x326;" horiz-adv-x="0" 
d="M-140 -307q70 6 105 43t35 101v113h-144v-132h52q1 -27 -10 -40q-10 -13 -38 -19v-66z" />
    <glyph glyph-name="uni0327" unicode="&#x327;" horiz-adv-x="0" 
d="M-116 -32q-7 0 -14 -1q-7 0 -14 -1l28 41l-71 21l-75 -124l65 -26q25 19 55 19q20 0 32 -8t12 -21q0 -16 -13 -25q-12 -9 -35 -9q-18 0 -37 6q-18 5 -41 18l-44 -85q61 -33 133 -33q63 1 101 33q37 32 38 87q-1 49 -33 78t-87 30v0z" />
    <glyph glyph-name="uni0328" unicode="&#x328;" horiz-adv-x="0" 
d="M-111 -217q60 0 111 26l-38 93q-14 -8 -28 -12t-26 -4q-13 0 -19 7q-7 6 -7 18q0 18 16 40t52 49l-68 15q-57 -32 -83 -68q-25 -35 -25 -71q1 -46 31 -69q31 -24 84 -24v0z" />
    <glyph glyph-name="uni0335" unicode="&#x335;" horiz-adv-x="0" 
d="M-436 290h436v131h-436v-131z" />
    <glyph glyph-name="uni0336" unicode="&#x336;" horiz-adv-x="0" 
d="M-785 291h792v126h-792v-126z" />
    <glyph glyph-name="uni0337" unicode="&#x337;" horiz-adv-x="0" 
d="M-514 -22l514 520l-55 54l-515 -520z" />
    <glyph glyph-name="uni0338" unicode="&#x338;" horiz-adv-x="0" 
d="M-592 -13l592 666l-75 60l-590 -667z" />
    <glyph glyph-name="uni0394" unicode="&#x394;" horiz-adv-x="774" 
d="M470 700h-165l-314 -700h792zM240 156l146 354h2l146 -354h-294z" />
    <glyph glyph-name="uni03A9" unicode="&#x3a9;" horiz-adv-x="794" 
d="M654 114q58 42 87 106q30 64 30 147q-3 155 -106 252t-268 100q-165 -3 -268 -100t-106 -252q0 -83 30 -147q29 -64 87 -106v-2h-112v-112h327v104q-78 29 -116 92q-38 64 -38 164q1 92 55 147q53 55 141 56q88 -1 142 -56q53 -55 54 -147q0 -100 -38 -164
q-38 -63 -116 -92v-104h327v112h-112v2z" />
    <glyph glyph-name="uni03BC" unicode="&#x3bc;" horiz-adv-x="677" 
d="M461 530v-270q-1 -55 -34 -87q-34 -32 -90 -33q-60 0 -88 29q-29 30 -29 91v270h-173v-755h173v236h2q39 -26 100 -26q44 0 81 17q37 16 62 47h2v-49h167v530h-173z" />
    <glyph glyph-name="pi" unicode="&#x3c0;" horiz-adv-x="817" 
d="M780 380v150h-778v-150h142v-380h168v380h149v-209q0 -91 46 -131q46 -41 138 -40h128v156h-92q-27 -1 -37 9q-11 9 -10 35v180h146z" />
    <glyph glyph-name="uni0E3F" unicode="&#xe3f;" horiz-adv-x="748" 
d="M615 378v2q33 21 52 54q19 34 19 77q-2 85 -61 136q-59 52 -155 53h-59v105h-77v-105h-261v-700h261v-115h77v115h25q139 0 207 54t68 163q0 55 -26 97q-25 42 -70 64v0zM241 549h93v-120h-93v120zM445 549q35 0 53 -15t18 -44t-18 -45t-53 -16h-34v120h34zM241 151v142
h93v-142h-93zM461 151h-50v142h50q41 0 61 -18q20 -19 20 -52q0 -37 -19 -54q-20 -18 -62 -18v0z" />
    <glyph glyph-name="uni1E04" unicode="&#x1e04;" horiz-adv-x="728" 
d="M63 0h363q139 0 207 54t68 163q0 55 -26 97q-25 42 -70 64v2q33 21 52 54q19 34 19 77q-2 85 -61 136q-59 52 -155 53h-397v-700zM238 429v121h190q35 0 53 -16q18 -15 18 -44q0 -30 -18 -45q-18 -16 -53 -16h-190zM238 150v143h206q41 0 61 -18t20 -52q0 -37 -19 -55
q-20 -18 -62 -18h-206zM296 -187h138v137h-138v-137z" />
    <glyph glyph-name="uni1E05" unicode="&#x1e05;" horiz-adv-x="691" 
d="M382 -12q127 2 206 78q78 76 80 198q-3 122 -81 200q-79 78 -204 81q-48 0 -89 -14q-41 -13 -72 -41h-2v240h-173v-730h159v51h2q30 -30 75 -46q45 -17 99 -17v0zM352 139q-57 1 -94 29t-38 70v58q1 42 39 70q37 28 93 29q65 -1 104 -36q38 -35 39 -93q-1 -58 -38 -92
q-38 -34 -105 -35v0zM300 -199h138v137h-138v-137z" />
    <glyph glyph-name="uni1E0C" unicode="&#x1e0c;" horiz-adv-x="746" 
d="M63 0h304q161 0 257 87q97 86 99 263q-2 172 -98 261q-95 89 -256 89h-306v-700zM241 155v390h114q93 0 142 -47q48 -47 48 -148q0 -103 -49 -150q-48 -46 -141 -45h-114zM303 -187h138v137h-138v-137z" />
    <glyph glyph-name="uni1E0D" unicode="&#x1e0d;" horiz-adv-x="691" 
d="M309 -12q54 0 99 17q45 16 75 46h2v-51h159v730h-173v-240h-2q-31 28 -72 41q-41 14 -89 14q-125 -3 -204 -81q-78 -78 -81 -200q2 -122 80 -198q79 -76 206 -78v0zM339 139q-67 1 -104 35q-38 34 -39 92q1 58 39 93q39 35 104 36q56 -1 93 -29q38 -28 39 -70v-58
q-1 -42 -38 -70t-94 -29v0zM273 -187h138v137h-138v-137z" />
    <glyph glyph-name="uni1E24" unicode="&#x1e24;" horiz-adv-x="778" 
d="M63 0h178v275h296v-275h178v700h-178v-262h-296v262h-178v-700zM320 -187h138v137h-138v-137z" />
    <glyph glyph-name="uni1E25" unicode="&#x1e25;" horiz-adv-x="690" 
d="M47 0h173v274q1 55 37 87q35 32 96 33q61 0 93 -31q33 -31 33 -89v-274h173v307q-2 107 -71 172q-70 64 -187 66q-52 0 -95 -16t-77 -48h-2v249h-173v-730zM281 -187h138v137h-138v-137z" />
    <glyph glyph-name="uni1E36" unicode="&#x1e36;" horiz-adv-x="616" 
d="M63 0h535v156h-357v544h-178v-700zM262 -187h138v137h-138v-137z" />
    <glyph glyph-name="uni1E37" unicode="&#x1e37;" horiz-adv-x="259" 
d="M43 0h173v730h-173v-730zM61 -187h138v137h-138v-137z" />
    <glyph glyph-name="uni1E44" unicode="&#x1e44;" horiz-adv-x="800" 
d="M331 760h138v137h-138v-137zM63 0h178v446h2l308 -446h186v700h-178v-445h-2l-308 445h-186v-700z" />
    <glyph glyph-name="uni1E45" unicode="&#x1e45;" horiz-adv-x="690" 
d="M291 605h138v137h-138v-137zM47 0h173v274q1 55 37 87q35 32 96 33q61 0 93 -31q33 -31 33 -89v-274h173v293q-2 115 -71 183q-69 67 -187 69q-52 0 -98 -16q-45 -16 -80 -48h-2v49h-167v-530z" />
    <glyph glyph-name="uni1E46" unicode="&#x1e46;" horiz-adv-x="800" 
d="M63 0h178v446h2l308 -446h186v700h-178v-445h-2l-308 445h-186v-700zM345 -187h138v137h-138v-137z" />
    <glyph glyph-name="uni1E47" unicode="&#x1e47;" horiz-adv-x="690" 
d="M47 0h173v274q1 55 37 87q35 32 96 33q61 0 93 -31q33 -31 33 -89v-274h173v293q-2 115 -71 183q-69 67 -187 69q-52 0 -98 -16q-45 -16 -80 -48h-2v49h-167v-530zM281 -187h138v137h-138v-137z" />
    <glyph glyph-name="uni1E4C" unicode="&#x1e4c;" horiz-adv-x="794" 
d="M309 940h136l143 145h-171zM480 773q52 0 84 34q31 34 35 97h-83q-4 -17 -15 -26q-11 -8 -28 -8q-31 3 -70 20q-38 18 -88 20q-54 0 -85 -34q-32 -34 -35 -97h83q5 19 15 27q11 9 27 9q32 -3 71 -21q38 -18 89 -21v0zM397 -19q166 3 269 103q102 101 105 266
q-3 165 -105 266q-103 100 -269 103q-166 -3 -269 -103q-102 -101 -105 -266q3 -165 105 -266q103 -100 269 -103v0zM397 137q-90 1 -142 59q-53 57 -54 154q1 98 54 155q52 57 142 58q90 -1 143 -58q52 -57 53 -155q-1 -97 -53 -154q-53 -58 -143 -59v0z" />
    <glyph glyph-name="uni1E4D" unicode="&#x1e4d;" horiz-adv-x="662" 
d="M243 770h136l143 145h-171zM414 603q52 0 84 34q31 34 35 97h-83q-4 -17 -15 -26q-11 -8 -28 -8q-31 3 -70 20q-38 18 -88 20q-54 0 -85 -34q-32 -34 -35 -97h83q5 19 15 27q11 9 27 9q32 -3 71 -21q38 -18 89 -21v0zM331 -19q137 2 221 81q85 78 87 203q-2 125 -87 204
q-84 78 -221 80q-137 -2 -221 -80q-85 -79 -87 -204q2 -125 87 -203q84 -79 221 -81v0zM331 132q-63 1 -99 38q-35 37 -36 95q1 59 36 95q36 37 99 38q62 -1 98 -38q36 -36 37 -95q-1 -58 -37 -95t-98 -38v0z" />
    <glyph glyph-name="uni1E62" unicode="&#x1e62;" horiz-adv-x="693" 
d="M369 -19q143 1 226 59t85 158q0 89 -68 143q-68 53 -202 83q-118 27 -158 44q-40 18 -37 41q1 30 31 47q31 18 84 18q61 0 101 -27q40 -26 58 -79l168 37q-26 99 -113 155q-87 57 -214 58q-134 -2 -213 -59q-78 -58 -80 -153q0 -81 64 -131q63 -51 195 -80
q125 -27 167 -50q42 -22 39 -51q0 -32 -35 -50q-34 -18 -97 -18q-81 0 -127 33q-45 33 -61 106l-169 -30q20 -122 112 -188q92 -65 244 -66v0zM300 -206h138v137h-138v-137z" />
    <glyph glyph-name="uni1E63" unicode="&#x1e63;" horiz-adv-x="621" 
d="M324 -19q133 1 208 47t76 126q1 73 -62 114q-62 41 -198 62q-84 13 -114 24q-29 10 -27 27q0 17 23 27t65 10q52 0 90 -21q38 -20 52 -54l156 46q-25 72 -104 115q-79 44 -187 45q-119 -1 -189 -47q-69 -46 -71 -124q-1 -71 61 -112q63 -41 201 -61q77 -11 107 -24
q30 -12 29 -31q0 -17 -28 -27q-28 -9 -81 -9q-63 0 -102 24q-40 23 -54 68l-162 -46q24 -81 107 -130q84 -48 204 -49v0zM263 -207h138v137h-138v-137z" />
    <glyph glyph-name="uni1E6C" unicode="&#x1e6c;" horiz-adv-x="704" 
d="M262 0h178v545h246v155h-668v-155h244v-545zM283 -187h138v137h-138v-137z" />
    <glyph glyph-name="uni1E6D" unicode="&#x1e6d;" horiz-adv-x="486" 
d="M469 391v139h-169v137h-173v-137h-125v-139h125v-207q-1 -92 47 -138q47 -46 150 -46h125v156h-99q-27 0 -39 10q-11 10 -11 34v191h169zM208 -187h138v137h-138v-137z" />
    <glyph glyph-name="Wgrave" unicode="&#x1e80;" horiz-adv-x="1081" 
d="M488 760h135l-108 145h-171zM184 0h185l170 447h2l169 -447h187l177 700h-184l-110 -455h-2l-168 455h-140l-167 -455h-2l-110 455h-184z" />
    <glyph glyph-name="wgrave" unicode="&#x1e81;" horiz-adv-x="965" 
d="M431 590h135l-108 145h-171zM161 0h175l146 350h2l145 -350h175l150 530h-176l-84 -321h-2l-134 321h-151l-133 -321h-2l-85 321h-175z" />
    <glyph glyph-name="Wacute" unicode="&#x1e82;" horiz-adv-x="1081" 
d="M452 760h136l143 145h-171zM184 0h185l170 447h2l169 -447h187l177 700h-184l-110 -455h-2l-168 455h-140l-167 -455h-2l-110 455h-184z" />
    <glyph glyph-name="wacute" unicode="&#x1e83;" horiz-adv-x="965" 
d="M395 590h136l143 145h-171zM161 0h175l146 350h2l145 -350h175l150 530h-176l-84 -321h-2l-134 321h-151l-133 -321h-2l-85 321h-175z" />
    <glyph glyph-name="Wdieresis" unicode="&#x1e84;" horiz-adv-x="1081" 
d="M357 750h139v138h-139v-138zM583 750h139v138h-139v-138zM184 0h185l170 447h2l169 -447h187l177 700h-184l-110 -455h-2l-168 455h-140l-167 -455h-2l-110 455h-184z" />
    <glyph glyph-name="wdieresis" unicode="&#x1e85;" horiz-adv-x="965" 
d="M300 580h139v138h-139v-138zM526 580h139v138h-139v-138zM161 0h175l146 350h2l145 -350h175l150 530h-176l-84 -321h-2l-134 321h-151l-133 -321h-2l-85 321h-175z" />
    <glyph glyph-name="uni1E92" unicode="&#x1e92;" horiz-adv-x="709" 
d="M32 0h640v155h-393v2l398 406v137h-633v-155h385v-2l-397 -406v-137zM281 -187h138v137h-138v-137z" />
    <glyph glyph-name="uni1E93" unicode="&#x1e93;" horiz-adv-x="636" 
d="M22 0h592v139h-339v2l329 264v125h-573v-139h320v-2l-329 -264v-125zM249 -187h138v137h-138v-137z" />
    <glyph glyph-name="uni1EA0" unicode="&#x1ea0;" horiz-adv-x="773" 
d="M782 0l-313 700h-165l-313 -700h185l43 104h336l43 -104h184zM281 255l105 255h2l105 -255h-212zM318 -187h138v137h-138v-137z" />
    <glyph glyph-name="uni1EA1" unicode="&#x1ea1;" horiz-adv-x="606" 
d="M228 -15q59 0 105 18q46 17 76 50h2v-53h157v330q-1 102 -71 160q-71 58 -195 59q-110 -1 -186 -53q-76 -51 -92 -136l158 -28q10 42 42 66q33 24 83 24q39 0 62 -13q22 -13 23 -35q1 -19 -27 -31q-28 -13 -101 -23q-126 -17 -183 -58t-56 -113q1 -76 55 -119
q54 -44 148 -45v0zM266 118q-37 0 -56 10q-18 10 -18 30q-1 20 24 33q24 12 83 24q47 9 70 18t30 21h2v-53q-1 -35 -40 -58q-38 -24 -95 -25v0zM236 -202h138v137h-138v-137z" />
    <glyph glyph-name="uni1EAC" unicode="&#x1eac;" horiz-adv-x="773" 
d="M387 828l82 -88l81 73l-79 80h-168l-79 -80l81 -73zM782 0l-313 700h-165l-313 -700h185l43 104h336l43 -104h184zM281 255l105 255h2l105 -255h-212zM318 -187h138v137h-138v-137z" />
    <glyph glyph-name="uni1EAD" unicode="&#x1ead;" horiz-adv-x="606" 
d="M302 677l82 -88l81 73l-79 80h-168l-79 -80l81 -73zM302 549q-110 -1 -186 -53q-76 -51 -92 -136l158 -28q10 42 42 66q33 24 83 24q39 0 62 -13q22 -13 23 -35q1 -19 -27 -31q-28 -13 -101 -23q-126 -17 -183 -58t-56 -113q1 -76 55 -119q54 -44 148 -45q59 0 105 18
q46 17 76 50h2v-53h157v330q-1 102 -71 160q-71 58 -195 59v0zM401 201q-1 -35 -40 -58q-38 -24 -95 -25q-37 0 -56 10q-18 10 -18 30q-1 20 24 33q24 12 83 24q47 9 70 18t30 21h2v-53zM236 -202h138v137h-138v-137z" />
    <glyph glyph-name="uni1EB8" unicode="&#x1eb8;" horiz-adv-x="641" 
d="M63 0h541v155h-363v128h328v143h-328v119h362v155h-540v-700zM265 -187h138v137h-138v-137z" />
    <glyph glyph-name="uni1EB9" unicode="&#x1eb9;" horiz-adv-x="644" 
d="M328 -19q82 0 145 25q64 25 117 75l-96 110q-40 -37 -79 -56q-40 -18 -81 -18q-64 0 -100 26q-36 25 -40 70h427v51q-2 124 -83 203t-215 82q-132 -3 -214 -81q-83 -79 -86 -204q2 -130 82 -206q81 -75 223 -77v0zM195 327q6 41 41 66q35 24 89 25q55 0 89 -24
q33 -24 39 -67h-258zM259 -206h138v137h-138v-137z" />
    <glyph glyph-name="uni1EBC" unicode="&#x1ebc;" horiz-adv-x="641" 
d="M416 754q52 0 84 34q31 34 35 97h-83q-4 -17 -15 -26q-11 -8 -28 -8q-31 3 -70 20q-38 18 -88 20q-54 0 -85 -34q-32 -34 -35 -97h83q5 19 15 27q11 9 27 9q32 -3 71 -21q38 -18 89 -21v0zM63 0h541v155h-363v128h328v143h-328v119h362v155h-540v-700z" />
    <glyph glyph-name="uni1EBD" unicode="&#x1ebd;" horiz-adv-x="644" 
d="M406 603q52 0 84 34q31 34 35 97h-83q-4 -17 -15 -26q-11 -8 -28 -8q-31 3 -70 20q-38 18 -88 20q-54 0 -85 -34q-32 -34 -35 -97h83q5 19 15 27q11 9 27 9q32 -3 71 -21q38 -18 89 -21v0zM328 -19q82 0 145 25q64 25 117 75l-96 110q-40 -37 -79 -56q-40 -18 -81 -18
q-64 0 -100 26q-36 25 -40 70h427v51q-2 124 -83 203t-215 82q-132 -3 -214 -81q-83 -79 -86 -204q2 -130 82 -206q81 -75 223 -77v0zM195 327q6 41 41 66q35 24 89 25q55 0 89 -24q33 -24 39 -67h-258z" />
    <glyph glyph-name="uni1EC6" unicode="&#x1ec6;" horiz-adv-x="641" 
d="M333 828l82 -88l81 73l-79 80h-168l-79 -80l81 -73zM241 155v128h328v143h-328v119h362v155h-540v-700h541v155h-363zM265 -187h138v137h-138v-137z" />
    <glyph glyph-name="uni1EC7" unicode="&#x1ec7;" horiz-adv-x="644" 
d="M323 677l82 -88l81 73l-79 80h-168l-79 -80l81 -73zM621 264q-2 124 -83 203t-215 82q-132 -3 -214 -81q-83 -79 -86 -204q2 -130 82 -206q81 -75 223 -77q82 0 145 25q64 25 117 75l-96 110q-40 -37 -79 -56q-40 -18 -81 -18q-64 0 -100 26q-36 25 -40 70h427v51z
M195 327q6 41 41 66q35 24 89 25q55 0 89 -24q33 -24 39 -67h-258zM259 -206h138v137h-138v-137z" />
    <glyph glyph-name="uni1ECA" unicode="&#x1eca;" horiz-adv-x="304" 
d="M63 0h178v700h-178v-700zM83 -187h138v137h-138v-137z" />
    <glyph glyph-name="uni1ECB" unicode="&#x1ecb;" horiz-adv-x="259" 
d="M42 612h173v162h-173v-162zM43 0h173v530h-173v-530zM61 -187h138v137h-138v-137z" />
    <glyph glyph-name="uni1ECC" unicode="&#x1ecc;" horiz-adv-x="794" 
d="M397 -19q166 3 269 103q102 101 105 266q-3 165 -105 266q-103 100 -269 103q-166 -3 -269 -103q-102 -101 -105 -266q3 -165 105 -266q103 -100 269 -103v0zM397 137q-90 1 -142 59q-53 57 -54 154q1 98 54 155q52 57 142 58q90 -1 143 -58q52 -57 53 -155
q-1 -97 -53 -154q-53 -58 -143 -59v0zM328 -206h138v137h-138v-137z" />
    <glyph glyph-name="uni1ECD" unicode="&#x1ecd;" horiz-adv-x="662" 
d="M331 -19q137 2 221 81q85 78 87 203q-2 125 -87 204q-84 78 -221 80q-137 -2 -221 -80q-85 -79 -87 -204q2 -125 87 -203q84 -79 221 -81v0zM331 132q-63 1 -99 38q-35 37 -36 95q1 59 36 95q36 37 99 38q62 -1 98 -38q36 -36 37 -95q-1 -58 -37 -95t-98 -38v0zM262 -206
h138v137h-138v-137z" />
    <glyph glyph-name="uni1ED8" unicode="&#x1ed8;" horiz-adv-x="794" 
d="M397 847l82 -88l81 73l-79 80h-168l-79 -80l81 -73zM397 719q-166 -3 -269 -103q-102 -101 -105 -266q3 -165 105 -266q103 -100 269 -103q166 3 269 103q102 101 105 266q-3 165 -105 266q-103 100 -269 103v0zM397 137q-90 1 -142 59q-53 57 -54 154q1 98 54 155
q52 57 142 58q90 -1 143 -58q52 -57 53 -155q-1 -97 -53 -154q-53 -58 -143 -59v0zM328 -206h138v137h-138v-137z" />
    <glyph glyph-name="uni1ED9" unicode="&#x1ed9;" horiz-adv-x="662" 
d="M331 677l82 -88l81 73l-79 80h-168l-79 -80l81 -73zM331 549q-137 -2 -221 -80q-85 -79 -87 -204q2 -125 87 -203q84 -79 221 -81q137 2 221 81q85 78 87 203q-2 125 -87 204q-84 78 -221 80v0zM331 132q-63 1 -99 38q-35 37 -36 95q1 59 36 95q36 37 99 38q62 -1 98 -38
q36 -36 37 -95q-1 -58 -37 -95t-98 -38v0zM262 -206h138v137h-138v-137z" />
    <glyph glyph-name="uni1EE4" unicode="&#x1ee4;" horiz-adv-x="769" 
d="M385 -19q155 1 240 75t86 214v430h-178v-417q0 -75 -37 -111q-37 -35 -111 -35t-112 35q-37 36 -37 111v417h-178v-430q1 -140 86 -214t241 -75v0zM316 -206h138v137h-138v-137z" />
    <glyph glyph-name="uni1EE5" unicode="&#x1ee5;" horiz-adv-x="667" 
d="M280 -15q55 0 99 16q43 16 75 50h2v-51h168v530h-173v-270q-1 -55 -34 -87q-34 -32 -91 -33q-60 0 -88 30q-28 29 -28 90v270h-173v-307q1 -111 65 -174t178 -64v0zM226 -202h138v137h-138v-137z" />
    <glyph glyph-name="Ygrave" unicode="&#x1ef2;" horiz-adv-x="742" 
d="M319 760h135l-108 145h-171zM282 0h178v273l295 427h-206l-177 -275h-2l-178 275h-206l296 -427v-273z" />
    <glyph glyph-name="ygrave" unicode="&#x1ef3;" horiz-adv-x="683" 
d="M290 590h135l-108 145h-171zM126 -225h191l369 755h-192l-150 -333h-2l-151 333h-193l250 -505z" />
    <glyph glyph-name="uni1EF4" unicode="&#x1ef4;" horiz-adv-x="742" 
d="M282 0h178v273l295 427h-206l-177 -275h-2l-178 275h-206l296 -427v-273zM302 -187h138v137h-138v-137z" />
    <glyph glyph-name="uni1EF5" unicode="&#x1ef5;" horiz-adv-x="683" 
d="M126 -225h191l369 755h-192l-150 -333h-2l-151 333h-193l250 -505zM454 -187h138v137h-138v-137z" />
    <glyph glyph-name="uni1EF8" unicode="&#x1ef8;" horiz-adv-x="742" 
d="M454 754q52 0 84 34q31 34 35 97h-83q-4 -17 -15 -26q-11 -8 -28 -8q-31 3 -70 20q-38 18 -88 20q-54 0 -85 -34q-32 -34 -35 -97h83q5 19 15 27q11 9 27 9q32 -3 71 -21q38 -18 89 -21v0zM282 0h178v273l295 427h-206l-177 -275h-2l-178 275h-206l296 -427v-273z" />
    <glyph glyph-name="uni1EF9" unicode="&#x1ef9;" horiz-adv-x="683" 
d="M425 584q52 0 84 34q31 34 35 97h-83q-4 -17 -15 -26q-11 -8 -28 -8q-31 3 -70 20q-38 18 -88 20q-54 0 -85 -34q-32 -34 -35 -97h83q5 19 15 27q11 9 27 9q32 -3 71 -21q38 -18 89 -21v0zM126 -225h191l369 755h-192l-150 -333h-2l-151 333h-193l250 -505z" />
    <glyph glyph-name="uni2002" unicode="&#x2002;" horiz-adv-x="750" 
 />
    <glyph glyph-name="uni2003" unicode="&#x2003;" horiz-adv-x="1000" 
 />
    <glyph glyph-name="uni2004" unicode="&#x2004;" horiz-adv-x="350" 
 />
    <glyph glyph-name="uni2005" unicode="&#x2005;" horiz-adv-x="250" 
 />
    <glyph glyph-name="uni2007" unicode="&#x2007;" 
 />
    <glyph glyph-name="uni2008" unicode="&#x2008;" horiz-adv-x="335" 
 />
    <glyph glyph-name="uni2009" unicode="&#x2009;" horiz-adv-x="150" 
 />
    <glyph glyph-name="uni200A" unicode="&#x200a;" horiz-adv-x="75" 
 />
    <glyph glyph-name="uni200B" unicode="&#x200b;" horiz-adv-x="0" 
 />
    <glyph glyph-name="endash" unicode="&#x2013;" horiz-adv-x="563" 
d="M33 219h497v145h-497v-145z" />
    <glyph glyph-name="emdash" unicode="&#x2014;" horiz-adv-x="848" 
d="M33 219h782v145h-782v-145z" />
    <glyph glyph-name="quoteleft" unicode="&#x2018;" horiz-adv-x="291" 
d="M232 700q-89 -7 -134 -55t-45 -131v-145h185v170h-67q-1 34 13 51q13 17 48 25v85z" />
    <glyph glyph-name="quoteright" unicode="&#x2019;" horiz-adv-x="291" 
d="M59 369q89 7 134 55t45 131v145h-185v-170h67q1 -34 -12 -51q-14 -17 -49 -25v-85z" />
    <glyph glyph-name="quotesinglbase" unicode="&#x201a;" horiz-adv-x="331" 
d="M79 -161q89 7 134 55t45 131v145h-185v-170h67q1 -34 -12 -51q-14 -17 -49 -25v-85z" />
    <glyph glyph-name="quotedblleft" unicode="&#x201c;" horiz-adv-x="578" 
d="M252 700q-89 -7 -134 -55t-45 -131v-145h185v170h-67q-1 34 13 51q13 17 48 25v85zM499 700q-89 -7 -134 -55t-45 -131v-145h185v170h-67q-1 34 13 51q13 17 48 25v85z" />
    <glyph glyph-name="quotedblright" unicode="&#x201d;" horiz-adv-x="578" 
d="M79 369q89 7 134 55t45 131v145h-185v-170h67q1 -34 -12 -51q-14 -17 -49 -25v-85zM326 369q89 7 134 55t45 131v145h-185v-170h67q1 -34 -12 -51q-14 -17 -49 -25v-85z" />
    <glyph glyph-name="quotedblbase" unicode="&#x201e;" horiz-adv-x="578" 
d="M79 -161q89 7 134 55t45 131v145h-185v-170h67q1 -34 -12 -51q-14 -17 -49 -25v-85zM326 -161q89 7 134 55t45 131v145h-185v-170h67q1 -34 -12 -51q-14 -17 -49 -25v-85z" />
    <glyph glyph-name="dagger" unicode="&#x2020;" horiz-adv-x="682" 
d="M254 -196h173v567h222v159h-222v229h-173v-229h-221v-159h221v-567z" />
    <glyph glyph-name="daggerdbl" unicode="&#x2021;" horiz-adv-x="682" 
d="M254 -196h173v217h222v159h-222v191h222v159h-222v229h-173v-229h-221v-159h221v-191h-221v-159h221v-217z" />
    <glyph glyph-name="bullet" unicode="&#x2022;" horiz-adv-x="418" 
d="M209 225q63 1 99 39q36 39 37 99q-1 60 -37 99q-37 38 -99 39q-62 -1 -99 -39q-36 -39 -37 -99q1 -60 37 -99q37 -38 99 -39v0z" />
    <glyph glyph-name="ellipsis" unicode="&#x2026;" horiz-adv-x="911" 
d="M361 1h189v184h-189v-184zM649 1h189v184h-189v-184zM73 0h189v184h-189v-184z" />
    <glyph glyph-name="perthousand" unicode="&#x2030;" horiz-adv-x="1607" 
d="M388 -96l503 818l-126 69l-500 -817zM255 271q95 2 153 62q57 60 59 157q-2 97 -59 157q-58 60 -153 62q-95 -2 -152 -62q-58 -60 -60 -157q2 -97 60 -157q57 -60 152 -62v0zM255 390q-38 1 -59 27q-20 27 -20 73t20 73q21 26 59 27q39 -1 59 -27q20 -27 20 -73t-20 -73
q-20 -26 -59 -27v0zM892 -9q95 2 153 62q57 60 59 157q-2 97 -59 157q-58 60 -153 62q-95 -2 -152 -62q-58 -60 -60 -157q2 -97 60 -157q57 -60 152 -62v0zM1352 -9q95 2 153 62q57 60 59 157q-2 97 -59 157q-58 60 -153 62q-95 -2 -152 -62q-58 -60 -60 -157q2 -97 60 -157
q57 -60 152 -62v0zM892 110q-38 1 -58 27q-20 27 -20 73t20 73q20 26 58 27q39 -1 59 -27q20 -27 20 -73t-20 -73q-20 -26 -59 -27v0zM1352 110q-38 1 -58 27q-20 27 -20 73t20 73q20 26 58 27q39 -1 59 -27q20 -27 20 -73t-20 -73q-20 -26 -59 -27v0z" />
    <glyph glyph-name="guilsinglleft" unicode="&#x2039;" horiz-adv-x="353" 
d="M165 79h145l-117 195l117 194h-145l-112 -194z" />
    <glyph glyph-name="guilsinglright" unicode="&#x203a;" horiz-adv-x="353" 
d="M188 79l112 195l-112 194h-145l117 -194l-117 -195h145z" />
    <glyph glyph-name="fraction" unicode="&#x2044;" horiz-adv-x="222" 
d="M-84 -87l493 810l-103 60l-493 -811z" />
    <glyph glyph-name="uni207A" unicode="&#x207a;" horiz-adv-x="423" 
d="M380 256h-118v125h-100v-125h-119v-94h119v-130h100v130h118v94z" />
    <glyph glyph-name="uni207B" unicode="&#x207b;" horiz-adv-x="376" 
d="M43 162h290v94h-290v-94z" />
    <glyph glyph-name="lira" unicode="&#x20a4;" horiz-adv-x="702" 
d="M511 369q-1 -98 -53 -155q-53 -58 -143 -59v196l185 67l-37 100l-148 -53v54l185 67l-37 100l-148 -53v67h-178v-132l-114 -41l36 -101l78 28v-54l-114 -41l36 -101l78 28v-286h178q166 3 269 103q102 100 105 266h-178z" />
    <glyph glyph-name="uni20A8" unicode="&#x20a8;" horiz-adv-x="651" 
d="M628 604v96h-585v-143h227q39 0 64 -11q24 -11 34 -34h-325v-92h324q-24 -45 -97 -45h-227v-143h160l147 -232h198l-164 246v2q64 19 105 63t53 109h86v92h-87q-12 51 -49 90v2h136z" />
    <glyph glyph-name="uni20A9" unicode="&#x20a9;" horiz-adv-x="1147" 
d="M1141 462v95h-76l36 143h-173l-35 -143h-199l-52 143h-136l-52 -143h-200l-35 143h-173l36 -143h-75v-95h99l12 -50h-111v-94h135l80 -318h176l121 318h110l120 -318h176l80 318h136v94h-112l12 50h100zM276 462h143l-18 -50h-112zM858 412h-111l-18 50h142zM554 412
l19 49h2l18 -49h-39zM335 232h-3l-21 86h55zM815 232h-2l-31 86h54z" />
    <glyph glyph-name="Euro" unicode="&#x20ac;" horiz-adv-x="882" 
d="M695 281q-18 -72 -66 -110q-49 -38 -122 -38q-60 0 -105 24q-46 23 -73 65h152v109h-186q-1 5 -1 10v9q0 12 1 24h239v109h-202q28 40 73 62q44 22 102 22q72 0 119 -36q47 -35 67 -101l162 45q-28 113 -121 177q-92 65 -227 66q-133 -1 -229 -64q-96 -62 -136 -171h-117
v-109h95q-1 -12 -1 -24v-19h-94v-109h115q40 -111 136 -175t231 -65q138 1 232 68q93 68 120 190z" />
    <glyph glyph-name="uni20BD" unicode="&#x20bd;" horiz-adv-x="796" 
d="M499 700h-376v-383h-100v-97h100v-47h-100v-97h100v-76h178v76h198v97h-198v47h198q118 1 190 62t74 177q-2 115 -75 178q-72 62 -189 63v0zM484 371h-183v177h185q44 1 71 -19q27 -21 28 -68q-1 -46 -30 -68t-71 -22v0z" />
    <glyph glyph-name="uni2116" unicode="&#x2116;" horiz-adv-x="1253" 
d="M1006 271q95 2 151 62q57 60 58 157q-1 97 -58 157q-56 60 -151 62q-94 -2 -150 -62q-57 -60 -58 -157q1 -97 58 -157q56 -60 150 -62v0zM63 0h178v446h2l308 -446h186v700h-178v-445h-2l-308 445h-186v-700zM1006 389q-38 1 -59 27q-21 27 -21 74t21 74t59 27
q39 0 60 -27t21 -74t-21 -74q-21 -26 -60 -27v0zM798 92h417v135h-417v-135z" />
    <glyph glyph-name="uni2117" unicode="&#x2117;" horiz-adv-x="687" 
d="M343 16q138 3 223 88q86 86 88 219q-2 133 -87 219q-85 85 -224 88q-139 -3 -223 -88q-85 -86 -87 -219q2 -133 87 -219q84 -85 223 -88v0zM343 92q-103 3 -164 68t-62 163q1 98 62 164q61 65 164 67q103 -2 164 -67q61 -66 63 -164q-2 -97 -63 -163q-61 -65 -164 -68v0z
M242 151h89v102h45q55 0 86 31q31 30 32 87q-1 57 -32 89q-31 31 -86 31h-134v-340zM331 328v86h33q20 0 30 -10t10 -33q0 -24 -9 -33q-10 -10 -32 -10h-32z" />
    <glyph glyph-name="trademark" unicode="&#x2122;" horiz-adv-x="858" 
d="M122 361h117v232h98v107h-314v-107h99v-232zM382 361h112v159h1l76 -159h65l77 159h1v-159h111v339h-130l-91 -202h-1l-91 202h-130v-339z" />
    <glyph glyph-name="oneeighth" unicode="&#x215b;" horiz-adv-x="977" 
d="M231 -87l493 810l-103 60l-493 -811zM139 280h115v420h-104l-137 -73v-120l126 68v-295zM757 -9q97 1 149 39q52 37 53 95q-1 37 -23 65q-21 28 -53 42v1q21 11 35 32q14 20 15 47q-1 52 -49 84t-127 33q-79 -1 -126 -33q-48 -32 -49 -84q1 -27 15 -47q14 -21 35 -32v-1
q-32 -14 -54 -42t-23 -65q1 -58 53 -95q53 -38 149 -39v0zM757 265q-31 0 -48 11q-18 10 -18 29t18 29q17 10 48 10t49 -10t18 -29t-18 -29q-18 -11 -49 -11v0zM757 87q-40 0 -61 14q-20 13 -20 36t21 36q20 14 60 14q41 0 61 -14q20 -13 20 -36t-20 -36q-20 -14 -61 -14v0z
" />
    <glyph glyph-name="threeeighths" unicode="&#x215c;" horiz-adv-x="1070" 
d="M324 -87l493 810l-103 60l-493 -811zM210 271q83 1 131 38q48 36 49 94q0 33 -16 58t-45 39v1q23 14 35 35q12 20 12 46q-2 58 -49 92q-48 34 -123 35q-77 -1 -125 -38q-48 -36 -61 -96l105 -20q6 28 26 45q21 17 55 17q30 0 46 -12q17 -11 17 -33q0 -18 -14 -28
q-14 -11 -43 -11h-45v-78h51q31 0 45 -11q15 -11 15 -32q-1 -23 -19 -35t-47 -12q-33 0 -56 18q-24 19 -33 57l-108 -28q12 -65 65 -102q53 -38 132 -39v0zM850 -9q97 1 149 39q52 37 53 95q-1 37 -23 65q-21 28 -53 42v1q21 11 35 32q14 20 15 47q-1 52 -49 84t-127 33
q-79 -1 -126 -33q-48 -32 -49 -84q1 -27 15 -47q14 -21 35 -32v-1q-32 -14 -54 -42t-23 -65q1 -58 53 -95q53 -38 149 -39v0zM850 265q-31 0 -48 11q-18 10 -18 29t18 29q17 10 48 10t49 -10t18 -29t-18 -29q-18 -11 -49 -11v0zM850 87q-40 0 -61 14q-20 13 -20 36t21 36
q20 14 60 14q41 0 61 -14q20 -13 20 -36t-20 -36q-20 -14 -61 -14v0z" />
    <glyph glyph-name="fiveeighths" unicode="&#x215d;" horiz-adv-x="1092" 
d="M346 -87l493 810l-103 60l-493 -811zM219 271q82 1 137 42q54 41 56 111q-1 64 -49 103t-128 40q-26 0 -49 -5t-43 -14l-1 1l13 57h213v94h-297l-46 -224l98 -27q19 17 43 26t53 9q36 -1 58 -16q21 -15 21 -39q-1 -27 -22 -42t-57 -15q-38 0 -66 14t-49 42l-86 -67
q32 -41 82 -65q51 -24 119 -25v0zM872 -9q97 1 149 39q52 37 53 95q-1 37 -23 65q-21 28 -53 42v1q21 11 35 32q14 20 15 47q-1 52 -49 84t-127 33q-79 -1 -126 -33q-48 -32 -49 -84q1 -27 15 -47q14 -21 35 -32v-1q-32 -14 -54 -42t-23 -65q1 -58 53 -95q53 -38 149 -39v0z
M872 265q-31 0 -48 11q-18 10 -18 29t18 29q17 10 48 10t49 -10t18 -29t-18 -29q-18 -11 -49 -11v0zM872 87q-40 0 -61 14q-20 13 -20 36t21 36q20 14 60 14q41 0 61 -14q20 -13 20 -36t-20 -36q-20 -14 -61 -14v0z" />
    <glyph glyph-name="seveneighths" unicode="&#x215e;" horiz-adv-x="980" 
d="M234 -87l493 810l-103 60l-493 -811zM39 280h137l191 328v92h-367v-101h229v-1zM760 -9q97 1 149 39q52 37 53 95q-1 37 -23 65q-21 28 -53 42v1q21 11 35 32q14 20 15 47q-1 52 -49 84t-127 33q-79 -1 -126 -33q-48 -32 -49 -84q1 -27 15 -47q14 -21 35 -32v-1
q-32 -14 -54 -42t-23 -65q1 -58 53 -95q53 -38 149 -39v0zM760 265q-31 0 -48 11q-18 10 -18 29t18 29q17 10 48 10t49 -10t18 -29t-18 -29q-18 -11 -49 -11v0zM760 87q-40 0 -61 14q-20 13 -20 36t21 36q20 14 60 14q41 0 61 -14q20 -13 20 -36t-20 -36q-20 -14 -61 -14v0z
" />
    <glyph glyph-name="arrowleft" unicode="&#x2190;" horiz-adv-x="722" 
d="M699 421h-381l141 124l-110 109l-323 -309l323 -310l110 109l-141 124h381v153z" />
    <glyph glyph-name="arrowup" unicode="&#x2191;" horiz-adv-x="667" 
d="M644 363l-309 324l-309 -324l111 -112l119 134v-372h158v372l119 -134z" />
    <glyph glyph-name="arrowright" unicode="&#x2192;" horiz-adv-x="722" 
d="M376 654l-110 -109l141 -124h-381v-153h381l-141 -124l110 -109l323 310z" />
    <glyph glyph-name="arrowdown" unicode="&#x2193;" horiz-adv-x="667" 
d="M533 450l-119 -134v372h-158v-372l-119 134l-111 -112l309 -324l309 324z" />
    <glyph glyph-name="arrowboth" unicode="&#x2194;" horiz-adv-x="1008" 
d="M662 654l-106 -104l154 -136h-409l154 136l-106 104l-323 -309l323 -310l106 105l-154 136h409l-154 -136l106 -105l323 310z" />
    <glyph glyph-name="arrowupdn" unicode="&#x2195;" horiz-adv-x="668" 
d="M409 176v347l128 -146l108 110l-309 323l-309 -322l108 -110l129 146v-348l-128 146l-110 -110l310 -324l309 323l-108 110z" />
    <glyph glyph-name="uni2196" unicode="&#x2196;" horiz-adv-x="579" 
d="M556 192l-270 270l188 -13l-1 154l-447 9l10 -447h153l-12 190l270 -272z" />
    <glyph glyph-name="uni2197" unicode="&#x2197;" horiz-adv-x="579" 
d="M26 192l109 -109l270 272l-12 -190h153l10 447l-447 -9l-1 -154l188 13z" />
    <glyph glyph-name="uni2198" unicode="&#x2198;" horiz-adv-x="579" 
d="M26 503l270 -270l-188 13l1 -154l447 -9l-10 447h-153l12 -190l-270 272z" />
    <glyph glyph-name="uni2199" unicode="&#x2199;" horiz-adv-x="579" 
d="M556 509l-109 109l-270 -272l12 190h-153l-10 -447l447 9l1 154l-188 -13z" />
    <glyph glyph-name="uni21B3" unicode="&#x21b3;" horiz-adv-x="781" 
d="M435 654l-110 -109l141 -124h-229v268h-161v-421h390l-141 -124l110 -109l323 310z" />
    <glyph glyph-name="partialdiff" unicode="&#x2202;" horiz-adv-x="580" 
d="M283 788q-57 0 -106 -24q-48 -24 -93 -73l110 -110q20 25 40 36q19 12 39 12q44 1 71 -32t35 -108q-29 8 -57 12t-58 4q-114 -1 -177 -74t-64 -202q1 -116 67 -181q65 -65 183 -66q284 0 284 425q-1 182 -74 281t-200 100v0zM273 142q-75 0 -76 93q0 59 24 91t69 32
q24 0 46 -4t45 -12q-6 -101 -33 -151q-27 -49 -75 -49v0z" />
    <glyph glyph-name="emptyset" unicode="&#x2205;" horiz-adv-x="849" 
d="M719 600l89 100l-87 69l-89 -101q-45 25 -97 38t-110 13q-171 -3 -280 -103q-108 -101 -112 -266q0 -75 26 -138q25 -64 71 -112l-87 -98l84 -68l88 99q45 -25 98 -38q53 -14 112 -14q171 3 279 104t112 265q0 75 -26 139q-25 63 -71 111v0zM209 350q2 96 60 153
q59 56 156 57q53 0 95 -18l-277 -314q-17 25 -25 56q-9 31 -9 66v0zM425 140q-27 0 -52 5q-24 5 -46 14l278 313q35 -50 35 -122q-2 -96 -60 -153q-58 -56 -155 -57v0z" />
    <glyph glyph-name="product" unicode="&#x220f;" horiz-adv-x="813" 
d="M148 -141h174v682h169v-682h174v682h130v159h-777v-159h130v-682z" />
    <glyph glyph-name="summation" unicode="&#x2211;" horiz-adv-x="617" 
d="M48 -100h541v159h-296l215 241l-215 241h296v159h-541v-140l234 -260l-234 -260v-140z" />
    <glyph glyph-name="minus" unicode="&#x2212;" horiz-adv-x="563" 
d="M43 294h477v132h-477v-132z" />
    <glyph glyph-name="radical" unicode="&#x221a;" horiz-adv-x="735" 
d="M538 700l-177 -471h-2l-78 216h-278v-159h156l118 -286h171l286 700h-196z" />
    <glyph glyph-name="infinity" unicode="&#x221e;" horiz-adv-x="696" 
d="M219 97q36 0 72 19q35 19 57 50q22 -31 57 -50q36 -19 72 -19q78 2 126 58q49 56 50 148q-1 92 -50 148q-48 56 -126 58q-36 0 -72 -19q-35 -19 -57 -50q-22 31 -57 50q-36 19 -72 19q-78 -2 -126 -58q-49 -56 -50 -148q1 -92 50 -148q48 -56 126 -58v0zM231 226
q-28 0 -44 21q-16 20 -16 56q0 37 16 57t44 20q26 0 44 -19q19 -19 29 -58q-10 -38 -29 -58q-18 -19 -44 -19v0zM465 226q-26 0 -44 19q-19 20 -30 58q11 39 30 58q18 19 44 19q27 0 43 -20t16 -57q0 -36 -16 -56q-16 -21 -43 -21v0z" />
    <glyph glyph-name="integral" unicode="&#x222b;" horiz-adv-x="475" 
d="M43 -240q155 -2 219 57q63 60 61 207v458q-1 57 24 81q24 23 85 24v158q-158 2 -222 -57q-64 -60 -62 -207v-458q1 -57 -23 -81q-24 -23 -82 -24v-158z" />
    <glyph glyph-name="approxequal" unicode="&#x2248;" horiz-adv-x="688" 
d="M179 373q13 37 29 56q16 18 36 18q36 -5 89 -37t119 -37q74 0 122 44q47 43 71 125l-136 55q-13 -37 -29 -55t-36 -18q-36 5 -89 37q-54 31 -120 36q-73 0 -121 -43t-71 -125zM179 113q13 37 29 56q16 18 36 18q36 -5 89 -37t119 -37q74 0 122 44q47 43 71 125l-136 55
q-13 -37 -29 -55t-36 -18q-36 5 -89 37q-54 31 -120 36q-73 0 -121 -43t-71 -125z" />
    <glyph glyph-name="notequal" unicode="&#x2260;" horiz-adv-x="562" 
d="M519 382v133h-91l44 77l-72 43l-69 -120h-288v-133h211l-43 -76h-168v-133h91l-44 -77l73 -43l69 120h287v133h-211l44 76h167z" />
    <glyph glyph-name="lessequal" unicode="&#x2264;" horiz-adv-x="557" 
d="M432 158l68 120l-278 144l278 145l-68 119l-389 -217v-94zM514 0v133h-471v-133h471z" />
    <glyph glyph-name="greaterequal" unicode="&#x2265;" horiz-adv-x="557" 
d="M125 158l389 217v94l-389 217l-68 -119l278 -145l-278 -144zM43 0h471v133h-471v-133z" />
    <glyph glyph-name="lozenge" unicode="&#x25ca;" horiz-adv-x="725" 
d="M279 0h168l235 350l-235 350h-168l-236 -350zM363 131l-146 219l146 219l145 -219z" />
    <glyph glyph-name="uniF8FF" unicode="&#xf8ff;" horiz-adv-x="686" 
d="M50 0h26l66 65l67 -65l63 65l69 -65l71 65l63 -65l68 65l65 -65h28v423q-3 122 -87 205q-84 84 -207 87q-121 -3 -205 -87q-83 -83 -87 -205v-423zM216 307q-30 1 -50 21t-21 49q1 31 21 51t50 21q31 -1 51 -21q19 -20 20 -51q-1 -30 -21 -50q-20 -19 -50 -20v0zM470 307
q-29 1 -49 21t-21 49q1 31 20 51q20 20 50 21q31 -1 51 -21t21 -51q-1 -29 -21 -49q-21 -20 -51 -21v0z" />
    <glyph glyph-name="uniFB01" unicode="&#xfb01;" horiz-adv-x="718" 
d="M664 767h-158v-148h158v148zM676 530h-388v34q0 19 10 29t31 10h104v138h-135q-88 -1 -135 -42q-48 -42 -48 -118v-51h-113v-139h113v-391h173v391h220v-391h168v530z" />
    <glyph glyph-name="uniFB02" unicode="&#xfb02;" horiz-adv-x="724" 
d="M508 730v-200h-220v34q0 19 10 29t31 10h104v138h-135q-88 -1 -135 -42q-48 -42 -48 -118v-51h-113v-139h113v-391h173v391h220v-391h173v730h-173z" />
    <glyph glyph-name="uniFEFF" unicode="&#xfeff;" horiz-adv-x="0" 
 />
    <glyph glyph-name="glyph120" horiz-adv-x="704" 
d="M262 0h178v566h246v155h-668v-155h244v-566z" />
    <glyph glyph-name="glyph122" horiz-adv-x="704" 
d="M686 566v155h-668v-155h244v-151h-128v-131h128v-284h178v284h130v131h-130v151h246z" />
    <glyph glyph-name="glyph124" horiz-adv-x="704" 
d="M437 771l79 81l-81 72l-82 -87l-82 87l-81 -72l79 -81h168zM18 721v-155h244v-566h178v566h246v155h-668z" />
    <glyph glyph-name="glyph126" horiz-adv-x="704" 
d="M440 0v566h246v155h-668v-155h244v-566h37l-58 -96l65 -26q25 19 55 19q20 0 32 -8t12 -21q0 -16 -13 -25q-12 -9 -35 -9q-18 0 -37 6q-18 5 -41 18l-44 -85q61 -33 133 -33q63 1 101 33q37 32 38 87q-1 49 -33 78t-87 30q-7 0 -14 -1q-7 0 -14 -1l23 34h58z" />
    <glyph glyph-name="glyph128" horiz-adv-x="704" 
d="M262 0h178v566h246v155h-668v-155h244v-566zM285 -307q70 6 105 43t35 101v113h-144v-132h52q1 -27 -10 -40q-10 -13 -38 -19v-66z" />
    <glyph glyph-name="glyph130" horiz-adv-x="704" 
d="M262 0h178v566h246v155h-668v-155h244v-566zM284 -187h138v137h-138v-137z" />
    <glyph glyph-name="glyph230" horiz-adv-x="259" 
d="M42 612h173v162h-173v-162zM43 0h173v530h-173v-530z" />
    <glyph glyph-name="glyph332" horiz-adv-x="300" 
d="M110 417q29 0 51 9q22 8 35 24h1v-26h82v174q-1 50 -36 79t-95 30q-55 -1 -93 -26q-39 -25 -48 -68l84 -18q5 20 20 30q15 11 37 11q19 0 29 -5q10 -6 10 -15t-12 -14q-13 -6 -45 -12q-65 -12 -94 -33q-30 -21 -29 -56q0 -39 28 -61q27 -23 75 -23v0zM127 488
q-32 0 -32 19q0 10 11 16q12 6 40 12q39 9 45 19h1v-22q-1 -18 -19 -31q-18 -12 -46 -13v0z" />
    <glyph glyph-name="glyph333" horiz-adv-x="353" 
d="M201 707q-23 0 -43 -6t-34 -17h-1v120h-101v-380h94v22h1q14 -14 35 -21q22 -8 49 -8q65 1 104 41q40 40 41 104q-1 64 -41 104q-39 40 -104 41v0zM181 503q-25 0 -41 14q-16 13 -17 34v23q1 21 17 34t41 13q31 0 47 -16q17 -16 17 -43t-17 -43q-16 -16 -47 -16v0z" />
    <glyph glyph-name="glyph334" horiz-adv-x="320" 
d="M165 417q57 1 97 28q41 28 52 75l-93 23q-5 -20 -19 -30t-37 -10q-27 0 -42 16q-16 16 -16 43t16 43q15 16 42 16q23 0 37 -10t19 -30l93 23q-11 47 -52 75q-40 27 -97 28q-71 -1 -114 -40t-44 -105q1 -65 44 -105q43 -39 114 -40v0z" />
    <glyph glyph-name="glyph335" horiz-adv-x="353" 
d="M152 707q-65 -1 -104 -41q-40 -40 -41 -104q1 -64 41 -104q39 -40 104 -41q27 0 49 8q21 7 35 21h1v-22h94v380h-101v-120h-1q-14 11 -34 17t-43 6v0zM172 503q-31 0 -47 16q-17 16 -17 43t17 43q16 16 47 16q25 0 41 -13t17 -34v-23q-1 -21 -17 -34q-16 -14 -41 -14v0z
" />
    <glyph glyph-name="glyph336" horiz-adv-x="326" 
d="M319 562q-1 62 -43 103q-41 41 -112 42q-70 -1 -113 -41q-43 -39 -44 -104q1 -67 46 -106q44 -38 117 -39q40 0 74 11t62 32l-43 64q-25 -17 -46 -25t-44 -8q-28 0 -45 11t-22 29h213v31zM105 590q3 20 18 32q16 12 41 12t40 -11q16 -12 19 -33h-118z" />
    <glyph glyph-name="glyph337" horiz-adv-x="253" 
d="M60 424h101v191h92v85h-92v20q0 9 5 14q4 5 14 5h52v82h-67q-51 0 -78 -24q-27 -23 -27 -70v-27h-60v-85h60v-191z" />
    <glyph glyph-name="glyph338" horiz-adv-x="358" 
d="M174 296q75 1 118 40q43 40 44 109v255h-93v-21h-1q-15 13 -38 20q-23 8 -50 8q-66 -1 -106 -40t-41 -103q1 -64 42 -102t110 -39q26 0 47 7t35 19h1v-12q0 -27 -19 -44q-19 -16 -50 -17q-26 0 -47 9q-22 9 -42 31l-61 -59q27 -28 65 -44q38 -17 86 -17v0zM172 505
q-30 0 -47 16q-18 16 -18 44q0 27 18 44q17 16 47 16q27 0 45 -14q17 -13 18 -34v-24q0 -21 -18 -34q-17 -14 -45 -14v0z" />
    <glyph glyph-name="glyph339" horiz-adv-x="367" 
d="M22 424h100v137q0 27 17 43q17 15 47 15q31 0 47 -15q17 -14 17 -43v-137h101v155q-1 61 -37 94q-37 34 -99 34q-29 0 -52 -8q-23 -7 -39 -21h-2v126h-100v-380z" />
    <glyph glyph-name="glyph340" horiz-adv-x="144" 
d="M24 747h97v92h-97v-92zM22 424h100v276h-100v-276z" />
    <glyph glyph-name="glyph341" horiz-adv-x="147" 
d="M26 747h97v92h-97v-92zM-50 296h58q61 0 89 27q29 27 29 85v292h-101v-283q0 -25 -28 -25h-47v-96z" />
    <glyph glyph-name="glyph342" horiz-adv-x="351" 
d="M22 424h100v77l38 32h1l80 -109h119l-132 168l127 108h-134l-98 -88h-1v192h-100v-380z" />
    <glyph glyph-name="glyph343" horiz-adv-x="144" 
d="M22 424h100v380h-100v-380z" />
    <glyph glyph-name="glyph344" horiz-adv-x="551" 
d="M22 424h100v149q0 22 15 35t40 13q26 0 40 -13t14 -35v-149h94v149q0 22 15 35t40 13t39 -13q15 -13 15 -35v-149h101v168q-1 53 -37 84q-36 30 -98 31q-32 0 -57 -10q-26 -10 -41 -27h-1q-15 17 -39 27q-25 10 -56 10q-27 0 -49 -9q-23 -9 -38 -26h-1v28h-96v-276z" />
    <glyph glyph-name="glyph345" horiz-adv-x="367" 
d="M22 424h100v137q0 27 17 44q17 16 47 16q32 0 48 -16q16 -15 16 -44v-137h101v154q-1 61 -37 95q-37 33 -99 34q-31 0 -56 -9q-25 -8 -41 -25h-1v27h-95v-276z" />
    <glyph glyph-name="glyph346" horiz-adv-x="337" 
d="M168 417q71 1 116 41t46 104q-1 64 -46 104t-116 41q-71 -1 -115 -41q-45 -40 -46 -104q1 -64 46 -104q44 -40 115 -41v0zM168 503q-27 0 -44 16t-17 43t17 43t44 16q28 0 45 -16t17 -43t-17 -43t-45 -16v0z" />
    <glyph glyph-name="glyph347" horiz-adv-x="354" 
d="M201 707q-26 0 -47 -7q-22 -7 -36 -20h-1v20h-95v-397h100v137h1q14 -11 35 -17q20 -6 43 -6q66 1 106 41t41 104q-1 64 -41 104t-106 41v0zM182 503q-27 0 -43 14q-17 13 -17 34v23q0 21 17 34q16 13 43 13q31 0 48 -16t17 -43t-17 -43t-48 -16v0z" />
    <glyph glyph-name="glyph348" horiz-adv-x="354" 
d="M153 707q-66 -1 -106 -41t-41 -104q1 -64 41 -104t106 -41q23 0 44 6q20 6 34 17h1v-137h100v397h-95v-20h-1q-14 13 -36 20q-21 7 -47 7v0zM172 503q-31 0 -48 16t-17 43t17 43t48 16q27 0 43 -13q17 -13 17 -34v-23q0 -21 -17 -34q-16 -14 -43 -14v0z" />
    <glyph glyph-name="glyph349" horiz-adv-x="246" 
d="M197 705q-27 0 -48 -8q-20 -9 -33 -24h-1v27h-93v-276h100v103q0 45 18 66q17 20 53 20q10 0 20 -2q9 -2 20 -4l21 89q-15 5 -29 7t-28 2v0z" />
    <glyph glyph-name="glyph350" horiz-adv-x="335" 
d="M179 417q64 0 101 25q37 24 38 66q1 34 -31 55t-104 35q-33 6 -47 11q-13 5 -13 12q0 8 11 13q10 5 29 5q24 0 40 -9q16 -10 24 -28l83 23q-14 38 -53 60t-94 22q-60 -1 -97 -24q-36 -24 -37 -63q0 -34 31 -55q32 -20 101 -32q36 -6 51 -12t15 -16q0 -8 -13 -13
q-12 -5 -35 -5q-31 0 -50 12q-19 11 -28 35l-83 -30q13 -40 55 -63q42 -24 106 -24v0z" />
    <glyph glyph-name="glyph351" horiz-adv-x="242" 
d="M242 617v83h-87v72h-101v-72h-54v-83h54v-89q0 -56 27 -80q27 -25 85 -24h65v92h-53q-13 0 -18 4q-5 5 -5 15v82h87z" />
    <glyph glyph-name="glyph352" horiz-adv-x="357" 
d="M235 700v-138q0 -28 -15 -43q-15 -16 -44 -16q-59 0 -59 57v140h-100v-146q0 -66 34 -101q33 -36 96 -36q29 0 53 9q23 8 40 25h1v-27h95v276h-101z" />
    <glyph glyph-name="glyph353" horiz-adv-x="365" 
d="M137 424h90l137 276h-116l-65 -155h-1l-64 155h-116z" />
    <glyph glyph-name="glyph354" horiz-adv-x="525" 
d="M85 424h106l71 166h1l71 -166h106l84 276h-110l-39 -148h-1l-65 148h-92l-65 -148h-1l-39 148h-110z" />
    <glyph glyph-name="glyph355" horiz-adv-x="369" 
d="M2 424h123l59 76h1l59 -76h124l-121 142l115 134h-123l-55 -74h-1l-57 74h-123l117 -138z" />
    <glyph glyph-name="glyph356" horiz-adv-x="357" 
d="M253 700l-74 -158h-1l-72 158h-104l127 -252l-73 -145h104l196 397h-103z" />
    <glyph glyph-name="glyph357" horiz-adv-x="318" 
d="M2 424h314v82h-169v1l166 122v71h-307v-82h161v-1l-165 -122v-71z" />
    <glyph glyph-name="glyph358" horiz-adv-x="659" 
d="M445 530v-42h-2q-27 24 -67 39t-86 15q-118 -2 -192 -78q-73 -75 -75 -199q2 -123 75 -199q74 -76 192 -78q49 0 89 16q39 16 64 43h2v-47h168v530h-168zM323 139q-59 1 -93 34q-33 34 -34 93q1 61 34 95q34 33 93 34q51 -1 84 -28q32 -28 33 -70v-61q-1 -42 -33 -69
q-33 -27 -84 -28v0z" />
    <glyph glyph-name="glyph359" horiz-adv-x="659" 
d="M245 602h136l143 145h-171zM445 530v-42h-2q-27 24 -67 39t-86 15q-118 -2 -192 -78q-73 -75 -75 -199q2 -123 75 -199q74 -76 192 -78q49 0 89 16q39 16 64 43h2v-47h168v530h-168zM323 139q-59 1 -93 34q-33 34 -34 93q1 61 34 95q34 33 93 34q51 -1 84 -28
q32 -28 33 -70v-61q-1 -42 -33 -69q-33 -27 -84 -28v0z" />
    <glyph glyph-name="glyph360" horiz-adv-x="659" 
d="M334 592q73 1 118 39q46 38 56 107h-89q-8 -22 -30 -34q-23 -13 -55 -13q-33 0 -55 13q-23 12 -32 34h-88q10 -69 56 -107t119 -39v0zM445 530v-42h-2q-27 24 -67 39t-86 15q-118 -2 -192 -78q-73 -75 -75 -199q2 -123 75 -199q74 -76 192 -78q49 0 89 16q39 16 64 43h2
v-47h168v530h-168zM323 139q-59 1 -93 34q-33 34 -34 93q1 61 34 95q34 33 93 34q51 -1 84 -28q32 -28 33 -70v-61q-1 -42 -33 -69q-33 -27 -84 -28v0z" />
    <glyph glyph-name="glyph361" horiz-adv-x="659" 
d="M417 592l79 81l-81 72l-82 -87l-82 87l-81 -72l79 -81h168zM445 530v-42h-2q-27 24 -67 39t-86 15q-118 -2 -192 -78q-73 -75 -75 -199q2 -123 75 -199q74 -76 192 -78q49 0 89 16q39 16 64 43h2v-47h168v530h-168zM440 236q-1 -42 -33 -69q-33 -27 -84 -28q-59 1 -93 34
q-33 34 -34 93q1 61 34 95q34 33 93 34q51 -1 84 -28q32 -28 33 -70v-61z" />
    <glyph glyph-name="glyph362" horiz-adv-x="659" 
d="M333 670l82 -88l81 73l-79 80h-168l-79 -80l81 -73zM445 530v-42h-2q-27 24 -67 39t-86 15q-118 -2 -192 -78q-73 -75 -75 -199q2 -123 75 -199q74 -76 192 -78q49 0 89 16q39 16 64 43h2v-47h168v530h-168zM440 236q-1 -42 -33 -69q-33 -27 -84 -28q-59 1 -93 34
q-33 34 -34 93q1 61 34 95q34 33 93 34q51 -1 84 -28q32 -28 33 -70v-61z" />
    <glyph glyph-name="glyph363" horiz-adv-x="659" 
d="M333 670l82 -88l81 73l-79 80h-168l-79 -80l81 -73zM445 530v-42h-2q-27 24 -67 39t-86 15q-118 -2 -192 -78q-73 -75 -75 -199q2 -123 75 -199q74 -76 192 -78q49 0 89 16q39 16 64 43h2v-47h168v530h-168zM440 236q-1 -42 -33 -69q-33 -27 -84 -28q-59 1 -93 34
q-33 34 -34 93q1 61 34 95q34 33 93 34q51 -1 84 -28q32 -28 33 -70v-61zM264 -199h138v137h-138v-137z" />
    <glyph glyph-name="glyph364" horiz-adv-x="659" 
d="M150 592h139v138h-139v-138zM376 592h139v138h-139v-138zM445 530v-42h-2q-27 24 -67 39t-86 15q-118 -2 -192 -78q-73 -75 -75 -199q2 -123 75 -199q74 -76 192 -78q49 0 89 16q39 16 64 43h2v-47h168v530h-168zM323 139q-59 1 -93 34q-33 34 -34 93q1 61 34 95
q34 33 93 34q51 -1 84 -28q32 -28 33 -70v-61q-1 -42 -33 -69q-33 -27 -84 -28v0z" />
    <glyph glyph-name="glyph365" horiz-adv-x="659" 
d="M149 770h366v99h-366v-99zM150 592h139v138h-139v-138zM376 592h139v138h-139v-138zM445 530v-42h-2q-27 24 -67 39t-86 15q-118 -2 -192 -78q-73 -75 -75 -199q2 -123 75 -199q74 -76 192 -78q49 0 89 16q39 16 64 43h2v-47h168v530h-168zM323 139q-59 1 -93 34
q-33 34 -34 93q1 61 34 95q34 33 93 34q51 -1 84 -28q32 -28 33 -70v-61q-1 -42 -33 -69q-33 -27 -84 -28v0z" />
    <glyph glyph-name="glyph366" horiz-adv-x="659" 
d="M445 530v-42h-2q-27 24 -67 39t-86 15q-118 -2 -192 -78q-73 -75 -75 -199q2 -123 75 -199q74 -76 192 -78q49 0 89 16q39 16 64 43h2v-47h168v530h-168zM323 139q-59 1 -93 34q-33 34 -34 93q1 61 34 95q34 33 93 34q51 -1 84 -28q32 -28 33 -70v-61q-1 -42 -33 -69
q-33 -27 -84 -28v0zM264 -199h138v137h-138v-137z" />
    <glyph glyph-name="glyph367" horiz-adv-x="659" 
d="M281 602h135l-108 145h-171zM445 530v-42h-2q-27 24 -67 39t-86 15q-118 -2 -192 -78q-73 -75 -75 -199q2 -123 75 -199q74 -76 192 -78q49 0 89 16q39 16 64 43h2v-47h168v530h-168zM323 139q-59 1 -93 34q-33 34 -34 93q1 61 34 95q34 33 93 34q51 -1 84 -28
q32 -28 33 -70v-61q-1 -42 -33 -69q-33 -27 -84 -28v0z" />
    <glyph glyph-name="glyph368" horiz-adv-x="659" 
d="M149 602h366v99h-366v-99zM445 530v-42h-2q-27 24 -67 39t-86 15q-118 -2 -192 -78q-73 -75 -75 -199q2 -123 75 -199q74 -76 192 -78q49 0 89 16q39 16 64 43h2v-47h168v530h-168zM323 139q-59 1 -93 34q-33 34 -34 93q1 61 34 95q34 33 93 34q51 -1 84 -28
q32 -28 33 -70v-61q-1 -42 -33 -69q-33 -27 -84 -28v0z" />
    <glyph glyph-name="glyph369" horiz-adv-x="659" 
d="M597 -98q-14 -8 -28 -12t-26 -4q-13 0 -19 7q-7 6 -7 18q0 18 16 40t52 49h28v530h-168v-42h-2q-27 24 -67 39t-86 15q-118 -2 -192 -78q-73 -75 -75 -199q2 -123 75 -199q74 -76 192 -78q49 0 89 16q39 16 64 43h2v-47h47q-44 -29 -64 -61q-19 -31 -19 -63q1 -46 31 -69
q31 -24 84 -24q60 0 111 26zM440 236q-1 -42 -33 -69q-33 -27 -84 -28q-59 1 -93 34q-33 34 -34 93q1 61 34 95q34 33 93 34q51 -1 84 -28q32 -28 33 -70v-61z" />
    <glyph glyph-name="glyph370" horiz-adv-x="666" 
d="M299 570q64 1 105 36q40 35 41 92q-1 57 -41 93q-41 35 -105 36q-64 -1 -104 -36q-41 -36 -42 -93q1 -57 42 -92q40 -35 104 -36v0zM299 639q-27 0 -44 16q-16 16 -17 43q1 27 17 43q17 17 44 17t44 -17q16 -16 16 -43t-16 -43q-17 -16 -44 -16v0zM445 530v-42h-2
q-27 24 -67 39t-86 15q-118 -2 -192 -78q-73 -75 -75 -199q2 -123 75 -199q74 -76 192 -78q49 0 89 16q39 16 64 43h2v-47h168v530h-168zM323 139q-59 1 -93 34q-33 34 -34 93q1 61 34 95q34 33 93 34q51 -1 84 -28q32 -28 33 -70v-61q-1 -42 -33 -69q-33 -27 -84 -28v0z
" />
    <glyph glyph-name="glyph371" horiz-adv-x="656" 
d="M299 570q64 1 105 36q40 35 41 92q0 36 -17 64q-18 28 -48 45l134 136h-171l-91 -122q-45 -13 -72 -45q-26 -32 -27 -78q1 -57 42 -92q40 -35 104 -36v0zM299 639q-27 0 -44 16q-16 16 -17 43q1 27 17 43q17 17 44 17t44 -17q16 -16 16 -43t-16 -43q-17 -16 -44 -16v0z
M445 530v-42h-2q-27 24 -67 39t-86 15q-118 -2 -192 -78q-73 -75 -75 -199q2 -123 75 -199q74 -76 192 -78q49 0 89 16q39 16 64 43h2v-47h168v530h-168zM440 236q-1 -42 -33 -69q-33 -27 -84 -28q-59 1 -93 34q-33 34 -34 93q1 61 34 95q34 33 93 34q51 -1 84 -28
q32 -28 33 -70v-61z" />
    <glyph glyph-name="glyph372" horiz-adv-x="659" 
d="M416 596q52 0 84 34q31 34 35 97h-83q-4 -17 -15 -26q-11 -8 -28 -8q-31 3 -70 20q-38 18 -88 20q-54 0 -85 -34q-32 -34 -35 -97h83q5 19 15 27q11 9 27 9q32 -3 71 -21q38 -18 89 -21v0zM445 530v-42h-2q-27 24 -67 39t-86 15q-118 -2 -192 -78q-73 -75 -75 -199
q2 -123 75 -199q74 -76 192 -78q49 0 89 16q39 16 64 43h2v-47h168v530h-168zM323 139q-59 1 -93 34q-33 34 -34 93q1 61 34 95q34 33 93 34q51 -1 84 -28q32 -28 33 -70v-61q-1 -42 -33 -69q-33 -27 -84 -28v0z" />
    <glyph glyph-name="glyph373" horiz-adv-x="606" 
d="M433 527q15 18 24 40q8 22 8 48q-1 63 -46 103q-45 39 -117 40q-71 -1 -116 -40q-45 -40 -46 -103q0 -26 9 -49q8 -22 24 -40q-61 -24 -100 -66q-39 -43 -49 -100l158 -28q10 42 42 66q33 24 83 24q39 0 62 -13q22 -13 23 -35q1 -19 -27 -31q-28 -13 -101 -23
q-126 -17 -183 -58t-56 -113q1 -76 55 -119q54 -44 148 -45q59 0 105 18q46 17 76 50h2v-53h157v330q0 71 -36 121q-35 50 -99 76v0zM235 615q1 30 19 48t48 18t49 -18q18 -18 18 -48t-18 -48q-19 -18 -49 -18t-48 18t-19 48v0zM401 201q-1 -35 -40 -58q-38 -24 -95 -25
q-37 0 -56 10q-18 10 -18 30q-1 20 24 33q24 12 83 24q47 9 70 18t30 21h2v-53z" />
    <glyph glyph-name="glyph374" horiz-adv-x="606" 
d="M433 527q15 18 24 40q8 22 8 48q-1 48 -27 83q-27 34 -73 50l128 130h-171l-103 -139q-36 -18 -57 -50q-22 -32 -22 -74q0 -26 9 -49q8 -22 24 -40q-61 -24 -100 -66q-39 -43 -49 -100l158 -28q10 42 42 66q33 24 83 24q39 0 62 -13q22 -13 23 -35q1 -19 -27 -31
q-28 -13 -101 -23q-126 -17 -183 -58t-56 -113q1 -76 55 -119q54 -44 148 -45q59 0 105 18q46 17 76 50h2v-53h157v330q0 71 -36 121q-35 50 -99 76v0zM235 615q1 30 19 48t48 18t49 -18q18 -18 18 -48t-18 -48q-19 -18 -49 -18t-48 18t-19 48v0zM401 201q-1 -35 -40 -58
q-38 -24 -95 -25q-37 0 -56 10q-18 10 -18 30q-1 20 24 33q24 12 83 24q47 9 70 18t30 21h2v-53z" />
    <glyph glyph-name="glyph375" horiz-adv-x="437" 
d="M115 0h173v391h124v139h-124v34q0 19 10 29t31 10h104v138h-135q-88 -1 -135 -42q-48 -42 -48 -118v-51h-113v-139h113v-391z" />
    <glyph glyph-name="glyph376" horiz-adv-x="259" 
d="M42 612h173v162h-173v-162zM42 -225h173v755h-173v-755z" />
    <glyph glyph-name="glyph377" horiz-adv-x="428" 
d="M330 156q-27 0 -39 10q-11 10 -11 34v191h122v139h-122v137h-173v-137h-105v-139h105v-207q-1 -92 47 -138q47 -46 150 -46h115v156h-89z" />
    <glyph glyph-name="glyph378" horiz-adv-x="2514" 
d="M184 0h185l170 447h2l169 -447h137l170 447h2l169 -447h136l171 447h2l169 -447h136l170 447h2l170 -447h186l177 700h-183l-111 -455h-2l-168 455h-139l-168 -455h-2l-168 455h-140l-168 -455h-2l-168 455h-140l-168 -455h-2l-168 455h-140l-167 -455h-2l-110 455h-184z
" />
    <glyph glyph-name="glyph381" horiz-adv-x="2225" 
d="M161 0h175l146 350h2l145 -350h127l146 350h2l145 -350h127l146 350h2l145 -350h127l146 350h2l145 -350h175l150 530h-176l-84 -321h-2l-134 321h-151l-133 -321h-2l-134 321h-151l-133 -321h-2l-134 321h-151l-133 -321h-2l-134 321h-151l-133 -321h-2l-85 321h-175z
" />
    <glyph glyph-name="glyph398" horiz-adv-x="731" 
d="M365 -19q157 3 249 104q92 100 94 265q-2 165 -94 266q-92 100 -249 103q-156 -3 -248 -103q-92 -101 -94 -266q2 -165 94 -265q92 -101 248 -104v0zM365 140q-77 1 -120 56t-44 154q1 99 44 154t120 56q78 -1 121 -56t44 -154q-1 -99 -44 -154t-121 -56v0z" />
    <glyph glyph-name="glyph399" horiz-adv-x="495" 
d="M239 0h178v700h-165l-234 -122v-180l221 116v-514z" />
    <glyph glyph-name="glyph400" horiz-adv-x="694" 
d="M258 192q14 13 50 27q35 14 106 35q125 36 184 93t58 148q-2 97 -79 160q-78 62 -208 64q-141 -2 -231 -74q-90 -73 -103 -197l174 -17q8 64 50 100q43 35 110 36q52 -1 81 -21q29 -21 29 -54q3 -36 -35 -62q-37 -26 -144 -57q-73 -21 -122 -47q-48 -27 -80 -63
q-27 -30 -40 -66q-13 -37 -13 -85v-112h605v155h-412q1 12 5 21q5 8 15 16v0z" />
    <glyph glyph-name="glyph401" horiz-adv-x="704" 
d="M363 -19q140 1 221 61q80 59 82 162q0 54 -27 98t-77 69v2q44 26 65 60q22 35 22 77q-2 92 -82 150q-79 57 -207 59q-129 -1 -214 -62q-84 -60 -106 -167l171 -31q12 53 50 81q37 28 97 28q53 0 82 -21q30 -21 30 -58q0 -67 -97 -67h-88v-130h98q53 0 79 -19
q26 -18 26 -56q0 -41 -33 -63q-32 -22 -94 -22q-135 0 -163 131l-170 -46q22 -109 111 -172t224 -64v0z" />
    <glyph glyph-name="glyph402" horiz-adv-x="712" 
d="M422 0h178v108h99v157h-99v435h-289l-309 -432v-160h420v-108zM188 265l232 323h2v-323h-234z" />
    <glyph glyph-name="glyph403" horiz-adv-x="694" 
d="M354 -19q148 2 234 68q86 67 88 181q-2 109 -82 178q-80 68 -208 70q-52 0 -94 -10q-42 -11 -77 -32l-2 1l19 110h368v153h-503l-63 -370l165 -44q30 24 67 40q38 16 88 17q67 -1 105 -29q37 -28 38 -73q-1 -47 -39 -75t-104 -29q-62 0 -104 23q-43 24 -63 76l-163 -63
q30 -86 115 -138q85 -53 215 -54v0z" />
    <glyph glyph-name="glyph404" horiz-adv-x="704" 
d="M401 466q-57 0 -105 -14q-48 -15 -81 -42h-2q8 76 50 117t114 41q48 0 83 -22q34 -21 49 -62l162 48q-28 85 -106 135t-190 51q-158 -3 -254 -103q-95 -101 -98 -269q1 -172 95 -267q93 -96 260 -97q136 2 223 67t90 175q-2 106 -81 173t-209 69v0zM376 132
q-66 1 -106 29t-41 74q1 47 41 76q39 28 106 29q66 -1 104 -28q37 -28 38 -77q-1 -48 -38 -75q-38 -28 -104 -28v0z" />
    <glyph glyph-name="glyph405" horiz-adv-x="620" 
d="M91 0h211l305 559v141h-604v-155h394v-2z" />
    <glyph glyph-name="glyph406" horiz-adv-x="688" 
d="M344 -19q146 1 240 62q93 60 96 161q-1 62 -38 111q-37 48 -101 71v2q44 23 69 57t25 79q-2 90 -81 142q-80 52 -210 53q-130 -1 -210 -53q-79 -52 -81 -142q0 -45 25 -79t68 -57v-2q-63 -23 -100 -71q-37 -49 -38 -111q3 -101 96 -161q94 -60 240 -62v0zM344 441
q-54 0 -84 20q-30 19 -31 53q0 33 31 52q30 18 84 18t85 -18q30 -19 30 -52q0 -34 -30 -53q-31 -20 -85 -20v0zM344 143q-70 0 -109 22q-39 21 -40 60q1 38 40 61t109 24q70 -1 109 -24t40 -61q-1 -39 -40 -60q-39 -22 -109 -22v0z" />
    <glyph glyph-name="glyph407" horiz-adv-x="664" 
d="M317 718q-138 -2 -220 -72q-82 -69 -84 -178q2 -105 79 -171q78 -65 207 -67q53 0 95 13t71 34q-6 -76 -41 -112q-35 -37 -93 -37q-51 0 -81 21q-31 22 -47 68l-156 -49q24 -85 97 -135q72 -50 187 -51q150 0 230 98q79 97 80 292q-1 165 -85 255t-239 91v0zM184 469
q1 48 37 76q36 27 100 27q64 -1 101 -30q36 -29 37 -74q-1 -49 -37 -76q-37 -27 -101 -27t-100 28q-36 27 -37 76v0z" />
    <glyph glyph-name="glyph408" 
d="M359 -19q157 3 249 104q92 100 94 265q-2 165 -94 266q-92 100 -249 103q-156 -3 -248 -103q-92 -101 -94 -266q2 -165 94 -265q92 -101 248 -104v0zM359 140q-77 1 -120 56t-44 154q1 99 44 154t120 56q78 -1 121 -56t44 -154q-1 -99 -44 -154t-121 -56v0z" />
    <glyph glyph-name="glyph409" 
d="M455 155v545h-165l-234 -122v-180l221 116v-359h-219v-155h606v155h-209z" />
    <glyph glyph-name="glyph410" 
d="M272 192q14 13 50 27q35 14 106 35q125 36 184 93t58 148q-2 97 -79 160q-78 62 -208 64q-141 -2 -231 -74q-90 -73 -103 -197l174 -17q8 64 50 100q43 35 110 36q52 -1 81 -21q29 -21 29 -54q3 -36 -35 -62q-37 -26 -144 -57q-73 -21 -122 -47q-48 -27 -80 -63
q-27 -30 -40 -66q-13 -37 -13 -85v-112h605v155h-412q1 12 5 21q5 8 15 16v0z" />
    <glyph glyph-name="glyph411" 
d="M376 -19q140 1 221 61q80 59 82 162q0 54 -27 98t-77 69v2q44 26 65 60q22 35 22 77q-2 92 -82 150q-79 57 -207 59q-129 -1 -214 -62q-84 -60 -106 -167l171 -31q12 53 50 81q37 28 97 28q53 0 82 -21q30 -21 30 -58q0 -67 -97 -67h-88v-130h98q53 0 79 -19
q26 -18 26 -56q0 -41 -33 -63q-32 -22 -94 -22q-135 0 -163 131l-170 -46q22 -109 111 -172t224 -64v0z" />
    <glyph glyph-name="glyph412" 
d="M431 0h178v108h99v157h-99v435h-289l-309 -432v-160h420v-108zM197 265l232 323h2v-323h-234z" />
    <glyph glyph-name="glyph413" 
d="M364 -19q148 2 234 68q86 67 88 181q-2 109 -82 178q-80 68 -208 70q-52 0 -94 -10q-42 -11 -77 -32l-2 1l19 110h368v153h-503l-63 -370l165 -44q30 24 67 40q38 16 88 17q67 -1 105 -29q37 -28 38 -73q-1 -47 -39 -75t-104 -29q-62 0 -104 23q-43 24 -63 76l-163 -63
q30 -86 115 -138q85 -53 215 -54v0z" />
    <glyph glyph-name="glyph414" 
d="M401 466q-57 0 -105 -14q-48 -15 -81 -42h-2q8 76 50 117t114 41q48 0 83 -22q34 -21 49 -62l162 48q-28 85 -106 135t-190 51q-158 -3 -254 -103q-95 -101 -98 -269q1 -172 95 -267q93 -96 260 -97q136 2 223 67t90 175q-2 106 -81 173t-209 69v0zM376 132
q-66 1 -106 29t-41 74q1 47 41 76q39 28 106 29q66 -1 104 -28q37 -28 38 -77q-1 -48 -38 -75q-38 -28 -104 -28v0z" />
    <glyph glyph-name="glyph415" 
d="M146 0h211l305 559v141h-604v-155h394v-2z" />
    <glyph glyph-name="glyph416" 
d="M363 -19q146 1 240 62q93 60 96 161q-1 62 -38 111q-37 48 -101 71v2q44 23 69 57t25 79q-2 90 -81 142q-80 52 -210 53q-130 -1 -210 -53q-79 -52 -81 -142q0 -45 25 -79t68 -57v-2q-63 -23 -100 -71q-37 -49 -38 -111q3 -101 96 -161q94 -60 240 -62v0zM363 441
q-54 0 -84 20q-30 19 -31 53q0 33 31 52q30 18 84 18t85 -18q30 -19 30 -52q0 -34 -30 -53q-31 -20 -85 -20v0zM363 143q-70 0 -109 22q-39 21 -40 60q1 38 40 61t109 24q70 -1 109 -24t40 -61q-1 -39 -40 -60q-39 -22 -109 -22v0z" />
    <glyph glyph-name="glyph417" 
d="M347 718q-138 -2 -220 -72q-82 -69 -84 -178q2 -105 79 -171q78 -65 207 -67q53 0 95 13t71 34q-6 -76 -41 -112q-35 -37 -93 -37q-51 0 -81 21q-31 22 -47 68l-156 -49q24 -85 97 -135q72 -50 187 -51q150 0 230 98q79 97 80 292q-1 165 -85 255t-239 91v0zM214 469
q1 48 37 76q36 27 100 27q64 -1 101 -30q36 -29 37 -74q-1 -49 -37 -76q-37 -27 -101 -27t-100 28q-36 27 -37 76v0z" />
    <glyph glyph-name="glyph418" horiz-adv-x="729" 
d="M365 690q-156 -3 -248 -100t-94 -254q2 -157 94 -255q92 -97 248 -100q155 3 247 100q92 98 94 255q-2 157 -94 254t-247 100v0zM365 541q14 0 27 -2q13 -1 24 -5l-192 -328q-16 26 -24 58q-8 33 -8 72q1 96 46 150q46 54 127 55v0zM365 130q-30 0 -55 8l194 330
q16 -26 24 -59q9 -33 9 -73q-1 -96 -46 -150q-46 -55 -126 -56v0z" />
    <glyph glyph-name="glyph419" horiz-adv-x="731" 
d="M365 719q-156 -3 -248 -103q-92 -101 -94 -266q2 -165 94 -265q92 -101 248 -104q157 3 249 104q92 100 94 265q-2 165 -94 266q-92 100 -249 103v0zM365 573q33 0 60 -10l-205 -347q-13 27 -20 61q-7 33 -7 73q1 106 46 164q46 58 126 59v0zM365 127q-34 0 -63 11
l206 352q14 -27 22 -62t8 -78q-1 -106 -46 -164t-127 -59v0z" />
    <glyph glyph-name="glyph420" 
d="M359 719q-156 -3 -248 -103q-92 -101 -94 -266q2 -165 94 -265q92 -101 248 -104q157 3 249 104q92 100 94 265q-2 165 -94 266q-92 100 -249 103v0zM359 573q33 0 60 -10l-205 -347q-13 27 -20 61q-7 33 -7 73q1 106 46 164q46 58 126 59v0zM359 127q-34 0 -63 11
l206 352q14 -27 22 -62t8 -78q-1 -106 -46 -164t-127 -59v0z" />
    <glyph glyph-name="glyph421" horiz-adv-x="454" 
d="M227 -159q95 2 151 62q57 60 58 157q-1 97 -58 157q-56 60 -151 62q-95 -2 -151 -62q-57 -60 -58 -157q1 -97 58 -157q56 -60 151 -62v0zM227 -58q-45 1 -70 32t-25 86t25 86t70 32q45 -1 70 -32q24 -31 24 -86t-24 -86q-25 -31 -70 -32v0z" />
    <glyph glyph-name="glyph422" horiz-adv-x="315" 
d="M139 -150h115v420h-104l-137 -73v-120l126 68v-295z" />
    <glyph glyph-name="glyph423" horiz-adv-x="412" 
d="M160 -31q6 6 23 13q17 6 58 18q80 21 117 56q36 34 36 85q-1 62 -50 99q-49 38 -128 39q-85 -1 -139 -45q-53 -45 -59 -117l111 -10q4 36 28 55q24 20 59 20q28 0 46 -11q17 -12 18 -30q1 -17 -20 -31q-21 -13 -80 -30q-48 -14 -76 -29q-29 -14 -46 -32q-15 -16 -24 -40
q-9 -25 -9 -58v-71h366v101h-242q1 6 4 10t7 8v0z" />
    <glyph glyph-name="glyph424" horiz-adv-x="408" 
d="M210 -159q83 1 131 38q48 36 49 94q0 33 -16 58t-45 39v1q23 14 35 35q12 20 12 46q-2 58 -49 92q-48 34 -123 35q-77 -1 -125 -38q-48 -36 -61 -96l105 -20q6 28 26 45q21 17 55 17q30 0 46 -12q17 -11 17 -33q0 -18 -14 -28q-14 -11 -43 -11h-45v-78h51q31 0 45 -11
q15 -11 15 -32q-1 -23 -19 -35t-47 -12q-33 0 -56 18q-24 19 -33 57l-108 -28q12 -65 65 -102q53 -38 132 -39v0z" />
    <glyph glyph-name="glyph425" horiz-adv-x="445" 
d="M263 -150h114v67h61v102h-61v251h-186l-181 -251v-102h253v-67zM132 19l130 177h1v-177h-131z" />
    <glyph glyph-name="glyph426" horiz-adv-x="430" 
d="M219 -159q82 1 137 42q54 41 56 111q-1 64 -49 103t-128 40q-26 0 -49 -5t-43 -14l-1 1l13 57h213v94h-297l-46 -224l98 -27q19 17 43 26t53 9q36 -1 58 -16q21 -15 21 -39q-1 -27 -22 -42t-57 -15q-38 0 -66 14t-49 42l-86 -67q32 -41 82 -65q51 -24 119 -25v0z" />
    <glyph glyph-name="glyph427" horiz-adv-x="446" 
d="M254 130q-35 0 -65 -10q-29 -10 -50 -28h-1q3 39 28 64q25 26 66 27q53 0 69 -43l109 30q-17 51 -63 80q-47 29 -115 29q-95 -2 -154 -61q-58 -59 -60 -157q1 -99 59 -159q57 -59 160 -61q85 1 137 43q52 41 54 106q-1 63 -48 101q-48 38 -126 39v0zM235 -62
q-36 0 -56 15q-21 14 -21 40q0 25 21 40q20 16 56 16q37 0 58 -15t21 -41t-21 -40q-21 -15 -58 -15v0z" />
    <glyph glyph-name="glyph428" horiz-adv-x="355" 
d="M39 -150h137l191 328v92h-367v-101h229v-1z" />
    <glyph glyph-name="glyph429" horiz-adv-x="440" 
d="M220 -159q97 1 149 39q52 37 53 95q-1 37 -23 65q-21 28 -53 42v1q21 11 35 32q14 20 15 47q-1 52 -49 84t-127 33q-79 -1 -126 -33q-48 -32 -49 -84q1 -27 15 -47q14 -21 35 -32v-1q-32 -14 -54 -42t-23 -65q1 -58 53 -95q53 -38 149 -39v0zM220 115q-31 0 -48 11
q-18 10 -18 29t18 29q17 10 48 10t49 -10t18 -29t-18 -29q-18 -11 -49 -11v0zM220 -63q-40 0 -61 14q-20 13 -20 36t21 36q20 14 60 14q41 0 61 -14q20 -13 20 -36t-20 -36q-20 -14 -61 -14v0z" />
    <glyph glyph-name="glyph430" horiz-adv-x="432" 
d="M205 279q-85 -1 -135 -42q-51 -42 -52 -108q1 -62 49 -100q48 -37 128 -38q63 0 98 23h1q-4 -39 -27 -59q-24 -20 -58 -20q-29 0 -50 11t-36 36l-87 -54q23 -38 67 -62t106 -25q93 0 148 57q56 57 57 167q-1 99 -56 156t-153 58v0zM132 130q0 26 21 41q20 14 56 14
q35 0 56 -15t21 -40q0 -26 -20 -40q-21 -15 -57 -15t-56 15q-21 14 -21 40v0z" />
    <glyph glyph-name="glyph431" horiz-adv-x="454" 
d="M227 -9q95 2 151 62q57 60 58 157q-1 97 -58 157q-56 60 -151 62q-95 -2 -151 -62q-57 -60 -58 -157q1 -97 58 -157q56 -60 151 -62v0zM227 92q-45 1 -70 32t-25 86t25 86t70 32q45 -1 70 -32q24 -31 24 -86t-24 -86q-25 -31 -70 -32v0z" />
    <glyph glyph-name="glyph432" horiz-adv-x="315" 
d="M139 0h115v420h-104l-137 -73v-120l126 68v-295z" />
    <glyph glyph-name="glyph433" horiz-adv-x="412" 
d="M160 119q6 6 23 13q17 6 58 18q80 21 117 56q36 34 36 85q-1 62 -50 99q-49 38 -128 39q-85 -1 -139 -45q-53 -45 -59 -117l111 -10q4 36 28 55q24 20 59 20q28 0 46 -11q17 -12 18 -30q1 -17 -20 -31q-21 -13 -80 -30q-48 -14 -76 -29q-29 -14 -46 -32q-15 -16 -24 -40
q-9 -25 -9 -58v-71h366v101h-242q1 6 4 10t7 8v0z" />
    <glyph glyph-name="glyph434" horiz-adv-x="408" 
d="M210 -9q83 1 131 38q48 36 49 94q0 33 -16 58t-45 39v1q23 14 35 35q12 20 12 46q-2 58 -49 92q-48 34 -123 35q-77 -1 -125 -38q-48 -36 -61 -96l105 -20q6 28 26 45q21 17 55 17q30 0 46 -12q17 -11 17 -33q0 -18 -14 -28q-14 -11 -43 -11h-45v-78h51q31 0 45 -11
q15 -11 15 -32q-1 -23 -19 -35t-47 -12q-33 0 -56 18q-24 19 -33 57l-108 -28q12 -65 65 -102q53 -38 132 -39v0z" />
    <glyph glyph-name="glyph435" horiz-adv-x="445" 
d="M263 0h114v67h61v102h-61v251h-186l-181 -251v-102h253v-67zM132 169l130 177h1v-177h-131z" />
    <glyph glyph-name="glyph436" horiz-adv-x="430" 
d="M219 -9q82 1 137 42q54 41 56 111q-1 64 -49 103t-128 40q-26 0 -49 -5t-43 -14l-1 1l13 57h213v94h-297l-46 -224l98 -27q19 17 43 26t53 9q36 -1 58 -16q21 -15 21 -39q-1 -27 -22 -42t-57 -15q-38 0 -66 14t-49 42l-86 -67q32 -41 82 -65q51 -24 119 -25v0z" />
    <glyph glyph-name="glyph437" horiz-adv-x="446" 
d="M254 280q-35 0 -65 -10q-29 -10 -50 -28h-1q3 39 28 64q25 26 66 27q53 0 69 -43l109 30q-17 51 -63 80q-47 29 -115 29q-95 -2 -154 -61q-58 -59 -60 -157q1 -99 59 -159q57 -59 160 -61q85 1 137 43q52 41 54 106q-1 63 -48 101q-48 38 -126 39v0zM235 88q-36 0 -56 15
q-21 14 -21 40q0 25 21 40q20 16 56 16q37 0 58 -15t21 -41t-21 -40q-21 -15 -58 -15v0z" />
    <glyph glyph-name="glyph438" horiz-adv-x="355" 
d="M39 0h137l191 328v92h-367v-101h229v-1z" />
    <glyph glyph-name="glyph439" horiz-adv-x="440" 
d="M220 -9q97 1 149 39q52 37 53 95q-1 37 -23 65q-21 28 -53 42v1q21 11 35 32q14 20 15 47q-1 52 -49 84t-127 33q-79 -1 -126 -33q-48 -32 -49 -84q1 -27 15 -47q14 -21 35 -32v-1q-32 -14 -54 -42t-23 -65q1 -58 53 -95q53 -38 149 -39v0zM220 265q-31 0 -48 11
q-18 10 -18 29t18 29q17 10 48 10t49 -10t18 -29t-18 -29q-18 -11 -49 -11v0zM220 87q-40 0 -61 14q-20 13 -20 36t21 36q20 14 60 14q41 0 61 -14q20 -13 20 -36t-20 -36q-20 -14 -61 -14v0z" />
    <glyph glyph-name="glyph440" horiz-adv-x="432" 
d="M205 429q-85 -1 -135 -42q-51 -42 -52 -108q1 -62 49 -100q48 -37 128 -38q63 0 98 23h1q-4 -39 -27 -59q-24 -20 -58 -20q-29 0 -50 11t-36 36l-87 -54q23 -38 67 -62t106 -25q93 0 148 57q56 57 57 167q-1 99 -56 156t-153 58v0zM132 280q0 26 21 41q20 14 56 14
q35 0 56 -15t21 -40q0 -26 -20 -40q-21 -15 -57 -15t-56 15q-21 14 -21 40v0z" />
    <glyph glyph-name="glyph441" horiz-adv-x="454" 
d="M227 271q95 2 151 62q57 60 58 157q-1 97 -58 157q-56 60 -151 62q-95 -2 -151 -62q-57 -60 -58 -157q1 -97 58 -157q56 -60 151 -62v0zM227 372q-45 1 -70 32t-25 86t25 86t70 32q45 -1 70 -32q24 -31 24 -86t-24 -86q-25 -31 -70 -32v0z" />
    <glyph glyph-name="glyph442" horiz-adv-x="315" 
d="M139 280h115v420h-104l-137 -73v-120l126 68v-295z" />
    <glyph glyph-name="glyph443" horiz-adv-x="412" 
d="M160 399q6 6 23 13q17 6 58 18q80 21 117 56q36 34 36 85q-1 62 -50 99q-49 38 -128 39q-85 -1 -139 -45q-53 -45 -59 -117l111 -10q4 36 28 55q24 20 59 20q28 0 46 -11q17 -12 18 -30q1 -17 -20 -31q-21 -13 -80 -30q-48 -14 -76 -29q-29 -14 -46 -32q-15 -16 -24 -40
q-9 -25 -9 -58v-71h366v101h-242q1 6 4 10t7 8v0z" />
    <glyph glyph-name="glyph444" horiz-adv-x="408" 
d="M210 271q83 1 131 38q48 36 49 94q0 33 -16 58t-45 39v1q23 14 35 35q12 20 12 46q-2 58 -49 92q-48 34 -123 35q-77 -1 -125 -38q-48 -36 -61 -96l105 -20q6 28 26 45q21 17 55 17q30 0 46 -12q17 -11 17 -33q0 -18 -14 -28q-14 -11 -43 -11h-45v-78h51q31 0 45 -11
q15 -11 15 -32q-1 -23 -19 -35t-47 -12q-33 0 -56 18q-24 19 -33 57l-108 -28q12 -65 65 -102q53 -38 132 -39v0z" />
    <glyph glyph-name="glyph445" horiz-adv-x="445" 
d="M263 280h114v67h61v102h-61v251h-186l-181 -251v-102h253v-67zM132 449l130 177h1v-177h-131z" />
    <glyph glyph-name="glyph446" horiz-adv-x="430" 
d="M219 271q82 1 137 42q54 41 56 111q-1 64 -49 103t-128 40q-26 0 -49 -5t-43 -14l-1 1l13 57h213v94h-297l-46 -224l98 -27q19 17 43 26t53 9q36 -1 58 -16q21 -15 21 -39q-1 -27 -22 -42t-57 -15q-38 0 -66 14t-49 42l-86 -67q32 -41 82 -65q51 -24 119 -25v0z" />
    <glyph glyph-name="glyph447" horiz-adv-x="446" 
d="M254 560q-35 0 -65 -10q-29 -10 -50 -28h-1q3 39 28 64q25 26 66 27q53 0 69 -43l109 30q-17 51 -63 80q-47 29 -115 29q-95 -2 -154 -61q-58 -59 -60 -157q1 -99 59 -159q57 -59 160 -61q85 1 137 43q52 41 54 106q-1 63 -48 101q-48 38 -126 39v0zM235 368
q-36 0 -56 15q-21 14 -21 40q0 25 21 40q20 16 56 16q37 0 58 -15t21 -41t-21 -40q-21 -15 -58 -15v0z" />
    <glyph glyph-name="glyph448" horiz-adv-x="355" 
d="M39 280h137l191 328v92h-367v-101h229v-1z" />
    <glyph glyph-name="glyph449" horiz-adv-x="440" 
d="M220 271q97 1 149 39q52 37 53 95q-1 37 -23 65q-21 28 -53 42v1q21 11 35 32q14 20 15 47q-1 52 -49 84t-127 33q-79 -1 -126 -33q-48 -32 -49 -84q1 -27 15 -47q14 -21 35 -32v-1q-32 -14 -54 -42t-23 -65q1 -58 53 -95q53 -38 149 -39v0zM220 545q-31 0 -48 11
q-18 10 -18 29t18 29q17 10 48 10t49 -10t18 -29t-18 -29q-18 -11 -49 -11v0zM220 367q-40 0 -61 14q-20 13 -20 36t21 36q20 14 60 14q41 0 61 -14q20 -13 20 -36t-20 -36q-20 -14 -61 -14v0z" />
    <glyph glyph-name="glyph450" horiz-adv-x="432" 
d="M205 709q-85 -1 -135 -42q-51 -42 -52 -108q1 -62 49 -100q48 -37 128 -38q63 0 98 23h1q-4 -39 -27 -59q-24 -20 -58 -20q-29 0 -50 11t-36 36l-87 -54q23 -38 67 -62t106 -25q93 0 148 57q56 57 57 167q-1 99 -56 156t-153 58v0zM132 560q0 26 21 41q20 14 56 14
q35 0 56 -15t21 -40q0 -26 -20 -40q-21 -15 -57 -15t-56 15q-21 14 -21 40v0z" />
    <glyph glyph-name="glyph451" horiz-adv-x="454" 
d="M227 371q95 2 151 62q57 60 58 157q-1 97 -58 157q-56 60 -151 62q-95 -2 -151 -62q-57 -60 -58 -157q1 -97 58 -157q56 -60 151 -62v0zM227 472q-45 1 -70 32t-25 86t25 86t70 32q45 -1 70 -32q24 -31 24 -86t-24 -86q-25 -31 -70 -32v0z" />
    <glyph glyph-name="glyph452" horiz-adv-x="315" 
d="M139 380h115v420h-104l-137 -73v-120l126 68v-295z" />
    <glyph glyph-name="glyph453" horiz-adv-x="412" 
d="M160 499q6 6 23 13q17 6 58 18q80 21 117 56q36 34 36 85q-1 62 -50 99q-49 38 -128 39q-85 -1 -139 -45q-53 -45 -59 -117l111 -10q4 36 28 55q24 20 59 20q28 0 46 -11q17 -12 18 -30q1 -17 -20 -31q-21 -13 -80 -30q-48 -14 -76 -29q-29 -14 -46 -32q-15 -16 -24 -40
q-9 -25 -9 -58v-71h366v101h-242q1 6 4 10t7 8v0z" />
    <glyph glyph-name="glyph454" horiz-adv-x="408" 
d="M210 371q83 1 131 38q48 36 49 94q0 33 -16 58t-45 39v1q23 14 35 35q12 20 12 46q-2 58 -49 92q-48 34 -123 35q-77 -1 -125 -38q-48 -36 -61 -96l105 -20q6 28 26 45q21 17 55 17q30 0 46 -12q17 -11 17 -33q0 -18 -14 -28q-14 -11 -43 -11h-45v-78h51q31 0 45 -11
q15 -11 15 -32q-1 -23 -19 -35t-47 -12q-33 0 -56 18q-24 19 -33 57l-108 -28q12 -65 65 -102q53 -38 132 -39v0z" />
    <glyph glyph-name="glyph455" horiz-adv-x="445" 
d="M263 380h114v67h61v102h-61v251h-186l-181 -251v-102h253v-67zM132 549l130 177h1v-177h-131z" />
    <glyph glyph-name="glyph456" horiz-adv-x="430" 
d="M219 371q82 1 137 42q54 41 56 111q-1 64 -49 103t-128 40q-26 0 -49 -5t-43 -14l-1 1l13 57h213v94h-297l-46 -224l98 -27q19 17 43 26t53 9q36 -1 58 -16q21 -15 21 -39q-1 -27 -22 -42t-57 -15q-38 0 -66 14t-49 42l-86 -67q32 -41 82 -65q51 -24 119 -25v0z" />
    <glyph glyph-name="glyph457" horiz-adv-x="446" 
d="M254 660q-35 0 -65 -10q-29 -10 -50 -28h-1q3 39 28 64q25 26 66 27q53 0 69 -43l109 30q-17 51 -63 80q-47 29 -115 29q-95 -2 -154 -61q-58 -59 -60 -157q1 -99 59 -159q57 -59 160 -61q85 1 137 43q52 41 54 106q-1 63 -48 101q-48 38 -126 39v0zM235 468
q-36 0 -56 15q-21 14 -21 40q0 25 21 40q20 16 56 16q37 0 58 -15t21 -41t-21 -40q-21 -15 -58 -15v0z" />
    <glyph glyph-name="glyph458" horiz-adv-x="355" 
d="M39 380h137l191 328v92h-367v-101h229v-1z" />
    <glyph glyph-name="glyph459" horiz-adv-x="440" 
d="M220 371q97 1 149 39q52 37 53 95q-1 37 -23 65q-21 28 -53 42v1q21 11 35 32q14 20 15 47q-1 52 -49 84t-127 33q-79 -1 -126 -33q-48 -32 -49 -84q1 -27 15 -47q14 -21 35 -32v-1q-32 -14 -54 -42t-23 -65q1 -58 53 -95q53 -38 149 -39v0zM220 645q-31 0 -48 11
q-18 10 -18 29t18 29q17 10 48 10t49 -10t18 -29t-18 -29q-18 -11 -49 -11v0zM220 467q-40 0 -61 14q-20 13 -20 36t21 36q20 14 60 14q41 0 61 -14q20 -13 20 -36t-20 -36q-20 -14 -61 -14v0z" />
    <glyph glyph-name="glyph460" horiz-adv-x="432" 
d="M205 809q-85 -1 -135 -42q-51 -42 -52 -108q1 -62 49 -100q48 -37 128 -38q63 0 98 23h1q-4 -39 -27 -59q-24 -20 -58 -20q-29 0 -50 11t-36 36l-87 -54q23 -38 67 -62t106 -25q93 0 148 57q56 57 57 167q-1 99 -56 156t-153 58v0zM132 660q0 26 21 41q20 14 56 14
q35 0 56 -15t21 -40q0 -26 -20 -40q-21 -15 -57 -15t-56 15q-21 14 -21 40v0z" />
    <glyph glyph-name="glyph493" horiz-adv-x="429" 
d="M309 -132h107v138h-89q-32 0 -44 14q-12 15 -11 50v162q-1 42 -26 71t-66 30v2q41 1 66 30t26 71v143q-1 36 11 50q12 15 44 14h89v137h-107q-94 1 -134 -36q-40 -38 -39 -123v-135q1 -33 -11 -46q-12 -14 -44 -13h-28v-185h28q32 1 44 -13q12 -13 11 -46v-156
q-1 -85 39 -123q40 -37 134 -36v0z" />
    <glyph glyph-name="glyph494" horiz-adv-x="429" 
d="M120 -132q94 -1 134 36q40 38 39 123v156q-1 33 11 46q12 14 44 13h28v185h-28q-32 -1 -44 13q-12 13 -11 46v135q1 85 -39 123q-40 37 -134 36h-107v-137h89q32 1 44 -14q12 -14 11 -50v-143q1 -42 26 -71t66 -30v-2q-41 -1 -66 -30t-26 -71v-162q1 -35 -11 -50
q-12 -14 -44 -14h-89v-138h107z" />
    <glyph glyph-name="glyph495" horiz-adv-x="357" 
d="M63 -132h281v133h-145v647h145v132h-281v-912z" />
    <glyph glyph-name="glyph496" horiz-adv-x="357" 
d="M294 -132v912h-281v-132h145v-647h-145v-133h281z" />
    <glyph glyph-name="glyph497" horiz-adv-x="379" 
d="M277 -147l99 73q-82 106 -118 205q-37 100 -36 214q-1 114 36 214q36 99 118 205l-99 73q-99 -113 -151 -238q-53 -124 -53 -254t53 -254q52 -125 151 -238v0z" />
    <glyph glyph-name="glyph498" horiz-adv-x="379" 
d="M102 -147q99 113 152 238q52 124 52 254t-52 254q-53 125 -152 238l-99 -73q82 -106 118 -205q37 -100 36 -214q1 -114 -36 -214q-36 -99 -118 -205z" />
    <glyph glyph-name="glyph503" horiz-adv-x="848" 
d="M33 284h782v145h-782v-145z" />
    <glyph glyph-name="glyph504" horiz-adv-x="563" 
d="M33 284h497v145h-497v-145z" />
    <glyph glyph-name="glyph505" horiz-adv-x="348" 
d="M33 284h282v145h-282v-145z" />
    <glyph glyph-name="glyph506" horiz-adv-x="348" 
d="M33 284h282v145h-282v-145z" />
    <glyph glyph-name="glyph517" horiz-adv-x="567" 
d="M165 129h145l-117 195l117 194h-145l-112 -194zM379 129h145l-117 195l117 194h-145l-112 -194z" />
    <glyph glyph-name="glyph518" horiz-adv-x="567" 
d="M188 129l112 195l-112 194h-145l117 -194l-117 -195h145zM402 129l112 195l-112 194h-145l117 -194l-117 -195h145z" />
    <glyph glyph-name="glyph519" horiz-adv-x="353" 
d="M165 129h145l-117 195l117 194h-145l-112 -194z" />
    <glyph glyph-name="glyph520" horiz-adv-x="353" 
d="M188 129l112 195l-112 194h-145l117 -194l-117 -195h145z" />
    <glyph glyph-name="glyph533" horiz-adv-x="0" 
 />
    <glyph glyph-name="glyph547" 
d="M580 378v2q34 21 53 54q19 34 19 77q-2 85 -61 136q-59 52 -156 53h-35v105h-77v-105h-250v-700h250v-115h77v115h2q139 0 207 54t68 163q0 55 -26 97t-71 64v0zM241 550h82v-121h-82v121zM410 550q35 0 53 -16q18 -15 18 -44q0 -30 -18 -45q-18 -16 -53 -16h-10v121h10z
M241 150v143h82v-143h-82zM426 150h-26v143h27q40 0 60 -18t20 -53q0 -36 -19 -54q-20 -18 -62 -18v0z" />
    <glyph glyph-name="glyph548" 
d="M410 133v264q36 -8 61 -29q24 -22 35 -56l157 47q-23 77 -90 127q-67 49 -163 60v89h-77v-89q-122 -13 -198 -89t-78 -192q2 -116 78 -192t198 -89v-99h77v99q96 11 163 60q67 50 90 127l-157 47q-11 -33 -35 -55q-25 -22 -61 -30v0zM225 265q1 52 30 87t78 45v-264
q-49 11 -78 45q-29 35 -30 87v0z" />
    <glyph glyph-name="glyph549" 
d="M594 330q0 41 -11 77q-10 36 -30 66l66 67l-47 47l-64 -64q-30 25 -68 38q-37 14 -80 14q-44 0 -81 -14q-38 -13 -68 -38l-63 64l-47 -47l66 -66q-20 -30 -30 -66q-11 -37 -11 -78t11 -78t31 -67l-67 -68l47 -47l66 66q29 -24 66 -37t80 -13q42 0 78 13q37 13 66 36
l67 -65l47 47l-67 67q20 31 32 68q11 37 11 78v0zM361 223q-43 0 -65 27t-22 79q0 53 21 82q22 28 66 28q41 0 64 -28q22 -29 22 -82q0 -52 -22 -79q-23 -27 -64 -27v0z" />
    <glyph glyph-name="glyph550" 
d="M690 197q-6 115 -98 164t-198 68v140q39 -10 65 -35t39 -65l165 36q-21 86 -91 141q-71 55 -178 69v90h-77v-87q-124 -6 -197 -62t-75 -149q5 -100 88 -145q82 -45 184 -66v-165q-48 10 -78 42q-31 32 -44 91l-165 -29q19 -112 94 -174q76 -62 193 -75v-101h77v97
q139 4 217 61q78 58 79 154v0zM217 509q0 29 27 47q26 17 73 19v-129q-44 11 -72 26q-27 14 -28 37v0zM394 124v153q54 -14 89 -32q34 -19 35 -51q0 -30 -31 -49t-93 -21v0z" />
    <glyph glyph-name="glyph551" 
d="M530 276q-11 -70 -45 -104q-34 -35 -87 -35q-44 0 -76 22t-51 63h120v109h-145v18q0 13 1 25h190v109h-164q20 38 51 59q32 21 74 21q51 0 85 -32q33 -33 45 -96l167 30q-17 114 -97 183t-200 71q-115 -1 -195 -64q-79 -62 -112 -172h-84v-109h67q-1 -6 -1 -12v-13v-18
h-66v-109h82q31 -112 111 -176t198 -65q122 2 202 72q80 71 97 192z" />
    <glyph glyph-name="glyph552" 
d="M481 530l5 28q3 23 17 34q13 11 38 11h111v138h-129q-88 0 -140 -40q-52 -41 -67 -125l-8 -46h-168v-139h144l-74 -425q-4 -23 -17 -34t-38 -11h-91v-139h109q88 0 140 41q52 40 67 125l77 443h197v139h-173z" />
    <glyph glyph-name="glyph553" 
d="M515 369q-1 -98 -54 -155q-52 -58 -142 -59v196l185 67l-38 100l-147 -53v54l185 67l-38 100l-147 -53v67h-178v-132l-114 -41l36 -101l78 28v-54l-114 -41l36 -101l78 28v-286h178q166 3 269 103q102 100 105 266h-178z" />
    <glyph glyph-name="glyph554" 
d="M423 700h-300v-383h-100v-97h100v-47h-100v-97h100v-76h178v76h121v97h-121v47h122q118 1 190 62t74 177q-2 115 -75 178q-72 62 -189 63v0zM408 371h-107v177h109q44 1 71 -19q27 -21 28 -68q-1 -46 -31 -68q-29 -22 -70 -22v0z" />
    <glyph glyph-name="glyph555" 
d="M652 604v96h-585v-143h227q39 0 64 -11q24 -11 34 -34h-325v-92h324q-24 -45 -97 -45h-227v-143h160l147 -232h198l-164 246v2q64 19 105 63t53 109h86v92h-87q-12 51 -49 90v2h136z" />
    <glyph glyph-name="glyph556" 
d="M333 161q17 14 25 33q9 20 9 44q0 7 -1 15q-1 7 -3 17h171v129h-249q-19 24 -31 44q-13 21 -13 40q0 37 30 58q29 22 82 22q58 0 96 -24q38 -23 52 -72l171 36q-20 100 -106 158q-86 57 -213 58q-133 -1 -212 -57q-80 -56 -82 -150q0 -34 12 -61q12 -28 32 -52h-55v-129
h157q6 -15 5 -27q0 -40 -31 -62q-30 -22 -87 -22h-44v-159h609v159h-324v2z" />
    <glyph glyph-name="glyph557" 
d="M724 473v94h-41l20 133h-160l-16 -133h-333l-16 133h-161l20 -133h-41v-94h55l8 -50h-63v-95h77l50 -328h165l73 295h2l70 -295h164l50 328h77v95h-63l8 50h55zM205 473h81l-11 -50h-64zM510 423h-63l-11 50h80zM232 241l-10 87h32l-20 -87h-2zM488 241h-2l-19 87h31z
" />
    <glyph glyph-name="glyph558" 
d="M704 700h-196l-147 -263h-2l-147 263h-195l215 -353h-180v-109h219v-42h-219v-110h219v-86h178v86h220v110h-220v42h220v109h-180z" />
    <glyph glyph-name="glyph584" 
d="M623 426h-192v208h-142v-208h-193v-132h193v-208h142v208h192v132z" />
    <glyph glyph-name="glyph585" 
d="M121 294h477v132h-477v-132z" />
    <glyph glyph-name="glyph586" 
d="M204 97l155 156l155 -156l95 93l-157 156l157 156l-95 94l-155 -156l-155 156l-95 -94l157 -156l-157 -156z" />
    <glyph glyph-name="glyph587" 
d="M359 480q47 1 76 30q29 28 30 75q-1 46 -30 75t-76 30q-45 -1 -74 -30t-30 -75q1 -47 30 -75q29 -29 74 -30v0zM121 294h477v132h-477v-132zM359 26q47 1 76 30t30 75q-1 46 -30 75t-76 30q-45 -1 -74 -30t-30 -75q1 -46 30 -75t74 -30v0z" />
    <glyph glyph-name="glyph588" 
d="M122 382h476v133h-476v-133zM122 173h476v133h-476v-133z" />
    <glyph glyph-name="glyph589" 
d="M598 382v133h-91l44 77l-72 43l-69 -120h-288v-133h211l-43 -76h-168v-133h91l-44 -77l73 -43l69 120h287v133h-211l44 76h167z" />
    <glyph glyph-name="glyph590" 
d="M203 68l389 233v99l-389 232l-76 -123l278 -159l-278 -159z" />
    <glyph glyph-name="glyph591" 
d="M516 68l76 123l-278 159l278 159l-76 123l-389 -232v-99z" />
    <glyph glyph-name="glyph592" 
d="M207 158l389 217v94l-389 217l-68 -119l278 -145l-278 -144zM125 0h471v133h-471v-133z" />
    <glyph glyph-name="glyph593" 
d="M514 158l68 120l-278 144l278 145l-68 119l-389 -217v-94zM596 0v133h-471v-133h471z" />
    <glyph glyph-name="glyph594" 
d="M432 523v164h-142v-164h-193v-132h193v-164h142v164h192v132h-192zM97 35h527v133h-527v-133z" />
    <glyph glyph-name="glyph595" 
d="M195 373q13 37 29 56q16 18 36 18q36 -5 89 -37t119 -37q74 0 122 44q47 43 71 125l-136 55q-13 -37 -29 -55t-36 -18q-36 5 -89 37q-54 31 -120 36q-73 0 -121 -43t-71 -125zM195 113q13 37 29 56q16 18 36 18q36 -5 89 -37t119 -37q74 0 122 44q47 43 71 125l-136 55
q-13 -37 -29 -55t-36 -18q-36 5 -89 37q-54 31 -120 36q-73 0 -121 -43t-71 -125z" />
    <glyph glyph-name="glyph596" 
d="M215 441q95 2 153 62q57 60 59 157q-2 97 -59 157q-58 60 -153 62q-95 -2 -152 -62q-58 -60 -60 -157q2 -97 60 -157q57 -60 152 -62v0zM215 560q-38 1 -59 27q-20 27 -20 73t20 73q21 26 59 27q39 -1 59 -27q20 -27 20 -73t-20 -73q-20 -26 -59 -27v0zM148 155l452 262
l-65 112l-453 -261zM505 -179q95 2 153 62q57 60 59 157q-2 97 -59 157q-58 60 -153 62q-94 -2 -152 -62t-60 -157q2 -97 60 -157t152 -62v0zM505 -60q-38 1 -58 27q-20 27 -20 73t20 73q20 26 58 27q39 -1 59 -27q20 -27 20 -73t-20 -73q-20 -26 -59 -27v0z" />
    <glyph glyph-name="glyph597" 
d="M222 485q95 2 153 62q57 60 59 157q-2 97 -59 157q-58 60 -153 62q-95 -2 -152 -62q-58 -60 -60 -157q2 -97 60 -157q57 -60 152 -62v0zM222 604q-39 1 -59 27q-20 27 -20 73t20 73q20 26 59 27q38 -1 58 -27q20 -27 20 -73t-20 -73q-20 -26 -58 -27v0zM64 228l542 197
l-42 112l-541 -196zM216 -233q67 0 118 33q50 32 75 91q23 -13 47 -19q23 -5 49 -5q96 2 154 62t60 158q-2 97 -60 157t-154 62q-67 0 -118 -33t-77 -93q-22 15 -45 21q-24 5 -49 5q-96 -2 -154 -62t-60 -158q2 -97 60 -157t154 -62v0zM502 -14q-41 1 -63 28t-22 73t22 73
q22 26 63 27q41 -1 63 -27q21 -27 21 -73t-21 -73q-22 -27 -63 -28v0zM218 -114q-41 1 -62 28q-21 26 -21 72t21 73t62 28q41 -1 64 -28q22 -27 22 -73t-22 -72q-23 -27 -64 -28v0z" />
    <glyph glyph-name="glyph626" horiz-adv-x="856" 
d="M435 -18q56 0 112 11t111 33l-37 92q-50 -21 -96 -31t-96 -10q-130 0 -204 68t-75 203q2 120 79 197q76 76 202 79q124 -2 199 -73q74 -72 76 -188q0 -60 -14 -88q-14 -29 -40 -29q-20 0 -29 11t-9 36v106q-1 72 -48 113q-48 41 -131 42q-74 -1 -123 -34q-50 -34 -64 -90
l109 -27q8 28 28 42q21 15 54 15q24 0 38 -8t14 -23q2 -13 -22 -24q-24 -10 -103 -28q-63 -13 -92 -42q-30 -28 -30 -73q1 -55 42 -85q42 -31 116 -32q48 0 85 14q36 15 57 41h2q15 -25 42 -38q28 -13 66 -13q76 0 117 55q42 55 42 160q-3 155 -109 254q-105 98 -274 101
q-171 -4 -277 -107q-107 -104 -110 -264q2 -178 107 -271q104 -94 285 -95v0zM417 240q-25 0 -38 7q-12 7 -12 23q0 13 11 21t35 15q43 11 58 16q15 6 19 13h1v-49q-1 -21 -21 -33q-20 -13 -53 -13v0z" />
    <glyph glyph-name="glyph646" horiz-adv-x="0" 
d="M0 441l-54 56l-188 -176v29l-205 -192l55 -57l150 140v-30z" />
    <glyph glyph-name="glyph648" horiz-adv-x="0" 
d="M0 488l-56 60l-235 -223v20l-229 -216l54 -55l153 144v-27z" />
    <glyph glyph-name="glyph649" horiz-adv-x="0" 
d="M-173 612h173v162h-173v-162z" />
    <glyph glyph-name="glyph650" horiz-adv-x="0" 
d="M-438 307h438v104h-438v-104z" />
  </font>
</defs>
</svg>
