<svg width="22" height="16" viewBox="0 0 22 16" fill="none" xmlns="http://www.w3.org/2000/svg">
<path d="M20.3125 0H1.5625C1.1481 0 0.750671 0.16462 0.457646 0.457646C0.16462 0.750671 0 1.1481 0 1.5625V14.0625C0 14.4769 0.16462 14.8743 0.457646 15.1674C0.750671 15.4604 1.1481 15.625 1.5625 15.625H20.3125C20.7269 15.625 21.1243 15.4604 21.4174 15.1674C21.7104 14.8743 21.875 14.4769 21.875 14.0625V1.5625C21.875 1.1481 21.7104 0.750671 21.4174 0.457646C21.1243 0.16462 20.7269 0 20.3125 0ZM20.3125 1.5625V3.90625H1.5625V1.5625H20.3125ZM1.5625 14.0625V5.46875H20.3125V14.0625H1.5625Z" fill="#131313"/>
<path d="M10.9375 10.9375H3.125V12.5H10.9375V10.9375Z" fill="#131313"/>
</svg>
