<svg width="24" height="24" viewBox="0 0 24 24" fill="none" xmlns="http://www.w3.org/2000/svg">
<path fill-rule="evenodd" clip-rule="evenodd" d="M1 5.78146C1 3.646 2.62571 2 4.76316 2H14.2368C16.3973 2 18 3.76883 18 5.78146V11.7417C18 13.9004 16.2523 15.5232 14.2368 15.5232H8.01974C7.37166 15.5232 6.78381 15.7363 6.23901 16.127L2.59201 18.8059C2.28819 19.0291 1.88468 19.0625 1.54834 18.8922C1.212 18.7219 1 18.377 1 18V5.78146ZM3 16.0246L5.06751 14.5059C5.90319 13.9051 6.89305 13.5232 8.01974 13.5232H14.2368C15.182 13.5232 16 12.7619 16 11.7417V5.78146C16 4.81395 15.2342 4 14.2368 4H4.76316C3.74271 4 3 4.7381 3 5.78146V16.0246Z" fill="#282828"/>
<path fill-rule="evenodd" clip-rule="evenodd" d="M19.5305 8.62091C19.7399 8.10986 20.3239 7.86529 20.835 8.07467C22.095 8.59089 23 9.78417 23 11.1825V22C23 22.3668 22.7992 22.7042 22.4768 22.879C22.1543 23.0539 21.762 23.0382 21.4546 22.8382L17.9546 20.5608C17.9328 20.5466 17.9115 20.5316 17.8908 20.5157C17.5068 20.2207 16.9266 20.0584 16.2353 20.0584H10.3676C8.98095 20.0584 7.68903 19.2926 7.09922 18.0694C6.85936 17.5719 7.0682 16.9742 7.56568 16.7343C8.06316 16.4944 8.66089 16.7033 8.90075 17.2008C9.13447 17.6855 9.69549 18.0584 10.3676 18.0584H16.2353C17.1784 18.0584 18.2298 18.27 19.0755 18.9041L21 20.1563V11.1825C21 10.683 20.6697 10.1683 20.0768 9.92537C19.5657 9.716 19.3211 9.13197 19.5305 8.62091Z" fill="#282828"/>
</svg>
