<svg width="25" height="25" viewBox="0 0 25 25" fill="none" xmlns="http://www.w3.org/2000/svg">
<path d="M13.8594 23.4375L12.5 22.6562L15.625 17.1875H20.3125C20.7269 17.1875 21.1243 17.0229 21.4174 16.7299C21.7104 16.4368 21.875 16.0394 21.875 15.625V6.25C21.875 5.8356 21.7104 5.43817 21.4174 5.14515C21.1243 4.85212 20.7269 4.6875 20.3125 4.6875H4.6875C4.2731 4.6875 3.87567 4.85212 3.58265 5.14515C3.28962 5.43817 3.125 5.8356 3.125 6.25V15.625C3.125 16.0394 3.28962 16.4368 3.58265 16.7299C3.87567 17.0229 4.2731 17.1875 4.6875 17.1875H11.7188V18.75H4.6875C3.8587 18.75 3.06384 18.4208 2.47779 17.8347C1.89174 17.2487 1.5625 16.4538 1.5625 15.625V6.25C1.5625 5.4212 1.89174 4.62634 2.47779 4.04029C3.06384 3.45424 3.8587 3.125 4.6875 3.125H20.3125C21.1413 3.125 21.9362 3.45424 22.5222 4.04029C23.1083 4.62634 23.4375 5.4212 23.4375 6.25V15.625C23.4375 16.4538 23.1083 17.2487 22.5222 17.8347C21.9362 18.4208 21.1413 18.75 20.3125 18.75H16.5312L13.8594 23.4375Z" fill="#282828"/>
<path d="M18.75 7.8125H6.25V9.375H18.75V7.8125Z" fill="#282828"/>
<path d="M14.0625 12.5H6.25V14.0625H14.0625V12.5Z" fill="#282828"/>
</svg>
