<svg width="27" height="30" viewBox="0 0 27 30" fill="none" xmlns="http://www.w3.org/2000/svg">
<g filter="url(#filter0_d_7_281)">
<path d="M15.0625 21.875H11.9375C11.5231 21.875 11.1257 21.7104 10.8326 21.4174C10.5396 21.1243 10.375 20.7269 10.375 20.3125V14.3828L4.58594 8.59375C4.29251 8.30207 4.12674 7.90592 4.125 7.49219V4.6875C4.125 4.2731 4.28962 3.87567 4.58265 3.58265C4.87567 3.28962 5.2731 3.125 5.6875 3.125H21.3125C21.7269 3.125 22.1243 3.28962 22.4174 3.58265C22.7104 3.87567 22.875 4.2731 22.875 4.6875V7.49219C22.8733 7.90592 22.7075 8.30207 22.4141 8.59375L16.625 14.3828V20.3125C16.625 20.7269 16.4604 21.1243 16.1674 21.4174C15.8743 21.7104 15.4769 21.875 15.0625 21.875ZM5.6875 4.6875V7.49219L11.9375 13.7422V20.3125H15.0625V13.7422L21.3125 7.49219V4.6875H5.6875Z" fill="#282828"/>
</g>
<defs>
<filter id="filter0_d_7_281" x="-3" y="0" width="33" height="33" filterUnits="userSpaceOnUse" color-interpolation-filters="sRGB">
<feFlood flood-opacity="0" result="BackgroundImageFix"/>
<feColorMatrix in="SourceAlpha" type="matrix" values="0 0 0 0 0 0 0 0 0 0 0 0 0 0 0 0 0 0 127 0" result="hardAlpha"/>
<feOffset dy="4"/>
<feGaussianBlur stdDeviation="2"/>
<feComposite in2="hardAlpha" operator="out"/>
<feColorMatrix type="matrix" values="0 0 0 0 0 0 0 0 0 0 0 0 0 0 0 0 0 0 0.25 0"/>
<feBlend mode="normal" in2="BackgroundImageFix" result="effect1_dropShadow_7_281"/>
<feBlend mode="normal" in="SourceGraphic" in2="effect1_dropShadow_7_281" result="shape"/>
</filter>
</defs>
</svg>
