<svg width="15" height="15" viewBox="0 0 15 15" fill="none" xmlns="http://www.w3.org/2000/svg">
<g clip-path="url(#clip0_188_127)">
<path d="M5.52832 0.0616441C5.45508 0.09973 5.39941 0.161253 5.36133 0.243285C5.26172 0.454222 3.53906 7.4386 3.55371 7.56457C3.57129 7.7052 3.66504 7.83117 3.79102 7.8927C3.87598 7.93371 4.03125 7.93957 4.93359 7.93957C5.50781 7.93957 5.97656 7.94543 5.97656 7.95129C5.97656 7.96008 5.42871 9.43078 4.76074 11.2238C4.09277 13.0167 3.54492 14.5197 3.54492 14.5665C3.54492 14.7833 3.76465 15.0001 3.98145 15.0001C4.21875 15.0001 4.05762 15.2052 7.82227 10.0167C9.77051 7.3302 11.3818 5.09192 11.4082 5.04504C11.5107 4.84875 11.4316 4.60559 11.2324 4.49133C11.1211 4.42688 11.0977 4.42395 10.1455 4.42395C9.60938 4.42395 9.16992 4.41809 9.16992 4.41223C9.16992 4.40637 9.65918 3.57727 10.2568 2.57239C10.8545 1.57043 11.3701 0.697386 11.3994 0.638793C11.4287 0.577269 11.4551 0.489378 11.4551 0.439574C11.4551 0.293089 11.3525 0.126097 11.2207 0.0587144C11.1094 0.00012064 11.0566 0.00012064 8.37305 0.00012064C5.69824 0.00305033 5.63672 0.00305033 5.52832 0.0616441Z" fill="#306FFF"/>
</g>
<defs>
<clipPath id="clip0_188_127">
<rect width="15" height="15" fill="white"/>
</clipPath>
</defs>
</svg>
