<svg width="24" height="24" viewBox="0 0 24 24" fill="none" xmlns="http://www.w3.org/2000/svg">
<path fill-rule="evenodd" clip-rule="evenodd" d="M11.0594 1.03372C16.3938 0.588837 20.8874 4.60236 20.9998 9.77731L21 9.79903C21 11.6079 20.4334 13.2985 19.4291 14.7503L19.4191 14.7645L14.3435 21.8361C14.3334 21.8501 14.323 21.8639 14.3122 21.8774C13.1455 23.3369 10.8509 23.4267 9.72987 21.8317L4.65257 14.7578C3.32907 12.8814 2.63359 10.5124 3.19602 8.00522C3.88953 4.24587 7.16742 1.47839 11.0289 1.03673C11.0391 1.03557 11.0492 1.03456 11.0594 1.03372ZM11.2409 3.02554C8.15029 3.3853 5.66834 5.58548 5.15988 8.38419C5.15728 8.39848 5.15438 8.41272 5.15116 8.42689C4.72739 10.2929 5.22493 12.0977 6.28462 13.6017L11.3649 20.6798C11.6356 21.0668 12.3108 21.1575 12.7361 20.6456L17.7891 13.6056C18.571 12.4725 18.9978 11.1813 19 9.80988C18.9074 5.83162 15.4499 2.68282 11.2409 3.02554Z" fill="#131313" fill-opacity="0.6"/>
<path fill-rule="evenodd" clip-rule="evenodd" d="M12 7.90002C10.9506 7.90002 10.1 8.75068 10.1 9.80002C10.1 10.8494 10.9506 11.7 12 11.7C13.0493 11.7 13.9 10.8494 13.9 9.80002C13.9 8.75068 13.0493 7.90002 12 7.90002ZM8.09998 9.80002C8.09998 7.64611 9.84607 5.90002 12 5.90002C14.1539 5.90002 15.9 7.64611 15.9 9.80002C15.9 11.9539 14.1539 13.7 12 13.7C9.84607 13.7 8.09998 11.9539 8.09998 9.80002Z" fill="#131313" fill-opacity="0.6"/>
</svg>
