<svg width="171" height="30" viewBox="0 0 171 30" fill="none" xmlns="http://www.w3.org/2000/svg">
<g clip-path="url(#clip0_404_14)">
<path d="M60.5957 20.6667H63.6498V11.4867H63.6897L68.5203 20.6667H69.7578L74.5884 11.4867H74.6284V20.6667H77.6624V6.66668H74.1493L69.1391 16.4267H69.0991L64.1288 6.66668H60.5957V20.6667ZM79.6412 15.3667C79.5814 18.4667 82.2362 21.0267 85.6096 20.9667C89.0629 20.9667 91.578 18.5067 91.578 15.3667C91.578 12.2267 89.0629 9.76668 85.6096 9.76668C82.2362 9.70668 79.5814 12.2667 79.6412 15.3667ZM88.6237 15.3667C88.6237 17.1067 87.4261 18.3667 85.6096 18.3667C83.7932 18.3667 82.5955 17.1067 82.5955 15.3667C82.5955 13.6267 83.7932 12.3667 85.6096 12.3667C87.4261 12.3667 88.6237 13.6267 88.6237 15.3667ZM93.1795 20.6667H96.1338V15.0067C96.1338 13.4667 97.3115 12.4067 99.0082 12.4067C100.705 12.4067 101.763 13.3867 101.763 15.0067V20.6667H104.717V14.6267C104.717 11.7467 102.641 9.76668 99.6469 9.76668C98.2297 9.76668 96.9522 10.2467 96.0739 11.0667H96.034V10.0667H93.1795V20.6667ZM106.172 15.3667C106.112 18.4667 108.766 21.0267 112.14 20.9667C115.593 20.9667 118.108 18.5067 118.108 15.3667C118.108 12.2267 115.593 9.76668 112.14 9.76668C108.766 9.70668 106.112 12.2667 106.172 15.3667ZM115.154 15.3667C115.154 17.1067 113.956 18.3667 112.14 18.3667C110.323 18.3667 109.126 17.1067 109.126 15.3667C109.126 13.6267 110.323 12.3667 112.14 12.3667C113.956 12.3667 115.154 13.6267 115.154 15.3667ZM118.896 17.2267C119.156 18.3667 119.814 19.2867 120.892 19.9667C121.97 20.6267 123.287 20.9667 124.844 20.9667C128.018 20.9667 130.134 19.6467 130.134 17.6667C130.134 15.7467 128.717 14.7667 125.144 14.2067C122.808 13.8067 122.25 13.6067 122.25 13.0467C122.25 12.4867 123.048 12.1267 124.266 12.1267C125.683 12.1267 126.821 12.7667 127.22 13.7867L129.915 12.9667C129.356 11.1267 126.94 9.76668 124.286 9.76668C121.371 9.76668 119.415 11.0867 119.415 13.0467C119.415 14.9467 120.792 15.8867 124.665 16.4867C126.641 16.7867 127.28 17.0667 127.28 17.6867C127.28 18.2667 126.401 18.6067 124.864 18.6067C123.168 18.6067 122.09 17.9267 121.671 16.5667L118.896 17.2267ZM131.503 20.6667H134.458V15.0067C134.458 13.4667 135.635 12.4067 137.332 12.4067C139.029 12.4067 140.087 13.3867 140.087 15.0067V20.6667H143.041V14.6067C143.041 11.7467 140.965 9.76668 137.971 9.76668C136.594 9.76668 135.376 10.2067 134.498 11.0667H134.458V6.06668H131.503V20.6667ZM144.495 15.3667C144.436 18.4667 147.09 21.0267 150.464 20.9667C153.917 20.9667 156.432 18.5067 156.432 15.3667C156.432 12.2267 153.917 9.76668 150.464 9.76668C147.09 9.70668 144.436 12.2667 144.495 15.3667ZM153.478 15.3667C153.478 17.1067 152.28 18.3667 150.464 18.3667C148.647 18.3667 147.45 17.1067 147.45 15.3667C147.45 13.6267 148.647 12.3667 150.464 12.3667C152.28 12.3667 153.478 13.6267 153.478 15.3667ZM158.034 25.1667H160.988V19.8467H161.028C161.727 20.5067 163.044 20.9667 164.341 20.9667C167.415 21.0267 169.871 18.5067 169.811 15.3667C169.871 12.2667 167.376 9.70668 164.322 9.76668C162.944 9.76668 161.707 10.1867 160.908 11.0067H160.868V10.0667H158.034V25.1667ZM166.857 15.3667C166.857 17.1267 165.639 18.3667 163.882 18.3667C162.266 18.3667 160.988 17.3067 160.988 16.0267V14.6867C160.988 13.4867 162.305 12.3867 163.862 12.3867C165.639 12.3867 166.857 13.5867 166.857 15.3667Z" fill="#0E0E0F"/>
<path d="M16.8104 0.107025C15.9192 0.218653 14.149 0.702372 14.0375 0.863612C14.0128 0.913225 14.1861 1.01245 14.446 1.07447C15.9067 1.42175 16.1791 1.50857 16.5628 1.74423C17.2313 2.15354 18.0359 3.96439 21.3164 12.3861C23.9159 19.0837 25.0672 21.9489 25.6861 23.2388C27.6916 27.4186 32.6431 30.2465 37.4338 29.9613C39.1545 29.8496 41.5684 29.2667 41.395 28.9938C41.3579 28.9318 41.1103 28.8822 40.8504 28.8822C39.7858 28.8822 38.4365 28.1132 38.0032 27.2822C37.6937 26.6497 36.691 24.1318 34.0791 17.4093C29.7712 6.28377 29.1151 4.93183 27.1469 3.26981C24.7701 1.2357 22.8018 0.36749 19.9918 0.107025C18.4816 -0.0294088 18.0359 -0.0294088 16.8104 0.107025Z" fill="#FF6243"/>
<path d="M32.6186 0.169025C31.5664 0.379878 30.081 0.80158 29.9324 0.95042C29.8705 1.01243 30.1924 1.08685 30.6875 1.12407C31.6779 1.19848 32.99 1.75662 33.3985 2.27755C33.5223 2.43879 34.4755 4.75817 35.5277 7.44967C40.2565 19.6419 41.9029 23.6357 42.6332 24.7271C44.3539 27.3194 47.4363 29.2047 50.9271 29.8124C52.9326 30.1597 54.7522 30.0233 56.6091 29.4155C57.5994 29.0807 57.686 28.8822 56.8443 28.8822C56.2254 28.8822 54.9256 28.2372 54.5666 27.7535C54.1333 27.1829 53.0563 24.6899 51.3109 20.2621C47.3868 10.2775 46.2355 7.4124 45.7899 6.49461C44.3539 3.51786 40.6774 0.851193 37.0503 0.156623C35.9115 -0.0542304 33.7823 -0.0542303 32.6186 0.169025Z" fill="#FF6243"/>
<path d="M9.7798 5.05585C8.29429 5.51477 7.06881 7.1272 6.62315 9.22327C6.35081 10.4884 6.25178 13.3411 6.42508 14.6807C6.75928 17.2233 9.33413 23.338 10.9063 25.3225C12.726 27.6419 15.9198 29.4155 19.0517 29.8869C21.0199 30.1721 23.5699 29.8621 25.3154 29.1179C25.6743 28.969 25.6372 28.9566 24.6965 28.8822C23.8918 28.8202 23.6071 28.7457 23.1738 28.4605C21.9855 27.6543 21.5274 26.7241 18.8783 19.7659C14.8675 9.22327 13.642 6.37058 12.8002 5.73802C11.9461 5.08066 10.6587 4.79539 9.7798 5.05585Z" fill="#FF6243"/>
<path d="M2.19108 20.5349C1.28741 22.6062 0 26.6372 0 27.4186C0 28.3861 0.730356 29.2295 1.98063 29.7008C2.79765 30.0109 5.22392 30.0729 6.62274 29.8248C7.97206 29.6015 9.18516 29.2419 9.20998 29.0682C9.20998 28.9938 8.91283 28.907 8.54148 28.8697C7.1798 28.7085 6.18948 28.0015 5.54578 26.724C5.33533 26.3023 4.72876 24.8511 4.19647 23.4868C2.99571 20.3737 2.76051 19.8279 2.62434 19.8279C2.56244 19.8279 2.36438 20.1504 2.19108 20.5349Z" fill="#FF6243"/>
</g>
<defs>
<clipPath id="clip0_404_14">
<rect width="171" height="30" fill="white"/>
</clipPath>
</defs>
</svg>
