<svg width="246" height="23" viewBox="0 0 246 23" fill="none" xmlns="http://www.w3.org/2000/svg">
<path d="M0.596 22H6.868V7.58L15.072 22H18.572L26.776 7.58V22H33.216V1.168H24.284L17.06 14.132L9.864 1.168H0.596V22ZM50.2483 0.803999C37.0603 0.803999 35.5763 7.384 35.5763 11.108V11.948C35.5763 15.616 37.0603 22.364 50.2483 22.364H51.4523C64.5843 22.364 66.0963 15.616 66.0963 11.948V11.108C66.0963 7.384 64.5563 0.803999 51.4523 0.803999H50.2483ZM59.2643 11.696C59.2643 14.104 57.8363 17.296 50.8363 17.296C43.7803 17.296 42.4083 14.02 42.4083 11.64V11.304C42.4083 8.924 43.6683 5.844 50.8363 5.844C57.8923 5.844 59.2643 8.924 59.2643 11.304V11.696ZM68.4358 1.168V22H74.8758V8.196L89.0158 22H95.4558V1.168H89.0158V14.272L75.7158 1.168H68.4358ZM112.483 0.803999C99.2947 0.803999 97.8107 7.384 97.8107 11.108V11.948C97.8107 15.616 99.2947 22.364 112.483 22.364H113.687C126.819 22.364 128.331 15.616 128.331 11.948V11.108C128.331 7.384 126.791 0.803999 113.687 0.803999H112.483ZM121.499 11.696C121.499 14.104 120.071 17.296 113.071 17.296C106.015 17.296 104.643 14.02 104.643 11.64V11.304C104.643 8.924 105.903 5.844 113.071 5.844C120.127 5.844 121.499 8.924 121.499 11.304V11.696ZM143.718 22.364C154.19 22.364 155.926 18.836 155.926 15.392V15C155.926 10.856 152.762 8.952 144.922 8.812L141.422 8.756C137.166 8.672 136.606 7.86 136.606 6.964C136.606 6.068 136.97 5.172 142.01 5.172H142.458C147.918 5.172 148.338 6.88 148.478 7.664H155.254V7.384C155.254 4.248 153.014 0.803999 143.158 0.803999H141.226C131.734 0.803999 129.886 4.052 129.886 7.16V7.412C129.886 10.66 132.266 13.292 140.05 13.516L143.634 13.6C148.45 13.74 149.094 14.496 149.094 15.7C149.094 16.82 148.478 17.912 142.99 17.912H142.598C137.222 17.912 136.494 15.868 136.41 14.608H129.606V14.916C129.606 17.66 130.866 22.364 141.786 22.364H143.718ZM158.151 22H164.675V13.796H178.675V22H185.199V1.168H178.675V8.756H164.675V1.168H158.151V22ZM202.225 0.803999C189.037 0.803999 187.553 7.384 187.553 11.108V11.948C187.553 15.616 189.037 22.364 202.225 22.364H203.429C216.561 22.364 218.073 15.616 218.073 11.948V11.108C218.073 7.384 216.533 0.803999 203.429 0.803999H202.225ZM211.241 11.696C211.241 14.104 209.813 17.296 202.813 17.296C195.757 17.296 194.385 14.02 194.385 11.64V11.304C194.385 8.924 195.645 5.844 202.813 5.844C209.869 5.844 211.241 8.924 211.241 11.304V11.696ZM236.036 15.056C243.484 15.056 245.752 11.948 245.752 8.224V7.944C245.752 4.136 243.54 1.168 236.036 1.168H220.412V22H226.936V15.056H236.036ZM226.936 5.9H235.924C238.024 5.9 238.948 6.684 238.948 8.112V8.196C238.948 9.624 237.968 10.38 235.924 10.38H226.936V5.9Z" fill="#282828"/>
</svg>
