<svg width="24" height="24" viewBox="0 0 24 24" fill="none" xmlns="http://www.w3.org/2000/svg">
<path d="M16.1953 6.0656C16.1203 6.1031 13.6313 8.5406 10.6735 11.4797C7.71564 14.4234 5.27814 16.8281 5.25471 16.8281C5.23596 16.8281 4.30783 15.9328 3.19221 14.8406C1.70627 13.3828 1.12033 12.8344 0.998457 12.7922C0.384394 12.5906 -0.201543 13.2281 0.0703317 13.8C0.150019 13.9687 4.65471 18.4219 4.88908 18.5672C5.07658 18.6797 5.41408 18.6844 5.61096 18.5719C5.79846 18.4687 17.0953 7.24217 17.1844 7.07342C17.3391 6.76404 17.2266 6.35623 16.9125 6.12654C16.7531 6.00935 16.3828 5.97654 16.1953 6.0656Z" fill="#568AFF"/>
<path d="M22.9407 6.06563C22.8657 6.09844 20.3766 8.53594 17.4141 11.4797C14.4469 14.4188 12.0047 16.8281 11.986 16.8281C11.9625 16.8281 11.7235 16.6219 11.4563 16.3688C10.8516 15.8063 10.7344 15.7359 10.4391 15.7641C9.91879 15.8109 9.58597 16.3781 9.82035 16.8234C9.90941 17.0016 11.536 18.5484 11.6953 18.6094C11.8922 18.6844 12.1969 18.6656 12.361 18.5672C12.6047 18.4172 23.85 7.21875 23.9344 7.04063C24.211 6.45469 23.55 5.80313 22.9407 6.06563Z" fill="#568AFF"/>
</svg>
