<svg width="24" height="24" viewBox="0 0 24 24" fill="none" xmlns="http://www.w3.org/2000/svg">
<path d="M19.1934 6.05082C19.1184 6.08832 16.6293 8.52582 13.6715 11.4649C10.7137 14.4086 8.27619 16.8133 8.25275 16.8133C8.234 16.8133 7.30588 15.918 6.19025 14.8258C4.70432 13.368 4.11838 12.8196 3.9965 12.7774C3.38244 12.5758 2.7965 13.2133 3.06838 13.7852C3.14807 13.9539 7.65275 18.4071 7.88713 18.5524C8.07463 18.6649 8.41213 18.6696 8.609 18.5571C8.7965 18.4539 20.0934 7.22738 20.1824 7.05863C20.3371 6.74926 20.2246 6.34144 19.9106 6.11176C19.7512 5.99457 19.3809 5.96176 19.1934 6.05082Z" fill="#568AFF"/>
</svg>
