<svg width="16" height="15" viewBox="0 0 16 15" fill="none" xmlns="http://www.w3.org/2000/svg">
<path fill-rule="evenodd" clip-rule="evenodd" d="M11.3078 11.0962C10.1091 12.2725 8.45313 13 6.62397 13C2.96565 13 0 10.0899 0 6.5C0 2.91015 2.96565 0 6.62397 0C10.2823 0 13.2479 2.91015 13.2479 6.5C13.2479 7.93755 12.7724 9.26611 11.9672 10.3424L15.9998 14.2996L15.2861 15L11.3078 11.0962ZM12.2479 6.5C12.2479 9.51984 9.7479 12 6.62397 12C3.50004 12 1 9.51984 1 6.5C1 3.48016 3.50004 1 6.62397 1C9.7479 1 12.2479 3.48016 12.2479 6.5Z" fill="#282828"/>
</svg>
