<svg width="20" height="20" viewBox="0 0 20 20" fill="none" xmlns="http://www.w3.org/2000/svg">
<path d="M8.74999 10.3688L7.13124 8.75L6.24999 9.63125L8.74999 12.1312L13.75 7.13125L12.8687 6.25L8.74999 10.3688Z" fill="#141414"/>
<path d="M9.99999 18.75L6.14011 16.6919C5.03965 16.1065 4.11939 15.2325 3.47808 14.1636C2.83678 13.0948 2.49865 11.8715 2.49999 10.625V2.5C2.50034 2.16859 2.63214 1.85085 2.86649 1.6165C3.10083 1.38216 3.41857 1.25035 3.74999 1.25H16.25C16.5814 1.25035 16.8991 1.38216 17.1335 1.6165C17.3678 1.85085 17.4996 2.16859 17.5 2.5V10.625C17.5013 11.8715 17.1632 13.0948 16.5219 14.1636C15.8806 15.2325 14.9603 16.1065 13.8599 16.6919L9.99999 18.75ZM3.74999 2.5V10.625C3.74891 11.6449 4.02559 12.6458 4.55033 13.5203C5.07507 14.3949 5.82806 15.11 6.72849 15.5889L9.99999 17.3333L13.2715 15.5889C14.1719 15.11 14.9249 14.3949 15.4496 13.5203C15.9744 12.6458 16.2511 11.6449 16.25 10.625V2.5H3.74999Z" fill="#141414"/>
</svg>
