<svg width="5" height="21" viewBox="0 0 5 21" fill="none" xmlns="http://www.w3.org/2000/svg">
<path d="M2.9375 4.6875C4.04207 4.6875 4.9375 3.79207 4.9375 2.6875C4.9375 1.58293 4.04207 0.6875 2.9375 0.6875C1.83293 0.6875 0.9375 1.58293 0.9375 2.6875C0.9375 3.79207 1.83293 4.6875 2.9375 4.6875Z" fill="#161616"/>
<path d="M2.9375 12.6875C4.04207 12.6875 4.9375 11.7921 4.9375 10.6875C4.9375 9.58293 4.04207 8.6875 2.9375 8.6875C1.83293 8.6875 0.9375 9.58293 0.9375 10.6875C0.9375 11.7921 1.83293 12.6875 2.9375 12.6875Z" fill="#161616"/>
<path d="M2.9375 20.6875C4.04207 20.6875 4.9375 19.7921 4.9375 18.6875C4.9375 17.5829 4.04207 16.6875 2.9375 16.6875C1.83293 16.6875 0.9375 17.5829 0.9375 18.6875C0.9375 19.7921 1.83293 20.6875 2.9375 20.6875Z" fill="#161616"/>
</svg>
