<svg width="25" height="25" viewBox="0 0 25 25" fill="none" xmlns="http://www.w3.org/2000/svg">
<path d="M17.539 4.6875C18.1079 4.68702 18.671 4.8001 19.1956 5.02011C19.7201 5.24013 20.1955 5.56264 20.5937 5.96875C21.4144 6.80186 21.8744 7.92434 21.8744 9.09375C21.8744 10.2632 21.4144 11.3856 20.5937 12.2188L12.5 20.4141L4.40623 12.2188C3.58559 11.3856 3.12559 10.2632 3.12559 9.09375C3.12559 7.92434 3.58559 6.80186 4.40623 5.96875C4.80474 5.56293 5.28011 5.24059 5.8046 5.02054C6.32908 4.8005 6.89214 4.68717 7.46091 4.68717C8.02968 4.68717 8.59275 4.8005 9.11723 5.02054C9.64171 5.24059 10.1171 5.56293 10.5156 5.96875L12.5 8L14.4765 5.98438C14.8736 5.57343 15.3495 5.24677 15.8757 5.02394C16.4019 4.80111 16.9676 4.68668 17.539 4.6875ZM17.539 3.125C16.7622 3.12434 15.993 3.2788 15.2766 3.5793C14.5602 3.87981 13.9111 4.32032 13.3672 4.875L12.5 5.75L11.6328 4.875C11.0882 4.32132 10.4389 3.88157 9.72262 3.5814C9.00637 3.28123 8.23753 3.12664 7.46091 3.12664C6.6843 3.12664 5.91546 3.28123 5.1992 3.5814C4.48295 3.88157 3.83361 4.32132 3.28904 4.875C2.18113 6.00283 1.56036 7.52059 1.56036 9.10156C1.56036 10.6825 2.18113 12.2003 3.28904 13.3281L12.5 22.6563L21.7109 13.3281C22.8188 12.2003 23.4396 10.6825 23.4396 9.10156C23.4396 7.52059 22.8188 6.00283 21.7109 4.875C21.1665 4.32102 20.5172 3.88097 19.8009 3.58052C19.0847 3.28006 18.3158 3.12522 17.539 3.125Z" fill="#0E0E0F"/>
</svg>
