<svg width="25" height="25" viewBox="0 0 25 25" fill="none" xmlns="http://www.w3.org/2000/svg">
<path d="M17.5389 4.6875C18.1078 4.68702 18.6709 4.8001 19.1955 5.02011C19.72 5.24013 20.1954 5.56264 20.5936 5.96875C21.4143 6.80186 21.8743 7.92434 21.8743 9.09375C21.8743 10.2632 21.4143 11.3856 20.5936 12.2188L12.4999 20.4141L4.40617 12.2188C3.58553 11.3856 3.12553 10.2632 3.12553 9.09375C3.12553 7.92434 3.58553 6.80186 4.40617 5.96875C4.80468 5.56293 5.28005 5.24059 5.80454 5.02054C6.32902 4.8005 6.89208 4.68717 7.46085 4.68717C8.02962 4.68717 8.59269 4.8005 9.11717 5.02054C9.64165 5.24059 10.117 5.56293 10.5155 5.96875L12.4999 8L14.4764 5.98438C14.8735 5.57343 15.3494 5.24677 15.8756 5.02394C16.4018 4.80111 16.9675 4.68668 17.5389 4.6875ZM17.5389 3.125C16.7621 3.12434 15.9929 3.2788 15.2765 3.5793C14.5601 3.87981 13.911 4.32032 13.3671 4.875L12.4999 5.75L11.6327 4.875C11.0881 4.32132 10.4388 3.88157 9.72256 3.5814C9.00631 3.28123 8.23747 3.12664 7.46085 3.12664C6.68424 3.12664 5.9154 3.28123 5.19914 3.5814C4.48289 3.88157 3.83355 4.32132 3.28898 4.875C2.18107 6.00283 1.5603 7.52059 1.5603 9.10156C1.5603 10.6825 2.18107 12.2003 3.28898 13.3281L12.4999 22.6563L21.7108 13.3281C22.8187 12.2003 23.4395 10.6825 23.4395 9.10156C23.4395 7.52059 22.8187 6.00283 21.7108 4.875C21.1664 4.32102 20.5171 3.88097 19.8008 3.58052C19.0846 3.28006 18.3157 3.12522 17.5389 3.125Z" fill="white"/>
</svg>
