<svg width="25" height="25" viewBox="0 0 25 25" fill="none" xmlns="http://www.w3.org/2000/svg">
<path d="M12.5 6.25C11.7274 6.25 10.9722 6.4791 10.3298 6.90832C9.68743 7.33755 9.18675 7.94762 8.8911 8.66139C8.59544 9.37517 8.51809 10.1606 8.66881 10.9183C8.81954 11.6761 9.19157 12.3721 9.73787 12.9184C10.2842 13.4647 10.9802 13.8367 11.7379 13.9874C12.4957 14.1382 13.2811 14.0608 13.9949 13.7652C14.7086 13.4695 15.3187 12.9688 15.7479 12.3264C16.1772 11.6841 16.4063 10.9288 16.4063 10.1562C16.4063 9.12025 15.9947 8.12668 15.2621 7.39411C14.5296 6.66155 13.536 6.25 12.5 6.25ZM12.5 12.5C12.0365 12.5 11.5833 12.3625 11.1979 12.105C10.8125 11.8475 10.5121 11.4814 10.3347 11.0532C10.1573 10.6249 10.1109 10.1537 10.2013 9.69901C10.2917 9.24436 10.5149 8.82675 10.8427 8.49897C11.1705 8.17119 11.5881 7.94797 12.0428 7.85753C12.4974 7.7671 12.9687 7.81351 13.3969 7.99091C13.8252 8.1683 14.1912 8.4687 14.4488 8.85413C14.7063 9.23956 14.8438 9.6927 14.8438 10.1562C14.8431 10.7776 14.5959 11.3734 14.1565 11.8128C13.7171 12.2521 13.1214 12.4993 12.5 12.5Z" fill="#282828"/>
<path d="M12.5 1.5625C10.3368 1.5625 8.22212 2.20397 6.42346 3.4058C4.62479 4.60763 3.22291 6.31583 2.39507 8.3144C1.56724 10.313 1.35064 12.5121 1.77267 14.6338C2.19469 16.7555 3.23639 18.7043 4.76602 20.234C6.29566 21.7636 8.24454 22.8053 10.3662 23.2273C12.4879 23.6494 14.687 23.4328 16.6856 22.6049C18.6842 21.7771 20.3924 20.3752 21.5942 18.5765C22.796 16.7779 23.4375 14.6632 23.4375 12.5C23.4342 9.6002 22.2808 6.8201 20.2304 4.76963C18.1799 2.71916 15.3998 1.56577 12.5 1.5625ZM7.81251 20.6066V19.5312C7.81319 18.9099 8.06034 18.3141 8.49973 17.8747C8.93912 17.4353 9.53486 17.1882 10.1563 17.1875H14.8438C15.4651 17.1882 16.0609 17.4353 16.5003 17.8747C16.9397 18.3141 17.1868 18.9099 17.1875 19.5312V20.6066C15.765 21.4373 14.1473 21.875 12.5 21.875C10.8527 21.875 9.23503 21.4373 7.81251 20.6066ZM18.7441 19.4733C18.7286 18.4485 18.3111 17.4708 17.5815 16.751C16.8519 16.0311 15.8687 15.6267 14.8438 15.625H10.1563C9.13133 15.6267 8.14813 16.0311 7.41854 16.751C6.68895 17.4708 6.2714 18.4485 6.25586 19.4733C4.83912 18.2082 3.84003 16.5427 3.39089 14.6972C2.94175 12.8518 3.06375 10.9134 3.74074 9.1388C4.41772 7.3642 5.61775 5.83708 7.18194 4.75966C8.74612 3.68224 10.6007 3.10533 12.5 3.10533C14.3993 3.10533 16.2539 3.68224 17.8181 4.75966C19.3823 5.83708 20.5823 7.3642 21.2593 9.1388C21.9363 10.9134 22.0583 12.8518 21.6091 14.6972C21.16 16.5427 20.1609 18.2082 18.7441 19.4733Z" fill="#282828"/>
</svg>
