<svg width="16" height="16" viewBox="0 0 16 16" fill="none" xmlns="http://www.w3.org/2000/svg">
<path d="M3 15H13V12.5C12.9989 11.5721 12.6298 10.6825 11.9737 10.0263C11.3175 9.37018 10.4279 9.00109 9.5 9H6.5C5.57208 9.00109 4.68247 9.37018 4.02632 10.0263C3.37018 10.6825 3.00109 11.5721 3 12.5V15Z" fill="#0E0E0F"/>
<path d="M4.5 4.5C4.5 5.19223 4.70527 5.86892 5.08986 6.4445C5.47444 7.02007 6.02107 7.46867 6.66061 7.73358C7.30015 7.99849 8.00388 8.0678 8.68282 7.93275C9.36175 7.7977 9.98539 7.46436 10.4749 6.97487C10.9644 6.48539 11.2977 5.86175 11.4327 5.18282C11.5678 4.50388 11.4985 3.80015 11.2336 3.16061C10.9687 2.52107 10.5201 1.97444 9.9445 1.58986C9.36892 1.20527 8.69223 1 8 1C7.07174 1 6.1815 1.36875 5.52513 2.02513C4.86875 2.6815 4.5 3.57174 4.5 4.5Z" fill="#0E0E0F"/>
</svg>
